<?xml version="1.0" encoding="utf-8"?>
<!-- Generator: Adobe Illustrator 27.5.0, SVG Export Plug-In . SVG Version: 6.00 Build 0)  -->
<svg version="1.1" xmlns="http://www.w3.org/2000/svg" xmlns:xlink="http://www.w3.org/1999/xlink" x="0px" y="0px"
	 viewBox="0 0 3710 3710" style="enable-background:new 0 0 3710 3710;" xml:space="preserve">
<g id="Background">
	<g>
		<g>
			<rect style="fill:#FFFFFF;" width="3710" height="3710"/>
		</g>
	</g>
</g>
<g id="Illustration">
	<g>
		<linearGradient id="SVGID_1_" gradientUnits="userSpaceOnUse" x1="3598.9927" y1="4070.23" x2="1115.2002" y2="985.5156">
			<stop  offset="0" style="stop-color:#DAE3FE"/>
			<stop  offset="1" style="stop-color:#E9EFFD"/>
		</linearGradient>
		<path style="fill:url(#SVGID_1_);" d="M2915.686,2853.73c-57.052,60.062-111.033,98.795-153.684,129.397
			c-501.342,359.719-1094.563,254.862-1220.639,229.255c-186.175-37.813-546.047-110.905-806.228-416.873
			c-393.632-462.903-332.338-1192.195-27.01-1673.61c55.849-88.059,350.861-576.807,950.471-655.187
			c362.878-47.435,785.876,48.235,1092.2,304.874C3393.798,1310.294,3348.023,2398.579,2915.686,2853.73z"/>
		<g>
			<g>
				<g style="opacity:0.3;">
					<path style="fill:#91B3FA;" d="M1336.447,1422.164c-6.655,2.684-14.401-0.039-17.836-6.518
						c-7.518-14.167-14.53-28.873-20.844-43.704c-3.072-7.217,0.285-15.556,7.5-18.627c0.087-0.035,0.172-0.069,0.257-0.104
						c7.155-2.886,15.334,0.476,18.369,7.606c5.998,14.092,12.661,28.059,19.8,41.518c3.676,6.925,1.041,15.523-5.888,19.198
						C1337.36,1421.772,1336.905,1421.979,1336.447,1422.164z M1291.026,1307.115c-0.515,0.208-1.049,0.387-1.598,0.537
						c-7.566,2.059-15.371-2.405-17.43-9.971c-4.227-15.542-7.832-31.419-10.712-47.187c-1.41-7.714,3.676-15.082,11.414-16.523
						c7.715-1.408,15.109,3.707,16.517,11.415c2.739,14.988,6.164,30.07,10.185,44.84
						C1301.31,1297.244,1297.606,1304.46,1291.026,1307.115z M1272.066,1184.925c-1.466,0.591-3.057,0.946-4.727,1.016
						c-7.834,0.319-14.449-5.768-14.772-13.602c-0.664-16.059-0.636-32.348,0.083-48.414c0.356-7.834,6.994-13.891,14.819-13.549
						c7.832,0.351,13.9,6.988,13.549,14.82c-0.684,15.257-0.71,30.721-0.081,45.973
						C1281.193,1177.332,1277.477,1182.743,1272.066,1184.925z M1280.907,1061.539c-2.423,0.977-5.143,1.297-7.901,0.783
						c-7.708-1.436-12.792-8.852-11.356-16.559c2.951-15.812,6.619-31.686,10.902-47.181c2.095-7.549,9.911-11.982,17.47-9.899
						c7.556,2.089,11.988,9.912,9.9,17.47c-4.069,14.715-7.556,29.792-10.354,44.818
						C1288.642,1055.919,1285.256,1059.785,1280.907,1061.539z M1317.04,943.224c-3.398,1.37-7.319,1.433-10.945-0.136
						c-7.2-3.112-10.511-11.47-7.397-18.665c6.367-14.726,13.456-29.39,21.071-43.574c3.703-6.912,12.31-9.511,19.223-5.799
						c6.908,3.709,9.503,12.314,5.797,19.227c-7.24,13.481-13.976,27.418-20.028,41.413
						C1323.215,939.261,1320.383,941.876,1317.04,943.224z M1378.441,835.857c-4.4,1.775-9.588,1.308-13.701-1.698
						c-6.331-4.629-7.712-13.508-3.088-19.841c9.481-12.974,19.639-25.707,30.192-37.834c5.151-5.917,14.116-6.538,20.033-1.389
						c5.914,5.143,6.536,14.114,1.39,20.029c-10.027,11.525-19.678,23.617-28.687,35.947
						C1382.959,833.292,1380.815,834.899,1378.441,835.857z M1848.289,609.88c-1.823,0.736-3.825,1.101-5.916,1.011
						c-15.24-0.658-30.715-0.659-45.991,0.001c-7.833,0.337-14.458-5.739-14.794-13.57c-0.341-7.834,5.736-14.46,13.571-14.798
						c16.088-0.695,32.387-0.696,48.435-0.006c7.836,0.338,13.912,6.965,13.573,14.798
						C1856.922,603.061,1853.294,607.862,1848.289,609.88z M1462.056,744.826c-5.462,2.203-11.949,0.837-16.028-3.857
						c-5.145-5.92-4.516-14.887,1.401-20.031c12.13-10.544,24.867-20.687,37.857-30.15c6.358-4.586,15.219-3.227,19.837,3.115
						c4.616,6.337,3.22,15.219-3.118,19.838c-12.338,8.984-24.432,18.616-35.951,28.628
						C1464.83,743.431,1463.478,744.252,1462.056,744.826z M1724.908,618.517c-0.869,0.351-1.784,0.624-2.742,0.801
						c-15.01,2.772-30.099,6.233-44.848,10.275c-7.564,2.07-15.375-2.38-17.448-9.94c-2.069-7.562,2.361-15.406,9.94-17.447
						c15.52-4.251,31.397-7.893,47.191-10.813c7.712-1.424,15.12,3.673,16.543,11.382
						C1734.793,609.525,1731.039,616.044,1724.908,618.517z M1563.909,674.754c-6.645,2.68-14.38-0.031-17.824-6.493
						c-3.689-6.921-1.069-15.518,5.849-19.212c14.168-7.551,28.853-14.593,43.65-20.92c0.09-0.042,0.185-0.081,0.278-0.118
						c7.144-2.882,15.313,0.468,18.358,7.581c3.085,7.212-0.255,15.556-7.468,18.639c-14.053,6.015-28,12.705-41.461,19.882
						C1564.837,674.35,1564.375,674.566,1563.909,674.754z"/>
					<path style="fill:#91B3FA;" d="M1947.098,623.17c-2.592,1.046-5.52,1.342-8.454,0.672c-7.137-1.63-14.426-3.133-21.668-4.482
						c-7.708-1.43-12.8-8.842-11.367-16.549c1.429-7.711,8.841-12.811,16.553-11.366c7.618,1.412,15.283,2.997,22.795,4.709
						c7.643,1.743,12.431,9.356,10.687,16.997C1954.568,617.866,1951.264,621.489,1947.098,623.17z"/>
				</g>
				<g style="opacity:0.3;">
					<path style="fill:#91B3FA;" d="M2298.032,876.583c-6.355,2.564-13.807,0.211-17.458-5.845
						c-3.776-6.269-7.749-12.567-11.805-18.711c-4.321-6.546-2.518-15.352,4.025-19.672c6.572-4.338,15.354-2.515,19.672,4.026
						c4.27,6.47,8.454,13.101,12.432,19.701c4.046,6.716,1.882,15.442-4.834,19.49
						C2299.405,875.969,2298.724,876.304,2298.032,876.583z"/>
					<path style="fill:#91B3FA;" d="M2031.988,1674.948c-6.058,2.444-12.182,4.794-18.368,7.05
						c-7.367,2.685-15.518-1.108-18.205-8.474c-2.687-7.366,1.131-15.557,8.471-18.207c14.276-5.208,28.308-10.982,41.862-17.239
						c7.131-3.277,15.554-0.18,18.841,6.938c3.289,7.124,0.18,15.56-6.94,18.845
						C2049.267,1667.733,2040.632,1671.461,2031.988,1674.948z M1941.608,1702.812c-0.735,0.297-1.509,0.536-2.312,0.711
						c-15.479,3.368-31.274,6.115-46.943,8.165c-7.773,1.019-14.902-4.46-15.92-12.231c-1.017-7.777,4.468-14.928,12.236-15.921
						c14.882-1.949,29.885-4.562,44.597-7.757c7.661-1.667,15.223,3.195,16.888,10.853
						C1951.646,1693.494,1947.906,1700.271,1941.608,1702.812z M2123.153,1627.918c-6.208,2.504-13.512,0.326-17.253-5.515
						c-4.229-6.607-2.301-15.386,4.302-19.617c12.634-8.086,25.091-16.825,37.029-25.982c6.231-4.762,15.137-3.594,19.907,2.627
						c4.772,6.226,3.595,15.139-2.628,19.91c-12.572,9.64-25.694,18.844-38.997,27.362
						C2124.751,1627.189,2123.96,1627.593,2123.153,1627.918z M1820.515,1715.424c-1.672,0.674-3.5,1.034-5.412,1.023
						c-15.826-0.116-31.839-0.911-47.59-2.362c-7.807-0.72-13.552-7.63-12.832-15.438c0.718-7.813,7.625-13.559,15.439-12.836
						c14.956,1.376,30.161,2.132,45.191,2.241c7.841,0.054,14.151,6.462,14.093,14.301
						C1829.361,1708.279,1825.692,1713.336,1820.515,1715.424z M2217.705,1551.384c-5.092,2.054-11.141,1.038-15.298-3.069
						c-5.578-5.512-5.632-14.503-0.12-20.081c10.539-10.662,20.768-21.929,30.409-33.484c5.023-6.021,13.976-6.834,19.999-1.806
						c6.018,5.024,6.827,13.973,1.804,19.993c-10.148,12.167-20.918,24.028-32.015,35.257
						C2221.081,1549.616,2219.448,1550.681,2217.705,1551.384z M2293.176,1455.953c-4.071,1.642-8.844,1.379-12.851-1.125
						c-6.647-4.16-8.666-12.92-4.506-19.568c7.975-12.75,15.506-25.984,22.384-39.332c3.582-6.976,12.141-9.717,19.122-6.123
						c6.971,3.593,9.71,12.152,6.121,19.126c-7.239,14.049-15.163,27.974-23.557,41.389
						C2298.239,1452.961,2295.861,1454.87,2293.176,1455.953z M2346.046,1346.34c-3.096,1.249-6.64,1.417-10.037,0.216
						c-7.392-2.61-11.268-10.722-8.656-18.116c5.015-14.193,9.487-28.746,13.288-43.269c1.986-7.582,9.736-12.127,17.332-10.137
						c7.584,1.989,12.123,9.744,10.137,17.332c-4.003,15.279-8.706,30.602-13.982,45.534
						C2352.714,1341.898,2349.693,1344.869,2346.046,1346.34z M2373.751,1227.813c-2.145,0.865-4.53,1.217-6.99,0.923
						c-7.786-0.932-13.339-7.998-12.406-15.783c1.79-14.937,2.961-30.115,3.481-45.12c0.272-7.836,6.854-13.972,14.677-13.701
						c7.839,0.271,13.971,6.845,13.699,14.681c-0.546,15.805-1.78,31.791-3.664,47.514
						C2381.91,1221.658,2378.398,1225.939,2373.751,1227.813z M2374.76,1106.049c-1.206,0.486-2.501,0.812-3.859,0.952
						c-7.798,0.807-14.777-4.863-15.581-12.66c-1.545-14.926-3.745-29.981-6.548-44.758c-1.461-7.705,3.625-15.134,11.305-16.593
						c7.704-1.463,15.135,3.601,16.596,11.306c2.949,15.555,5.268,31.406,6.891,47.12
						C2384.23,1097.857,2380.48,1103.742,2374.76,1106.049z M2349.012,987.118c-0.27,0.109-0.547,0.208-0.826,0.303
						c-7.436,2.485-15.48-1.53-17.963-8.966c-3.508-10.498-7.381-21.01-11.514-31.256c-1.496-3.708-3.033-7.394-4.6-11.049
						c-3.091-7.209,0.246-15.558,7.454-18.645c7.235-3.271,15.552,0.245,18.643,7.448c1.652,3.849,3.263,7.72,4.838,11.624
						c4.347,10.775,8.421,21.84,12.11,32.881C2359.546,976.613,2355.917,984.333,2349.012,987.118z"/>
					<path style="fill:#91B3FA;" d="M1699.289,1700.974c-2.618,1.056-5.572,1.345-8.526,0.658c-7.486-1.746-15.076-3.684-22.56-5.76
						c-7.558-2.095-11.985-9.919-9.89-17.474c2.098-7.556,9.912-11.988,17.474-9.89c7.11,1.97,14.32,3.811,21.427,5.47
						c7.633,1.777,12.382,9.412,10.601,17.049C1706.721,1695.71,1703.429,1699.304,1699.289,1700.974z"/>
				</g>
				<g>
					<path style="fill:#91B3FA;" d="M1655.451,1541.083c2.48,1.364,5.554,1.005,7.652-0.895l59.87-54.208
						c36.322,10.164,74.527,14.611,113.289,12.579l46.536,65.946c1.632,2.314,4.552,3.336,7.271,2.547l93.038-27.001
						c2.719-0.79,4.637-3.218,4.778-6.043l4.001-80.614c33.828-19.037,63.716-43.243,88.952-71.274l79.59,13.734
						c2.789,0.481,5.577-0.86,6.942-3.34l46.695-84.881c1.365-2.482,1.005-5.555-0.895-7.652l-54.208-59.87
						c10.165-36.322,14.61-74.527,12.578-113.289l65.947-46.538c2.313-1.632,3.336-4.551,2.547-7.271l-27.002-93.039
						c-0.789-2.719-3.216-4.638-6.044-4.777l-80.614-4.002c-19.036-33.828-43.242-63.716-71.273-88.952l13.734-79.591
						c0.48-2.788-0.861-5.577-3.341-6.941l-84.881-46.694c-2.481-1.366-5.554-1.005-7.652,0.894l-59.87,54.209
						c-36.322-10.166-74.527-14.611-113.289-12.579l-46.537-65.948c-1.632-2.312-4.551-3.336-7.271-2.547l-93.039,27.003
						c-2.719,0.788-4.637,3.215-4.778,6.044l-4.001,80.614c-33.828,19.035-63.717,43.243-88.953,71.274l-79.588-13.734
						c-2.79-0.483-5.579,0.86-6.943,3.34L1422,982.468c-1.365,2.48-1.005,5.553,0.894,7.652l54.208,59.87
						c-10.165,36.322-14.61,74.527-12.578,113.289l-65.948,46.537c-2.312,1.631-3.336,4.552-2.545,7.271l27.001,93.037
						c0.789,2.719,3.216,4.638,6.044,4.779l80.614,4.001c19.036,33.827,43.243,63.715,71.273,88.952l-13.733,79.589
						c-0.482,2.79,0.859,5.577,3.34,6.943L1655.451,1541.083z"/>
					<g>
						<path style="fill:#BDD0FB;" d="M1854.404,1235.389c-44.022,17.757-95.716,1.024-120.402-41.131
							c-27.133-46.339-11.509-106.105,34.825-133.24c22.446-13.151,48.669-16.762,73.829-10.184
							c25.165,6.575,46.265,22.559,59.406,45.007c27.134,46.34,11.509,106.105-34.824,133.239
							C1863.061,1231.526,1858.768,1233.628,1854.404,1235.389z M1790.244,1075.738c-3.4,1.371-6.718,2.997-9.94,4.883
							c-35.525,20.801-47.501,66.633-26.702,102.156c20.804,35.527,66.629,47.524,102.158,26.703
							c35.526-20.801,47.502-66.632,26.702-102.155c-10.08-17.212-26.254-29.466-45.55-34.51
							C1821.231,1068.717,1805.008,1069.782,1790.244,1075.738z"/>
					</g>
					<g>
						<path style="fill:#BDD0FB;" d="M1908.866,1365.079c-7.56,3.05-15.319,5.737-23.255,8.041l0,0
							c-2.497,0.726-5.008,1.41-7.528,2.056c-12.428,3.177-25.09,5.361-37.789,6.518c-0.173,0.016-0.346,0.032-0.519,0.048
							c-0.491,0.043-0.982,0.085-1.475,0.122c-0.957,0.081-1.916,0.15-2.872,0.219c-2.517,0.178-4.766-1.313-5.666-3.533
							c-0.218-0.54-0.355-1.124-0.398-1.735c-0.221-3.128,2.144-5.834,5.267-6.06c16.1-1.13,32.185-4.006,47.81-8.545
							c77.623-22.514,134.154-82.922,155.351-155.269c11.795-40.239,12.653-84.175,0.122-127.345
							c-2.195-7.571-4.758-14.975-7.669-22.185c-19.582-48.53-54.965-88.517-101.436-114.079
							c-53.378-29.366-115-36.187-173.506-19.207c-120.83,35.081-190.526,161.839-155.473,282.614
							c2.161,7.447,4.691,14.757,7.575,21.9c12.493,30.956,31.621,58.835,56.109,81.568c0.632,0.588,1.101,1.284,1.402,2.036
							c0.797,1.975,0.444,4.324-1.104,5.989c-2.142,2.293-5.725,2.441-8.028,0.297c-25.708-23.867-45.794-53.135-58.91-85.634
							c-3.027-7.498-5.682-15.17-7.953-22.985c-36.803-126.803,36.457-259.903,163.214-296.693
							c61.423-17.828,126.11-10.664,182.147,20.165c48.787,26.835,85.931,68.814,106.491,119.761
							c3.054,7.571,5.743,15.343,8.051,23.287c17.826,61.427,10.666,126.115-20.16,182.152
							C2001.822,1307.376,1959.826,1344.523,1908.866,1365.079z"/>
					</g>
				</g>
			</g>
			<g>
				<g style="opacity:0.3;">
					<path style="fill:#91B3FA;" d="M1027.084,1950.407c-3.518,1.419-7.685,0.431-10.157-2.699
						c-4.617-5.839-9.121-11.899-13.383-18.01c-2.77-3.971-1.797-9.433,2.177-12.209c3.967-2.791,9.438-1.794,12.209,2.177
						c4.061,5.823,8.353,11.599,12.759,17.173c3.003,3.794,2.355,9.308-1.441,12.318
						C1028.571,1949.687,1027.843,1950.101,1027.084,1950.407z"/>
					<path style="fill:#91B3FA;" d="M990.284,1893.872c-4.122,1.662-8.915-0.033-11.028-4.047
						c-5.978-11.339-11.44-23.116-16.232-34.997c-1.009-2.501-1.993-5.023-2.957-7.561c-1.714-4.535,0.873-9.521,5.09-11.315
						c4.529-1.716,9.591,0.564,11.309,5.088c0.919,2.427,1.859,4.838,2.823,7.228c4.572,11.333,9.781,22.566,15.478,33.38
						c2.261,4.287,0.617,9.586-3.665,11.848C990.83,1893.633,990.558,1893.761,990.284,1893.872z M958.017,1808.729
						c-0.385,0.155-0.788,0.29-1.199,0.392c-4.707,1.151-9.456-1.727-10.61-6.432c-3.705-15.091-6.504-30.546-8.318-45.928
						c-0.57-4.812,2.896-9.165,7.68-9.737c4.814-0.566,9.167,2.867,9.737,7.679c1.732,14.676,4.405,29.417,7.935,43.81
						C964.292,1802.8,961.996,1807.123,958.017,1808.729z M947.361,1718.304c-1.032,0.416-2.161,0.64-3.34,0.636
						c-4.842-0.033-8.739-3.992-8.707-8.834c0.114-15.514,1.194-31.195,3.228-46.595c0.633-4.808,5.026-8.177,9.843-7.545
						c4.798,0.632,8.178,5.04,7.546,9.838c-1.938,14.688-2.974,29.632-3.077,44.429
						C952.825,1713.893,950.558,1717.015,947.361,1718.304z M959.261,1628.023c-1.684,0.679-3.59,0.839-5.48,0.354
						c-4.686-1.222-7.501-6.014-6.279-10.7c3.919-15.044,8.803-29.969,14.526-44.375c1.792-4.499,6.897-6.688,11.387-4.907
						c4.501,1.785,6.7,6.882,4.913,11.389c-5.457,13.726-10.118,27.97-13.853,42.312
						C963.747,1624.894,961.75,1627.019,959.261,1628.023z M992.85,1543.39c-2.351,0.948-5.096,0.874-7.496-0.439
						c-4.246-2.322-5.804-7.65-3.484-11.901c7.454-13.617,15.815-26.907,24.857-39.493c2.822-3.946,8.304-4.836,12.238-2.009
						c3.934,2.827,4.833,8.309,2.009,12.237c-8.627,12.013-16.604,24.686-23.712,37.683
						C996.247,1541.318,994.664,1542.658,992.85,1543.39z M1045.954,1469.482c-3.046,1.229-6.664,0.683-9.239-1.694
						c-3.555-3.285-3.769-8.831-0.486-12.39c10.537-11.398,21.887-22.246,33.732-32.233c3.724-3.118,9.238-2.646,12.36,1.054
						c3.121,3.699,2.65,9.236-1.051,12.354c-11.297,9.525-22.114,19.862-32.159,30.729
						C1048.202,1468.289,1047.118,1469.013,1045.954,1469.482z M1115.499,1410.818c-3.812,1.537-8.301,0.219-10.622-3.352
						c-2.64-4.06-1.489-9.493,2.57-12.136c12.97-8.436,26.639-16.166,40.631-22.983c4.399-2.051,9.611-0.302,11.726,4.051
						c2.121,4.353,0.308,9.6-4.043,11.724c-13.351,6.494-26.388,13.868-38.754,21.912
						C1116.521,1410.35,1116.016,1410.609,1115.499,1410.818z M1241.347,1358.853c-0.469,0.189-0.965,0.343-1.481,0.45
						c-12.51,2.636-25.095,6.004-37.409,10.011c-1.869,0.597-3.696,1.205-5.511,1.834c-4.584,1.572-9.571-0.858-11.147-5.439
						c-1.587-4.587,0.832-9.718,5.434-11.149c1.94-0.662,3.879-1.315,5.838-1.94c12.866-4.183,26.059-7.714,39.179-10.476
						c4.741-0.998,9.389,2.031,10.387,6.771C1247.528,1353.138,1245.219,1357.292,1241.347,1358.853z"/>
				</g>
				<g style="opacity:0.3;">
					<path style="fill:#91B3FA;" d="M1460.599,2062.1c-4.44,1.791-9.511-0.32-11.367-4.75c-1.87-4.464,0.234-9.606,4.703-11.473
						c13.45-5.629,26.671-12.126,39.294-19.313c4.204-2.342,9.565-0.932,11.962,3.282c2.397,4.213,0.922,9.564-3.282,11.962
						c-13.243,7.53-27.1,14.348-41.198,20.248C1460.675,2062.069,1460.635,2062.085,1460.599,2062.1z M1418.248,2076.902
						c-0.294,0.119-0.59,0.219-0.901,0.308c-14.686,4.17-29.776,7.486-44.847,9.863c-4.786,0.749-9.272-2.511-10.025-7.295
						c-0.76-4.791,2.539-9.271,7.292-10.033c14.383-2.265,28.78-5.432,42.796-9.406c4.656-1.324,9.506,1.383,10.826,6.04
						C1424.626,2070.737,1422.346,2075.249,1418.248,2076.902z M1538.404,2017.787c-3.606,1.455-7.875,0.369-10.31-2.896
						c-2.889-3.876-2.09-9.37,1.793-12.266c11.694-8.724,22.955-18.225,33.47-28.258c3.526-3.333,9.057-3.21,12.397,0.3
						c3.342,3.5,3.21,9.056-0.294,12.4c-11.023,10.513-22.832,20.475-35.093,29.614
						C1539.747,2017.144,1539.087,2017.511,1538.404,2017.787z M1329.741,2090.792c-0.925,0.373-1.93,0.594-2.985,0.632
						c-15.268,0.516-30.722,0.093-45.928-1.263c-4.825-0.427-8.387-4.687-7.96-9.513c0.433-4.81,4.692-8.375,9.511-7.955
						c14.5,1.288,29.23,1.69,43.788,1.202c4.839-0.161,8.898,3.631,9.059,8.47
						C1335.352,2086.147,1333.061,2089.453,1329.741,2090.792z M1603.184,1955.984c-2.879,1.161-6.289,0.755-8.851-1.351
						c-3.749-3.077-4.288-8.603-1.217-12.344c9.238-11.243,17.881-23.169,25.689-35.461c2.6-4.096,8.021-5.295,12.108-2.695
						c4.087,2.599,5.295,8.021,2.696,12.108c-8.193,12.881-17.253,25.39-26.934,37.182
						C1605.709,1954.597,1604.498,1955.454,1603.184,1955.984z M1651.249,1880.444c-2.204,0.889-4.755,0.884-7.064-0.217
						c-4.37-2.088-6.223-7.324-4.135-11.693c6.287-13.165,11.831-26.824,16.476-40.591c1.549-4.595,6.53-7.058,11.113-5.508
						c4.59,1.547,7.052,6.518,5.504,11.105c-4.869,14.439-10.677,28.758-17.265,42.553
						C1654.895,1878.151,1653.211,1879.653,1651.249,1880.444z M1679.836,1795.556c-1.548,0.625-3.289,0.819-5.05,0.449
						c-4.744-0.977-7.794-5.62-6.813-10.364c2.962-14.28,5.064-28.869,6.253-43.356c0.402-4.816,4.634-8.416,9.459-8.017
						c4.828,0.398,8.418,4.629,8.022,9.46c-1.252,15.188-3.454,30.49-6.553,45.471
						C1684.533,1792.184,1682.464,1794.496,1679.836,1795.556z"/>
					<path style="fill:#91B3FA;" d="M1240.106,2082.802c-1.569,0.633-3.336,0.819-5.115,0.438
						c-7.339-1.574-14.663-3.375-21.774-5.345c-4.664-1.296-7.403-6.128-6.11-10.796c1.305-4.654,6.127-7.393,10.797-6.109
						c6.78,1.882,13.769,3.597,20.771,5.103c4.736,1.016,7.749,5.683,6.732,10.415
						C1244.769,2079.461,1242.715,2081.749,1240.106,2082.802z"/>
				</g>
				<g>
					<path style="fill:#91B3FA;" d="M1204.488,1975.015c1.659,0.913,3.716,0.673,5.12-0.599l40.063-36.274
						c24.305,6.801,49.87,9.777,75.807,8.417l31.14,44.128c1.092,1.548,3.046,2.232,4.865,1.704l62.257-18.068
						c1.82-0.529,3.103-2.153,3.198-4.044l2.677-53.943c22.636-12.738,42.636-28.936,59.523-47.693l53.257,9.191
						c1.867,0.321,3.733-0.576,4.646-2.236l31.246-56.798c0.913-1.661,0.673-3.717-0.599-5.121l-36.273-40.062
						c6.802-24.305,9.777-49.87,8.417-75.808l44.129-31.14c1.548-1.092,2.232-3.046,1.704-4.865l-18.069-62.257
						c-0.528-1.82-2.152-3.104-4.044-3.197l-53.943-2.678c-12.737-22.636-28.936-42.636-47.693-59.522l9.19-53.259
						c0.322-1.866-0.576-3.732-2.235-4.644L1422.072,1445c-1.659-0.914-3.716-0.672-5.12,0.599l-40.062,36.275
						c-24.304-6.803-49.87-9.777-75.807-8.417l-31.141-44.129c-1.092-1.547-3.045-2.233-4.865-1.704l-62.258,18.069
						c-1.819,0.528-3.103,2.152-3.197,4.044l-2.677,53.943c-22.636,12.737-42.637,28.936-59.524,47.694l-53.256-9.19
						c-1.867-0.323-3.734,0.576-4.646,2.235l-31.246,56.798c-0.912,1.66-0.673,3.716,0.599,5.121l36.273,40.062
						c-6.802,24.305-9.776,49.87-8.416,75.808l-44.13,31.14c-1.547,1.091-2.232,3.046-1.703,4.865l18.067,62.256
						c0.529,1.82,2.152,3.103,4.044,3.198l53.943,2.678c12.738,22.635,28.935,42.635,47.692,59.523l-9.19,53.258
						c-0.322,1.867,0.576,3.732,2.235,4.646L1204.488,1975.015z"/>
					<g>
						<path style="fill:#BDD0FB;" d="M1337.968,1771.584c-13.119,5.292-27.531,6.239-41.465,2.598
							c-17.141-4.481-31.511-15.371-40.463-30.662c-18.48-31.551-7.841-72.262,23.718-90.753
							c31.637-18.45,72.283-7.836,90.761,23.724c8.956,15.29,11.419,33.152,6.937,50.289c-4.479,17.145-15.367,31.518-30.663,40.469
							C1343.935,1768.919,1340.983,1770.368,1337.968,1771.584z M1295.051,1664.743c-2.189,0.883-4.335,1.934-6.432,3.158
							c-23.213,13.601-31.038,43.546-17.443,66.762c6.584,11.241,17.155,19.259,29.761,22.549
							c12.614,3.296,25.743,1.472,36.999-5.099l0,0c11.245-6.586,19.257-17.159,22.553-29.764
							c3.296-12.614,1.483-25.752-5.105-37.002C1343.019,1664.231,1317.11,1655.845,1295.051,1664.743z"/>
					</g>
					<g>
						<path style="fill:#BDD0FB;" d="M1375.759,1861.905c-5.146,2.076-10.438,3.905-15.875,5.489
							c-10.799,3.137-21.928,5.179-33.107,6.069c-0.503,0.036-1.005,0.073-1.508,0.109c-3.888,0.276-7.36-2.027-8.748-5.456
							c-0.336-0.834-0.548-1.736-0.614-2.679c-0.341-4.83,3.313-9.001,8.133-9.357c10.445-0.732,20.856-2.596,30.948-5.53
							l0.004-0.002c0.554-0.159,1.109-0.328,1.657-0.494c23.821-7.162,44.954-19.99,62.003-37.209
							c9.254-9.348,17.303-20,23.912-31.762c0.054-0.096,0.107-0.191,0.161-0.286c0.162-0.297,0.328-0.585,0.486-0.88
							c19.007-34.557,23.425-74.448,12.431-112.324c-1.419-4.903-3.078-9.692-4.962-14.362
							c-12.677-31.417-35.586-57.302-65.671-73.857c-34.557-19.008-74.446-23.418-112.318-12.426
							c-37.846,11-69.205,36.079-88.22,70.63c-19.007,34.557-23.425,74.448-12.432,112.324c1.395,4.82,3.036,9.552,4.9,14.174
							c8.09,20.044,20.47,38.089,36.323,52.803c0.976,0.908,1.701,1.982,2.165,3.144c1.23,3.05,0.685,6.677-1.704,9.248
							c-3.305,3.54-8.84,3.76-12.397,0.457c-17.736-16.466-31.593-36.659-40.645-59.075c-2.089-5.178-3.923-10.468-5.487-15.858
							c-12.299-42.382-7.358-87.009,13.912-125.673c21.27-38.656,56.286-66.743,98.692-79.018
							c42.376-12.301,87.002-7.365,125.665,13.911c33.66,18.511,59.286,47.474,73.469,82.624c2.105,5.218,3.964,10.581,5.555,16.061
							C1496.294,1744.748,1453.343,1830.609,1375.759,1861.905z"/>
					</g>
				</g>
			</g>
		</g>
		<g>
			<rect x="886.126" y="792.98" style="fill:#7D97F4;" width="96.54" height="2190.589"/>
			<g>
				<path style="fill:#7D97F4;" d="M1346.129,1202.934c0,107.843-87.424,195.266-195.267,195.266H715.484
					c-107.843,0-195.267-87.424-195.267-195.266V767.556c0-107.843,87.424-195.266,195.267-195.266h435.378
					c107.843,0,195.267,87.424,195.267,195.266V1202.934z"/>
			</g>
			<g>
				<path style="fill:#FFFFFF;" d="M1302.305,1174.124c0,95.827-77.683,173.511-173.511,173.511h-387.87
					c-95.828,0-173.511-77.683-173.511-173.511V786.253c0-95.828,77.683-173.511,173.511-173.511h387.87
					c95.828,0,173.511,77.683,173.511,173.511V1174.124z"/>
			</g>
			<g>
				<path style="fill:#7D97F4;" d="M780.598,764.676l-48.263-23.634c-4.394-2.152-9.655-1.416-13.291,1.858l-5.245,4.724
					l-8.479,7.636l-5.429,4.889c-3.636,3.274-4.916,8.43-3.234,13.024l18.47,50.465c2.802,7.656,9.176,13.484,17.15,15.182
					l32.616,7.13l211.809,235.19l12.204-10.991l8.479-7.636l11.522-10.376l-211.809-235.19l-3.44-33.406
					C792.802,775.434,787.92,768.262,780.598,764.676z"/>
				
					<linearGradient id="SVGID_00000116195419861557876550000009044514952523156627_" gradientUnits="userSpaceOnUse" x1="700.7183" y1="898.7161" x2="984.7375" y2="898.7161">
					<stop  offset="0" style="stop-color:#4F52FF"/>
					<stop  offset="1" style="stop-color:#4042E2"/>
				</linearGradient>
				<path style="fill:url(#SVGID_00000116195419861557876550000009044514952523156627_);" d="M777.312,767.529l-43.74-21.586
					c-3.958-1.938-8.965-1.573-12.239,1.376l-4.725,4.255l-7.637,6.878l-4.89,4.404c-3.275,2.949-4.161,7.89-2.646,12.029
					l16.771,45.605c2.524,6.896,8.408,12.153,15.59,13.682l29.52,6.43l191.006,212.09l10.843-9.765l7.637-6.878l11.935-10.749
					L793.732,813.21l-3.876-29.389C789.084,776.518,783.908,770.758,777.312,767.529z"/>
				<g>
					
						<linearGradient id="SVGID_00000072992083945300144330000018031234153158001292_" gradientUnits="userSpaceOnUse" x1="923.1939" y1="1139.4747" x2="1190.3431" y2="1139.4747">
						<stop  offset="0" style="stop-color:#4F52FF"/>
						<stop  offset="1" style="stop-color:#4042E2"/>
					</linearGradient>
					<path style="fill:url(#SVGID_00000072992083945300144330000018031234153158001292_);" d="M1149.824,1131.632L999.24,997.236
						l-76.046,68.723l115.88,160.084c10.937,15.109,25.827,26.91,43.034,34.107l46.195,19.689c7.819,3.27,17.356,2.33,23.653-3.342
						l31.617-28.474c5.72-5.151,7.785-13.517,6.311-21.073l-7.774-38.765C1177.866,1166.439,1166.354,1146.385,1149.824,1131.632z"
						/>
					<path style="fill:#7D97F4;" d="M1006.753,988.582c4.639,5.151,4.224,13.087-0.927,17.726l-76.171,68.599
						c-5.151,4.639-13.087,4.224-17.726-0.927l-0.925-1.027c-4.639-5.151-4.224-13.087,0.927-17.726l76.172-68.599
						c5.151-4.639,13.087-4.224,17.726,0.927L1006.753,988.582z"/>
					<g>
						<path style="fill:#7D97F4;" d="M1119.906,1229.358c3.965,4.403,3.61,11.186-0.792,15.151l-0.159,0.143
							c-4.403,3.965-11.186,3.61-15.151-0.792l-143.547-159.393c-3.965-4.403-3.61-11.186,0.792-15.151l0.159-0.143
							c4.403-3.965,11.186-3.61,15.151,0.792L1119.906,1229.358z"/>
						<path style="fill:#7D97F4;" d="M1157.478,1195.521c3.965,4.403,3.61,11.186-0.792,15.151l-0.159,0.143
							c-4.403,3.965-11.186,3.61-15.151-0.793L997.828,1050.63c-3.965-4.403-3.61-11.186,0.792-15.151l0.159-0.143
							c4.403-3.965,11.186-3.61,15.151,0.793L1157.478,1195.521z"/>
					</g>
				</g>
			</g>
			<g>
				<g>
					<path style="fill:#7D97F4;" d="M678.052,1123.865l-10.16,9.469c-17.434,16.249-22.685,38.951-11.729,50.706l13.025,13.975
						c10.956,11.755,33.97,8.111,51.404-8.138l10.16-9.469c0.673-0.627,1.332-1.269,1.977-1.924l289.075-293.738L993.427,854.3
						L680.11,1122.028C679.411,1122.626,678.724,1123.239,678.052,1123.865z M692.039,1137.271
						c13.126-12.234,29.659-15.829,36.928-8.03c7.269,7.799,2.522,24.039-10.604,36.273c-13.126,12.234-29.659,15.829-36.928,8.03
						C674.165,1165.745,678.913,1149.505,692.039,1137.271z"/>
				</g>
				<path style="fill:#7D97F4;" d="M1082.05,743.011l-58.951,54.946c-4.197,3.912-6.341,9.551-5.803,15.263l2.759,29.283
					c0.788,8.358,7.106,15.138,15.389,16.51l29.016,4.809c5.661,0.938,11.436-0.804,15.633-4.716l58.951-54.946
					c8.892-8.288,23.592-2.333,23.922,9.818c0.791,29.068-10.759,58.754-34.214,80.616c-42.394,39.514-102.368,33.639-140.375-7.138
					c-38.007-40.778-39.655-101.016,2.739-140.53c23.456-21.862,53.879-31.298,82.82-28.467
					C1086.034,719.642,1090.942,734.723,1082.05,743.011z"/>
				
					<linearGradient id="SVGID_00000179632252625075347610000001390324849341533887_" gradientUnits="userSpaceOnUse" x1="2430.9709" y1="-5324.3428" x2="2592.782" y2="-4731.0342" gradientTransform="matrix(-0.6818 -0.7315 -0.7315 0.6818 7241.3774 1811.6133)">
					<stop  offset="0" style="stop-color:#09005D"/>
					<stop  offset="1" style="stop-color:#1A0F91"/>
				</linearGradient>
				<path style="fill:url(#SVGID_00000179632252625075347610000001390324849341533887_);" d="M1087.228,748.567l-58.951,54.946
					c-4.198,3.912-6.341,9.551-5.803,15.263l2.759,29.283c0.788,8.358,7.106,15.138,15.389,16.51l29.016,4.809
					c5.661,0.938,11.436-0.804,15.633-4.716l58.951-54.946c8.892-8.288,23.592-2.333,23.922,9.818
					c0.791,29.068-10.759,58.754-34.214,80.616c-42.394,39.514-102.368,33.639-140.375-7.138
					c-38.007-40.778-39.655-101.016,2.739-140.53c23.456-21.862,53.879-31.298,82.82-28.467
					C1091.213,725.197,1096.12,740.279,1087.228,748.567z"/>
				
					<linearGradient id="SVGID_00000088846926356574689180000013398524544870863033_" gradientUnits="userSpaceOnUse" x1="2567.1355" y1="-5104.2192" x2="2728.9465" y2="-4510.9106" gradientTransform="matrix(-0.6818 -0.7315 -0.9067 0.8451 7425.9414 1639.6089)">
					<stop  offset="0" style="stop-color:#09005D"/>
					<stop  offset="1" style="stop-color:#1A0F91"/>
				</linearGradient>
				<path style="fill:url(#SVGID_00000088846926356574689180000013398524544870863033_);" d="M682.182,1128.297l-10.159,9.469
					c-17.434,16.25-22.685,38.951-11.729,50.706l13.025,13.975c10.956,11.755,33.971,8.112,51.404-8.138l10.16-9.47
					c0.673-0.627,1.332-1.269,1.977-1.924l289.075-293.738l-28.378-30.446L684.24,1126.46
					C683.542,1127.058,682.855,1127.67,682.182,1128.297z M696.169,1141.703c13.126-12.234,29.659-15.829,36.928-8.03
					c7.269,7.799,2.522,24.039-10.604,36.273c-13.126,12.234-29.659,15.829-36.928,8.03
					C678.296,1170.176,683.044,1153.937,696.169,1141.703z"/>
			</g>
		</g>
		<g>
			<g>
				
					<linearGradient id="SVGID_00000072992792996996382550000018107392575457927296_" gradientUnits="userSpaceOnUse" x1="-2454.1782" y1="57.1895" x2="-2622.7327" y2="1735.9844" gradientTransform="matrix(1 0 0 1 4566.5967 0)">
					<stop  offset="0" style="stop-color:#FF928E"/>
					<stop  offset="1" style="stop-color:#FE7062"/>
				</linearGradient>
				<path style="fill:url(#SVGID_00000072992792996996382550000018107392575457927296_);" d="M2012.237,2140.137
					c316.182,79.058,501.688,290.404,593.159,311.773c91.47,21.368,457.889,40.917,517.639,96.428
					c59.749,55.511,2.669,94.961,79.491,166.333c84.993,239.824-178.156,311.581-178.156,311.581l-2392.083-19.431
					c0,0-161.422,14.513-164.997-100.772c-3.576-115.285-6.096-167.076,2.383-270.896c8.478-103.82,50.405-115.491,73.524-169.329
					c23.12-53.838,247.684-59.684,291.388-119.564c43.704-59.879,95.734-155.38,281.158-187.937
					C1371.853,2113.351,1828.837,2094.279,2012.237,2140.137z"/>
				
					<linearGradient id="SVGID_00000049912448024816078900000011863174589159572611_" gradientUnits="userSpaceOnUse" x1="745.8789" y1="1465.6023" x2="577.3254" y2="3144.387">
					<stop  offset="0" style="stop-color:#E1473D"/>
					<stop  offset="1" style="stop-color:#E9605A"/>
				</linearGradient>
				<path style="fill:url(#SVGID_00000049912448024816078900000011863174589159572611_);" d="M454.47,2899.219
					c4.113,132.511,228.781,109.031,229.76,108.944c0,0,178.617-136.73-67.102-131.484c-73.84-1.906-148.702-41.02-148.702-41.02
					L454.47,2899.219z"/>
				
					<linearGradient id="SVGID_00000113349025813070325990000015413616316959672729_" gradientUnits="userSpaceOnUse" x1="3121.8037" y1="1704.1466" x2="2953.2495" y2="3382.9392">
					<stop  offset="0" style="stop-color:#E1473D"/>
					<stop  offset="1" style="stop-color:#E9605A"/>
				</linearGradient>
				<path style="fill:url(#SVGID_00000113349025813070325990000015413616316959672729_);" d="M3217.089,2773.901
					c0,0,2.349,33.797-60.971,68.319c-78.483,42.79-400.378-6.56-400.378-6.56l18.282,177.663l256.842,13.097
					C3024.861,3028.056,3368.145,3008.275,3217.089,2773.901z"/>
				
					<linearGradient id="SVGID_00000021090683318576444040000000881779794350277306_" gradientUnits="userSpaceOnUse" x1="-3071.5388" y1="1153.0697" x2="-3578.0503" y2="2321.9419" gradientTransform="matrix(0.9989 -0.0367 0.0367 0.9993 4561.3447 412.8723)">
					<stop  offset="0" style="stop-color:#09005D"/>
					<stop  offset="1" style="stop-color:#1A0F91"/>
				</linearGradient>
				<path style="fill:url(#SVGID_00000021090683318576444040000000881779794350277306_);" d="M875.085,2519.813
					c0,0-7.707-60.173,55.503-133.947c63.211-73.772,100.109-122.43,148.719-134.959c48.609-12.528,404.393-61.754,427.759-23.889
					c23.367,37.864,53.467,270.338,53.467,270.338L875.085,2519.813z"/>
				
					<linearGradient id="SVGID_00000004513425463165619280000012449613824559695801_" gradientUnits="userSpaceOnUse" x1="-2017.9314" y1="-2328.8733" x2="-2577.2681" y2="-673.6929" gradientTransform="matrix(0.9993 -0.0367 0.0367 0.9993 4561.9023 412.9544)">
					<stop  offset="0" style="stop-color:#4F52FF"/>
					<stop  offset="1" style="stop-color:#4042E2"/>
				</linearGradient>
				<path style="opacity:0.42;fill:url(#SVGID_00000004513425463165619280000012449613824559695801_);" d="M1085.758,2244.546
					c39.857-5.937,342.48-41.122,420.619-31.083l20.219,77.785l-651.816,228.532c0,0-3.109-49.523,29.452-98.349
					C958.938,2339.398,1044.088,2249.789,1085.758,2244.546z"/>
				
					<linearGradient id="SVGID_00000010990255290342853730000016107664775317955750_" gradientUnits="userSpaceOnUse" x1="-2429.2512" y1="1430.7079" x2="-2935.894" y2="2599.8831" gradientTransform="matrix(0.9993 -0.0367 0.0367 0.9993 4561.9023 412.9544)">
					<stop  offset="0" style="stop-color:#09005D"/>
					<stop  offset="1" style="stop-color:#1A0F91"/>
				</linearGradient>
				<path style="fill:url(#SVGID_00000010990255290342853730000016107664775317955750_);" d="M1613.488,2226.966
					c9.855,44.926,46.162,263.953,46.162,263.953l769.313-3.557c0,0-242.507-222.851-428.93-258.123
					C1813.611,2193.968,1607.189,2203.218,1613.488,2226.966z"/>
				
					<linearGradient id="SVGID_00000029026749861511985780000008169125823792247688_" gradientUnits="userSpaceOnUse" x1="-1477.6182" y1="-2146.2832" x2="-2036.952" y2="-491.1109" gradientTransform="matrix(0.9993 -0.0367 0.0367 0.9993 4561.9023 412.9544)">
					<stop  offset="0" style="stop-color:#4F52FF"/>
					<stop  offset="1" style="stop-color:#4042E2"/>
				</linearGradient>
				<path style="opacity:0.42;fill:url(#SVGID_00000029026749861511985780000008169125823792247688_);" d="M1973.73,2212.704
					c-151.854-21.077-207.529-17.077-366.705-3.138l15.329,63.668c0,0,236.907-46.463,457.648-19.598
					C2080.002,2253.635,2023.302,2219.584,1973.73,2212.704z"/>
				
					<linearGradient id="SVGID_00000172413748616561135940000016868302198696743854_" gradientUnits="userSpaceOnUse" x1="3170.8872" y1="1709.0771" x2="3002.3333" y2="3387.8677">
					<stop  offset="0" style="stop-color:#E1473D"/>
					<stop  offset="1" style="stop-color:#E9605A"/>
				</linearGradient>
				<path style="fill:url(#SVGID_00000172413748616561135940000016868302198696743854_);" d="M3105.304,2536.877
					c0,0-124.643-39.961-155.047,58.578c-28.984,93.935,252.27,119.216,252.27,119.216S3181.789,2575.319,3105.304,2536.877z"/>
				<path style="opacity:0.56;fill:#FFFFFF;" d="M832.509,2413.352c0.693,0,1.392-0.099,2.092-0.311
					c29.268-8.842,53.921-39.672,82.468-75.372c41.686-52.133,88.942-111.227,165.995-125.928
					c147.782-28.208,371.784-47.75,374.031-47.948c3.986-0.347,6.934-3.852,6.588-7.832c-0.339-3.986-3.711-6.969-7.831-6.587
					c-2.255,0.191-227.006,19.804-375.501,48.146c-82.305,15.711-133.477,79.697-174.59,131.109
					c-27.035,33.812-50.387,63.01-75.343,70.558c-3.831,1.152-5.994,5.195-4.834,9.019
					C826.53,2411.338,829.399,2413.352,832.509,2413.352z"/>
				<path style="opacity:0.56;fill:#FFFFFF;" d="M603.44,2495.396c2.664,0,5.23-1.477,6.488-4.022
					c12.142-24.476,65.894-35.573,117.87-46.302c18.596-3.838,37.82-7.803,55.497-12.433c3.873-1.018,6.184-4.969,5.174-8.834
					c-1.017-3.874-4.968-6.142-8.835-5.174c-17.316,4.537-36.35,8.468-54.762,12.263c-57.928,11.958-112.641,23.253-127.907,54.048
					c-1.781,3.583-0.318,7.923,3.265,9.697C601.262,2495.155,602.358,2495.396,603.44,2495.396z"/>
				<g>
					<path style="opacity:0.56;fill:#FFFFFF;" d="M1660.442,2992.715c0.24,0,0.478,0,0.715,0c4.203,0,7.566-3.757,7.512-7.959
						c-0.041-3.047-1.867-5.776-4.47-6.958c-14.974-24.102-34.412-284.654-43.253-445.253c-0.231-4.199-3.82-7.467-8.017-7.21
						c-4.198,0.23-7.412,3.804-7.181,8.003c0.063,1.13,6.33,114.626,15.308,226.392
						C1639.329,2987.218,1650.59,2992.715,1660.442,2992.715z"/>
				</g>
				
					<linearGradient id="SVGID_00000053508317878251449010000008284646759147611265_" gradientUnits="userSpaceOnUse" x1="1263.0284" y1="1517.5236" x2="1094.4742" y2="3196.3157">
					<stop  offset="0" style="stop-color:#E1473D"/>
					<stop  offset="1" style="stop-color:#E9605A"/>
				</linearGradient>
				<path style="fill:url(#SVGID_00000053508317878251449010000008284646759147611265_);" d="M1400.412,3006.199
					c1.728-10.113,2.698-24.673,2.698-37.854c0-157.8-127.922-285.23-285.721-285.23c-157.799,0-285.721,127.185-285.721,284.984
					c0,13.181,0.97,27.987,2.698,38.1H1400.412z"/>
				<g>
					
						<linearGradient id="SVGID_00000012439777633684665480000000692124018694985617_" gradientUnits="userSpaceOnUse" x1="882.3024" y1="2961.458" x2="1348.045" y2="2961.458">
						<stop  offset="0" style="stop-color:#09005D"/>
						<stop  offset="1" style="stop-color:#1A0F91"/>
					</linearGradient>
					
						<circle style="fill:url(#SVGID_00000012439777633684665480000000692124018694985617_);" cx="1115.174" cy="2961.458" r="232.871"/>
					
						<linearGradient id="SVGID_00000088812436846222088330000014145805858205418423_" gradientUnits="userSpaceOnUse" x1="1651.0015" y1="1151.943" x2="828.4611" y2="3929.7007">
						<stop  offset="0" style="stop-color:#4F52FF"/>
						<stop  offset="1" style="stop-color:#4042E2"/>
					</linearGradient>
					
						<circle style="opacity:0.6;fill:url(#SVGID_00000088812436846222088330000014145805858205418423_);" cx="1115.174" cy="2961.458" r="189.116"/>
					<path style="fill:#7D97F4;" d="M1274.025,3030.006c-0.438,0-0.885-0.087-1.313-0.268c-1.715-0.724-2.515-2.703-1.791-4.418
						c8.553-20.223,12.892-41.709,12.892-63.861c0-90.469-73.601-164.069-164.07-164.069c-28.065,0-55.761,7.206-80.089,20.842
						c-1.636,0.91-3.684,0.326-4.589-1.294c-0.912-1.625-0.333-3.679,1.291-4.589c25.336-14.197,54.171-21.701,83.388-21.701
						c94.186,0,170.812,76.626,170.812,170.812c0,23.059-4.517,45.429-13.425,66.488
						C1276.586,3029.232,1275.338,3030.004,1274.025,3030.006z"/>
				</g>
				
					<linearGradient id="SVGID_00000120541681910638240030000018388967952375027861_" gradientUnits="userSpaceOnUse" x1="2652.2771" y1="1657.0082" x2="2483.7231" y2="3335.7993">
					<stop  offset="0" style="stop-color:#E1473D"/>
					<stop  offset="1" style="stop-color:#E9605A"/>
				</linearGradient>
				<path style="fill:url(#SVGID_00000120541681910638240030000018388967952375027861_);" d="M2802.618,3016.313
					c1.728-10.113,2.698-24.022,2.698-37.203c0-157.8-127.922-284.905-285.721-284.905s-285.721,126.697-285.721,284.496
					c0,13.181,0.97,27.498,2.698,37.611H2802.618z"/>
				<g>
					
						<linearGradient id="SVGID_00000068651376828780033740000009393045482764375228_" gradientUnits="userSpaceOnUse" x1="2284.5076" y1="2972.8735" x2="2750.2502" y2="2972.8735">
						<stop  offset="0" style="stop-color:#09005D"/>
						<stop  offset="1" style="stop-color:#1A0F91"/>
					</linearGradient>
					
						<circle style="fill:url(#SVGID_00000068651376828780033740000009393045482764375228_);" cx="2517.379" cy="2972.874" r="232.871"/>
					
						<linearGradient id="SVGID_00000087408496949815504180000017275078030622595245_" gradientUnits="userSpaceOnUse" x1="2958.7644" y1="1482.2948" x2="2136.2241" y2="4260.0522">
						<stop  offset="0" style="stop-color:#4F52FF"/>
						<stop  offset="1" style="stop-color:#4042E2"/>
					</linearGradient>
					
						<circle style="opacity:0.6;fill:url(#SVGID_00000087408496949815504180000017275078030622595245_);" cx="2517.379" cy="2972.874" r="189.116"/>
					<path style="fill:#7D97F4;" d="M2676.23,3041.421c-0.441,0-0.885-0.087-1.313-0.268c-1.715-0.724-2.515-2.703-1.791-4.418
						c8.553-20.223,12.892-41.709,12.892-63.861c0-90.469-73.6-164.07-164.069-164.07c-28.065,0-55.761,7.206-80.089,20.842
						c-1.633,0.912-3.684,0.329-4.589-1.294c-0.912-1.625-0.333-3.679,1.29-4.589c25.336-14.197,54.171-21.701,83.388-21.701
						c94.186,0,170.812,76.626,170.812,170.812c0,23.059-4.517,45.429-13.425,66.488
						C2678.792,3040.647,2677.544,3041.419,2676.23,3041.421z"/>
				</g>
			</g>
			
				<linearGradient id="SVGID_00000171680458691157424160000011598644034374265260_" gradientUnits="userSpaceOnUse" x1="2225.4038" y1="1614.1493" x2="2056.8501" y2="3292.9373">
				<stop  offset="0" style="stop-color:#FF928E"/>
				<stop  offset="1" style="stop-color:#FE7062"/>
			</linearGradient>
			<path style="fill:url(#SVGID_00000171680458691157424160000011598644034374265260_);" d="M2302.946,2471.138l-58.394-61.213
				c-24.333-25.507-54.958-42.919-88.216-50.155l-115.495-25.125c-31.694-6.896-62.03,17.074-65.499,51.754l-0.815,8.146
				c-3.533,35.324,22.33,66.046,55.26,65.643l148.791-1.824c20.75-0.254,39.607,12.98,47.802,33.547l2.74,6.879
				c3.638,9.13,11.964,15.046,21.175,15.046h36.587C2307.579,2513.837,2317.788,2486.696,2302.946,2471.138z"/>
			
				<linearGradient id="SVGID_00000177477177556998943190000007683601881753300096_" gradientUnits="userSpaceOnUse" x1="1895.9238" y1="1581.0681" x2="1727.3694" y2="3259.8628">
				<stop  offset="0" style="stop-color:#E1473D"/>
				<stop  offset="1" style="stop-color:#E9605A"/>
			</linearGradient>
			<path style="fill:url(#SVGID_00000177477177556998943190000007683601881753300096_);" d="M1700.696,2541.019h192.958
				c15.051,0,25.661,16.136,20.442,31.366c-8.829,25.767-29.857,58.633-79.838,62.471c-44.95,3.453-101.608-24.006-144.343-50.096
				C1670.542,2572.934,1678.436,2541.019,1700.696,2541.019z"/>
			
				<linearGradient id="SVGID_00000140708100093111810240000009978488639215900341_" gradientUnits="userSpaceOnUse" x1="619.6972" y1="1452.9329" x2="451.1426" y2="3131.7292">
				<stop  offset="0" style="stop-color:#E1473D"/>
				<stop  offset="1" style="stop-color:#E9605A"/>
			</linearGradient>
			<path style="fill:url(#SVGID_00000140708100093111810240000009978488639215900341_);" d="M468.909,2635.152l33.738,6.013
				c11.225,2.001,19.4,11.762,19.4,23.164v79.616c0,12.96-10.506,23.466-23.465,23.466H464.97L468.909,2635.152z"/>
		</g>
		<g>
			<g>
				
					<linearGradient id="SVGID_00000096747879034201502710000014763149048392584883_" gradientUnits="userSpaceOnUse" x1="102.6628" y1="1303.4655" x2="327.1548" y2="1898.37" gradientTransform="matrix(0.9869 0.1614 -0.1614 0.9869 2278.9011 575.3264)">
					<stop  offset="0" style="stop-color:#FEBBBA"/>
					<stop  offset="1" style="stop-color:#FF928E"/>
				</linearGradient>
				<path style="fill:url(#SVGID_00000096747879034201502710000014763149048392584883_);" d="M2095.567,1970.533l36.508,50.047
					c62.769,4.168,113.536-7.265,154.101-25.67c-13.056-58.338-30.101-94.466-44.552-116.365
					C2170.857,1950.045,2095.567,1970.533,2095.567,1970.533z"/>
				
					<linearGradient id="SVGID_00000027597023518212919900000002270605652806979764_" gradientUnits="userSpaceOnUse" x1="3379.2813" y1="954.4924" x2="2961.2695" y2="1305.0829">
					<stop  offset="0" style="stop-color:#FF928E"/>
					<stop  offset="1" style="stop-color:#FE7062"/>
				</linearGradient>
				<path style="fill:url(#SVGID_00000027597023518212919900000002270605652806979764_);" d="M2424.847,1859.474l-76.461-177.433
					c-21.56,89.502-63.31,152.601-106.761,196.504c14.451,21.899,31.496,58.027,44.552,116.365
					C2387.41,1948.982,2424.847,1859.474,2424.847,1859.474z"/>
			</g>
			
				<linearGradient id="SVGID_00000178899561824802754470000009221467957120962951_" gradientUnits="userSpaceOnUse" x1="8679.1748" y1="3197.1638" x2="8902.0596" y2="3197.1638" gradientTransform="matrix(-1 0 0 1 11267.6006 0)">
				<stop  offset="0" style="stop-color:#4F52FF"/>
				<stop  offset="1" style="stop-color:#4042E2"/>
			</linearGradient>
			<path style="fill:url(#SVGID_00000178899561824802754470000009221467957120962951_);" d="M2504.631,3242.102
				c-51.901,2.388-102.138,0.888-135.681-0.836c30.54-21.738,100.899-69.032,159.774-87.862l40.416-2.418
				c0,0,13.695,20.829,18.582,68.491C2581.024,3227.834,2561.446,3239.487,2504.631,3242.102z"/>
			
				<linearGradient id="SVGID_00000138535044264260551670000011789636122639565228_" gradientUnits="userSpaceOnUse" x1="8679.1758" y1="3237.2383" x2="8902.0596" y2="3237.2383" gradientTransform="matrix(-1 0 0 1 11267.6006 0)">
				<stop  offset="0" style="stop-color:#09005D"/>
				<stop  offset="1" style="stop-color:#1A0F91"/>
			</linearGradient>
			<path style="fill:url(#SVGID_00000138535044264260551670000011789636122639565228_);" d="M2368.532,3241.562
				c0.134-0.095,0.283-0.2,0.418-0.297c33.542,1.725,83.779,3.225,135.681,0.836c56.815-2.615,76.393-14.268,83.091-22.625
				c0.225,2.195,0.456,4.376,0.641,6.687c0.84,10.46-6.924,19.643-17.387,20.435c-42.506,3.214-147.896,10.492-198.72,7.826
				C2365.553,3254.073,2363.066,3245.458,2368.532,3241.562z"/>
			
				<linearGradient id="SVGID_00000056404276411333604300000015537278851818535590_" gradientUnits="userSpaceOnUse" x1="8295.5391" y1="3197.72" x2="8399.9023" y2="3197.72" gradientTransform="matrix(-1 0 0 1 11267.6006 0)">
				<stop  offset="0" style="stop-color:#4F52FF"/>
				<stop  offset="1" style="stop-color:#4042E2"/>
			</linearGradient>
			<path style="fill:url(#SVGID_00000056404276411333604300000015537278851818535590_);" d="M2867.944,3228.212
				c3.801-24.365,9.896-59.59,14.605-68.594c7.388-14.128,32.678,0,32.678,0s17.754,8.279,25.925,22.077
				c5.208,8.797,19.613,33.823,29.373,50.814c1.124,1.955,1.591,4.034,1.532,6.05l-101.265,3.544
				C2868.316,3238.129,2867.153,3233.285,2867.944,3228.212z"/>
			
				<linearGradient id="SVGID_00000166651887543067200480000012749217476767506600_" gradientUnits="userSpaceOnUse" x1="8295.5439" y1="3245.1587" x2="8396.8086" y2="3245.1587" gradientTransform="matrix(-1 0 0 1 11267.6006 0)">
				<stop  offset="0" style="stop-color:#09005D"/>
				<stop  offset="1" style="stop-color:#1A0F91"/>
			</linearGradient>
			<path style="fill:url(#SVGID_00000166651887543067200480000012749217476767506600_);" d="M2972.056,3238.558
				c-0.169,5.785-4.754,11.031-11.222,11.209l-72.144,1.985c-7.623,0.211-14.223-3.751-17.899-9.65L2972.056,3238.558z"/>
			
				<linearGradient id="SVGID_00000052102512739139829530000000624259643108761252_" gradientUnits="userSpaceOnUse" x1="5685.9736" y1="-2611.2532" x2="5267.9609" y2="-2260.6619" gradientTransform="matrix(1 0 0 1 2234.1582 0)">
				<stop  offset="0" style="stop-color:#FF928E"/>
				<stop  offset="1" style="stop-color:#FE7062"/>
			</linearGradient>
			<path style="fill:url(#SVGID_00000052102512739139829530000000624259643108761252_);" d="M2269.663,1661.03
				c64.574-16.916,183.688-43.406,278.51-37.752c21.778,1.298,39.23,18.517,40.465,40.299
				c14.324,252.54,33.898,476.64,70.759,607.029c-82.855,32.787-164.995,47.995-246.031,36.088
				c-60.709-130.033-113.786-280.153-159.137-450.635c0,0-26.606-135.977-0.77-181.3
				C2257.486,1667.693,2262.788,1662.831,2269.663,1661.03z"/>
			
				<linearGradient id="SVGID_00000060712992861719896540000006446714610940355765_" gradientUnits="userSpaceOnUse" x1="8865.7588" y1="1717.9373" x2="8893.5635" y2="1546.4745" gradientTransform="matrix(-1 0 0 1 11267.6006 0)">
				<stop  offset="0" style="stop-color:#FEBBBA"/>
				<stop  offset="1" style="stop-color:#FF928E"/>
			</linearGradient>
			<path style="fill:url(#SVGID_00000060712992861719896540000006446714610940355765_);" d="M2424.985,1484.125
				c0,0,16.305,97.281,21.167,142.269c0.79,7.31-3.034,14.224-9.572,17.589c-17.822,9.175-55.867,23.951-97.323,10.391
				c-6.827-2.234-11.303-8.839-11.146-16.02l2.843-129.871L2424.985,1484.125z"/>
			<g>
				
					<linearGradient id="SVGID_00000170979730508164311860000008538855026551172490_" gradientUnits="userSpaceOnUse" x1="8955.5596" y1="1439.9563" x2="8775.7031" y2="1577.5739" gradientTransform="matrix(-1 0 0 1 11267.6006 0)">
					<stop  offset="0" style="stop-color:#FEBBBA"/>
					<stop  offset="1" style="stop-color:#FF928E"/>
				</linearGradient>
				<path style="fill:url(#SVGID_00000170979730508164311860000008538855026551172490_);" d="M2318.636,1376.341
					c0,0-31.461,72.273-33.574,110.206c-2.113,37.934-10.287,62.548,33.574,70.187c43.861,7.639,80.811-14.211,100.828-51.997
					c0,0,31.363-58.224,24.328-82.069S2318.636,1376.341,2318.636,1376.341z"/>
				
					<linearGradient id="SVGID_00000150817968663445409830000011483820581441568659_" gradientUnits="userSpaceOnUse" x1="8820.2822" y1="1338.251" x2="8983.1445" y2="1547.936" gradientTransform="matrix(-1 0 0 1 11267.6006 0)">
					<stop  offset="0" style="stop-color:#09005D"/>
					<stop  offset="1" style="stop-color:#1A0F91"/>
				</linearGradient>
				<path style="fill:url(#SVGID_00000150817968663445409830000011483820581441568659_);" d="M2404.476,1477.568h-5.545
					c0,0,22.847-46.862,2.772-55.094c-20.074-8.233-81.511-8.137-98.667-36.352c-16.539-27.2,27.146-43.908,49.214-53.74
					c1.396-0.622-26.243-4.209-25.529-2.858l-4.547-3.378c1.252,2.369,15.754-8.859,16.5-11.433
					c0.706-2.441,17.885-12.94,19.227-10.783c5.252,8.438-16.773,19.335,21.367,26.375c54.119,9.988,89.897,31.891,90.776,69.292
					c0.056,2.369,2.589,3.675,4.612,2.442c3.995-2.435-11.882-3.569-3.338,3.616c6.108,5.137,9.991,11.139,10.917,19.129
					c1.08,9.324-5.875,20.794-12.377,26.929c-3.838,3.622-5.923,8.404-5.817,13.685c0.109,5.423,3.261,9.798,3.906,15.035
					c0.828,6.717-5.845,11.348-10.953,14.283c-7.14,4.103-14.215,8.333-21.032,12.957c-3.823,2.593-11.473,10.567-16.486,9.285
					c-1.402-0.359-2.345-1.637-2.256-3.082l2.048-33.145c0.105-1.714-1.256-3.162-2.973-3.162H2404.476z"/>
				
					<linearGradient id="SVGID_00000022522091166182890580000007433417558228928168_" gradientUnits="userSpaceOnUse" x1="8933.251" y1="1410.7997" x2="8753.3945" y2="1548.4174" gradientTransform="matrix(-1 0 0 1 11267.6006 0)">
					<stop  offset="0" style="stop-color:#FEBBBA"/>
					<stop  offset="1" style="stop-color:#FF928E"/>
				</linearGradient>
				<path style="fill:url(#SVGID_00000022522091166182890580000007433417558228928168_);" d="M2403.113,1484.503
					c0,0,12.002-46.166,32.701-33.222c20.699,12.944-10.741,51.728-27.382,53.455L2403.113,1484.503z"/>
			</g>
			<g>
				
					<linearGradient id="SVGID_00000107556378021602802910000018125039405123850131_" gradientUnits="userSpaceOnUse" x1="50.5924" y1="-271.2648" x2="-35.0987" y2="-654.3548" gradientTransform="matrix(1 0 0 1 2234.1582 0)">
					<stop  offset="0" style="stop-color:#FEBBBA"/>
					<stop  offset="1" style="stop-color:#FF928E"/>
				</linearGradient>
				<path style="fill:url(#SVGID_00000107556378021602802910000018125039405123850131_);" d="M2755.74,1997.376
					c31.934,89.593,13.95,185.648,13.95,185.648l42.093,11.225c0,0,54.381-64.678,41.94-208.203
					C2814.868,1980.117,2778.476,1989.222,2755.74,1997.376z"/>
				
					<linearGradient id="SVGID_00000097495787480970903520000006000317816415549832_" gradientUnits="userSpaceOnUse" x1="5708.8101" y1="-2584.062" x2="5290.7974" y2="-2233.4702" gradientTransform="matrix(1 0 0 1 2234.1582 0)">
					<stop  offset="0" style="stop-color:#FF928E"/>
					<stop  offset="1" style="stop-color:#FE7062"/>
				</linearGradient>
				<path style="fill:url(#SVGID_00000097495787480970903520000006000317816415549832_);" d="M2853.722,1986.047
					c-1.398-16.138-3.599-33.221-6.861-51.374c-28.442-158.292-231.374-280.053-279.126-306.717
					c-4.439-2.48-9.843,0.866-9.683,5.949l6.782,215.178c113.019,15.191,166.512,79.858,190.905,148.293
					C2778.476,1989.222,2814.868,1980.117,2853.722,1986.047z"/>
			</g>
			
				<linearGradient id="SVGID_00000165931912039013083720000015706542192419649158_" gradientUnits="userSpaceOnUse" x1="-66.1431" y1="1317.233" x2="158.3595" y2="1912.1659" gradientTransform="matrix(0.9869 0.1614 -0.1614 0.9869 2278.9011 575.3264)">
				<stop  offset="0" style="stop-color:#FEBBBA"/>
				<stop  offset="1" style="stop-color:#FF928E"/>
			</linearGradient>
			<path style="fill:url(#SVGID_00000165931912039013083720000015706542192419649158_);" d="M1991.826,1987.147
				c-7.431-3.423-12.856-9.996-14.94-17.909c-4.039-15.333-7.479-39.401,9.003-43.865c24.547-6.647,59.122,42.728,59.122,42.728
				l14.916,36.216l17.086,12.065C2059.239,2018.281,2027.728,2005.118,1991.826,1987.147z"/>
			
				<linearGradient id="SVGID_00000065778634520565484810000017871296792968970636_" gradientUnits="userSpaceOnUse" x1="2520.5352" y1="1154.3032" x2="2796.9631" y2="753.1462">
				<stop  offset="0" style="stop-color:#4F52FF"/>
				<stop  offset="1" style="stop-color:#4042E2"/>
			</linearGradient>
			<path style="fill:url(#SVGID_00000065778634520565484810000017871296792968970636_);" d="M2476.81,1440.978
				c-25.724-7.021-51.434-14.135-77.082-21.444c-43.781-12.477-88.292-23.499-131.516-37.785
				c-9.202-3.041-18.391-5.968-27.685-8.712c-5.573-1.645-12.495-4.438-16.253-9.083c-4.09-5.057-2.365-12.708,4.677-12.959
				c12.11-0.433,24.642,1.226,36.52,3.293c3.422,0.595,37.267,6.978,37.176,7.607c0.008-0.057,12.88-88.91,113.41-57.932
				C2537.182,1341.286,2491.855,1448.991,2476.81,1440.978z"/>
			
				<linearGradient id="SVGID_00000071541261610573324110000014030685357793193398_" gradientUnits="userSpaceOnUse" x1="2547.4233" y1="3131.0366" x2="2951.1926" y2="1847.6251">
				<stop  offset="0" style="stop-color:#09005D"/>
				<stop  offset="1" style="stop-color:#1A0F91"/>
			</linearGradient>
			<path style="fill:url(#SVGID_00000071541261610573324110000014030685357793193398_);" d="M2413.365,2309.333
				c2.506,13.086,90.921,566.519,96.286,852.893c0.09,4.801,3.383,8.829,7.814,9.491c11.225,1.679,33.083,3.838,54.278-0.379
				c2.903-0.577,5.09-3.142,5.273-6.304c3.09-53.367,27.941-504.58-2.494-716.987c0,0,251.395,567.796,289.501,724.358
				c0.927,3.809,4.185,6.371,7.849,6.164c10.768-0.61,33.158-2.689,50.937-9.711c6.372-2.517,10.002-9.704,8.393-16.784
				c-21.29-93.696-170.499-739.239-271.806-881.468L2413.365,2309.333z"/>
			
				<linearGradient id="SVGID_00000067212797600127680850000006459137747480050353_" gradientUnits="userSpaceOnUse" x1="8837.5977" y1="2253.6558" x2="8606.6045" y2="2552.2971" gradientTransform="matrix(-1 0 0 1 11267.6006 0)">
				<stop  offset="0" style="stop-color:#5AB6FF"/>
				<stop  offset="1" style="stop-color:#2F68E3"/>
			</linearGradient>
			<path style="opacity:0.25;fill:url(#SVGID_00000067212797600127680850000006459137747480050353_);" d="M2574.523,2439.251
				c0.833,0,1.665-0.313,2.307-0.941c1.303-1.273,1.326-3.364,0.052-4.667l-33.663-34.423c-1.274-1.305-3.364-1.324-4.666-0.052
				c-1.303,1.273-1.326,3.365-0.051,4.666l33.663,34.424C2572.81,2438.919,2573.667,2439.251,2574.523,2439.251z"/>
			
				<linearGradient id="SVGID_00000106143402769988841930000005064262034790059711_" gradientUnits="userSpaceOnUse" x1="2633.165" y1="1442.0977" x2="2403.0681" y2="2507.1216">
				<stop  offset="0" style="stop-color:#09005D"/>
				<stop  offset="1" style="stop-color:#1A0F91"/>
			</linearGradient>
			<path style="fill:url(#SVGID_00000106143402769988841930000005064262034790059711_);" d="M2416.968,2315.224l-91.944-217.741
				l-15.228-245.689l187.869-16.998c41.209,73.363,83.833,140.794,129.899,193.808c1.933,2.224,3.323,4.843,4.059,7.696
				l58.784,227.886L2416.968,2315.224z"/>
			
				<linearGradient id="SVGID_00000052081918598219566690000002700867079557760939_" gradientUnits="userSpaceOnUse" x1="2393.666" y1="1379.5763" x2="2157.6919" y2="2471.8037">
				<stop  offset="0" style="stop-color:#09005D"/>
				<stop  offset="1" style="stop-color:#1A0F91"/>
			</linearGradient>
			<path style="fill:url(#SVGID_00000052081918598219566690000002700867079557760939_);" d="M2309.798,1851.793
				c-19.92-57.651-26.723-117.61-40.135-190.764c18.734-11.835,25.268-17.405,43.294-13.359
				c12.296,73.369,25.166,142.845,41.297,206.84L2309.798,1851.793z"/>
			
				<linearGradient id="SVGID_00000073692219434548290240000005443633874097795206_" gradientUnits="userSpaceOnUse" x1="2554.4331" y1="1420.0402" x2="2321.4995" y2="2498.1941">
				<stop  offset="0" style="stop-color:#09005D"/>
				<stop  offset="1" style="stop-color:#1A0F91"/>
			</linearGradient>
			<path style="fill:url(#SVGID_00000073692219434548290240000005443633874097795206_);" d="M2459.472,1838.475
				c0.277-71.102,1.168-143.115,15.964-215.975c23.358-4.287,33.432-6.11,49.443,0c-17.901,77.621-18.121,153.936-27.212,223.478
				L2459.472,1838.475z"/>
			<g>
				
					<linearGradient id="SVGID_00000099639863582307425400000004576009479079360659_" gradientUnits="userSpaceOnUse" x1="2981.8804" y1="1336.2759" x2="2742.5344" y2="1713.8356">
					<stop  offset="0" style="stop-color:#4F52FF"/>
					<stop  offset="1" style="stop-color:#4042E2"/>
				</linearGradient>
				<path style="fill:url(#SVGID_00000099639863582307425400000004576009479079360659_);" d="M3019.177,2327.035l37.446,22.773
					c64.257,39.078,94.987,105.877,68.638,149.203l-31.324,51.508c-26.349,43.325-99.797,46.769-164.053,7.691l-37.447-22.772
					c-2.479-1.508-4.927-3.069-7.339-4.683l-1080.985-723.061l68.245-112.217l1139.285,627.195
					C3014.184,2324.073,3016.698,2325.527,3019.177,2327.035z M2984.518,2377.397c-48.378-29.421-101.767-29.969-119.249-1.223
					c-17.481,28.746,7.564,75.9,55.942,105.321c48.378,29.421,101.768,29.968,119.25,1.222
					C3057.942,2453.971,3032.895,2406.818,2984.518,2377.397z"/>
				
					<linearGradient id="SVGID_00000120557914764048303440000016104825975555642042_" gradientUnits="userSpaceOnUse" x1="2011.408" y1="556.0478" x2="1886.6788" y2="930.2363">
					<stop  offset="0" style="stop-color:#4F52FF"/>
					<stop  offset="1" style="stop-color:#4042E2"/>
				</linearGradient>
				<path style="fill:url(#SVGID_00000120557914764048303440000016104825975555642042_);" d="M1527.391,1408.177l217.278,132.138
					c15.47,9.408,25.697,25.464,27.683,43.461l10.181,92.256c2.906,26.333-12.29,51.319-37.008,60.852l-86.597,33.398
					c-16.893,6.515-35.854,4.82-51.324-4.588l-217.278-132.138c-32.773-19.931-74.395,7.863-67.655,45.623
					c16.125,90.335,70.782,174.694,157.234,227.269c156.254,95.026,337.839,38.556,429.241-111.74
					c91.402-150.295,58.01-337.504-98.243-432.53c-86.451-52.575-186.498-62.3-274.125-35.061
					C1500.148,1338.504,1494.617,1388.246,1527.391,1408.177z"/>
				
					<linearGradient id="SVGID_00000145769989308109665200000010054708223516982670_" gradientUnits="userSpaceOnUse" x1="3434.0161" y1="-2569.4001" x2="3742.7046" y2="-1547.9221" gradientTransform="matrix(0.5196 -0.8544 0.8544 0.5196 2805.915 6120.5117)">
					<stop  offset="0" style="stop-color:#4F52FF"/>
					<stop  offset="1" style="stop-color:#4042E2"/>
				</linearGradient>
				<path style="fill:url(#SVGID_00000145769989308109665200000010054708223516982670_);" d="M1514.937,1428.654l217.278,132.138
					c15.471,9.408,25.698,25.464,27.684,43.462l10.181,92.255c2.906,26.333-12.29,51.319-37.007,60.853l-86.597,33.398
					c-16.894,6.516-35.854,4.821-51.324-4.587l-217.278-132.138c-32.773-19.931-74.396,7.862-67.655,45.623
					c16.125,90.335,70.782,174.694,157.233,227.269c156.254,95.026,337.839,38.556,429.241-111.739
					c91.402-150.296,58.01-337.504-98.244-432.53c-86.451-52.575-186.498-62.3-274.125-35.061
					C1487.695,1358.981,1482.164,1408.723,1514.937,1428.654z"/>
				
					<linearGradient id="SVGID_00000155828297735652998430000005447153907487426439_" gradientUnits="userSpaceOnUse" x1="3264.1357" y1="-1471.7593" x2="3572.834" y2="-450.2486" gradientTransform="matrix(0.5196 -0.8544 1.059 0.6441 2590.1484 5989.7534)">
					<stop  offset="0" style="stop-color:#4F52FF"/>
					<stop  offset="1" style="stop-color:#4042E2"/>
				</linearGradient>
				<path style="fill:url(#SVGID_00000155828297735652998430000005447153907487426439_);" d="M3009.243,2343.369l37.446,22.773
					c64.257,39.078,94.987,105.877,68.639,149.203l-31.325,51.508c-26.348,43.326-99.797,46.769-164.054,7.691l-37.446-22.773
					c-2.479-1.508-4.927-3.069-7.338-4.682L1794.18,1824.028l68.245-112.216l1139.285,627.196
					C3004.25,2340.407,3006.763,2341.862,3009.243,2343.369z M2974.584,2393.732c-48.378-29.421-101.767-29.969-119.249-1.223
					c-17.482,28.746,7.564,75.9,55.942,105.321c48.378,29.421,101.767,29.968,119.25,1.222
					C3048.008,2470.306,3022.962,2423.153,2974.584,2393.732z"/>
			</g>
			
				<linearGradient id="SVGID_00000121957684166659806880000004340538927254774429_" gradientUnits="userSpaceOnUse" x1="450.366" y1="2106.5847" x2="705.8455" y2="2475.6099" gradientTransform="matrix(1 0 0 1 2234.1582 0)">
				<stop  offset="0" style="stop-color:#FEBBBA"/>
				<stop  offset="1" style="stop-color:#FF928E"/>
			</linearGradient>
			<path style="fill:url(#SVGID_00000121957684166659806880000004340538927254774429_);" d="M2772.498,2161.978h-52.042
				c0,0,42.218,25.319,43.621,51.946c1.403,26.628-16.761,81.783-25.256,96.798c-9.291,16.42,117.845-24.45,72.962-148.744H2772.498
				z"/>
		</g>
	</g>
</g>
</svg>
