<?xml version="1.0" encoding="utf-8"?>
<!-- Generator: Adobe Illustrator 27.5.0, SVG Export Plug-In . SVG Version: 6.00 Build 0)  -->
<svg version="1.1" xmlns="http://www.w3.org/2000/svg" xmlns:xlink="http://www.w3.org/1999/xlink" x="0px" y="0px"
	 viewBox="0 0 3710 3710" style="enable-background:new 0 0 3710 3710;" xml:space="preserve">
<g id="Background">
	<g>
		<g>
			<rect style="fill:#FFFFFF;" width="3710" height="3710"/>
		</g>
	</g>
</g>
<g id="Illustration">
	<g>
		<path style="fill:#F4F7FA;" d="M1588.99,579.112c0,0-991.65,43.096-1047.914,915.233S224.592,3196.288,857.56,3245.82
			c632.968,49.532,2116.927,145.748,2327.917-373.832C3396.466,2352.408,3501.961,396.153,1588.99,579.112z"/>
		<g>
			<g>
				
					<linearGradient id="SVGID_1_" gradientUnits="userSpaceOnUse" x1="-2855.2727" y1="-3583.6445" x2="-2296.3125" y2="-10.2811" gradientTransform="matrix(-0.1307 -0.9914 -0.9914 0.1307 -784.7887 -980.681)">
					<stop  offset="0" style="stop-color:#FFC444"/>
					<stop  offset="0.9964" style="stop-color:#F36F56"/>
				</linearGradient>
				<path style="fill:url(#SVGID_1_);" d="M1317.545,1584.566c-12.184-16.434-24.204-62.928-22.34-76.339
					c12.403-89.253,24.769-257.869,97.154-319.795c12.362-10.576,73.568,31.249,91.361,28.235
					c45.495,17.194,60.211,25.981,111.493,21.08c151.396-14.47,162.838-324.974,393.56-198.696
					c169,92.497,231.09,248.286,422.963,36.064c191.873-212.222,723.5-409.953,789.138-54.763
					c37.67,203.846-258.952,245.724-326.176,434.009c-63.881,178.92-214.788,224.119-413.688,164.756
					s-188.47,64.621-268.491,214.594c-96.122,180.15-328.122-11.167-427.696-108.63
					C1684.638,1646.596,1427.509,1500.845,1317.545,1584.566z"/>
				<g>
					<defs>
						<path id="SVGID_00000031897583807077769130000012476263168479795632_" d="M1378.184,1138.286
							c-66.214,124.066-138.703,247.585-206.058,372.163c50.809,62.11,112.089,133.933,195.199,78.471
							c115.548-77.11,318.144,57.311,397.844,136.157c98.644,97.587,331.468,288.705,427.385,108.617
							c79.85-149.922,69.605-273.961,268.472-214.578s349.761,14.145,413.679-164.765
							c67.264-188.276,363.766-230.104,326.172-434.005c-65.507-355.287-597.535-157.305-789.03,54.72s-255.201,57.01-422.77-36.151
							c-228.767-127.186-247.383,186.609-391.489,197.558C1484.617,1245.056,1456.643,1193.013,1378.184,1138.286z"/>
					</defs>
					<clipPath id="SVGID_00000068640712858699801780000015780844079056517001_">
						<use xlink:href="#SVGID_00000031897583807077769130000012476263168479795632_"  style="overflow:visible;"/>
					</clipPath>
					<g style="clip-path:url(#SVGID_00000068640712858699801780000015780844079056517001_);">
						<path style="fill:#FCFDFE;" d="M1339.639,1355.839l1.495-4.084c629.276,230.277,1326.987,62.25,1866.372-449.473l2.997,3.156
							c-255.631,242.519-558.568,414.036-876.06,496.006C2000.66,1487.623,1656.663,1471.851,1339.639,1355.839z"/>
						<path style="fill:#FCFDFE;" d="M2161.156,1913.171c-79.638-165.073-280.558-375.968-447.885-470.115l2.134-3.791
							c167.984,94.518,369.702,306.263,449.669,472.013L2161.156,1913.171z"/>
						<path style="fill:#FCFDFE;" d="M1463.686,1399.629l0.307-4.34c99.553,6.979,198.812-36.64,295.015-129.643
							c70.541-68.194,137.828-160.859,199.994-275.428l3.824,2.077c-62.378,114.956-129.933,207.978-200.792,276.479
							C1664.905,1362.672,1564.526,1406.698,1463.686,1399.629z"/>
						<path style="fill:#FCFDFE;" d="M2379.055,1388.059l0.081-4.351c188.33,3.504,349.154,119.136,450.907,215.521l-2.994,3.16
							C2725.856,1506.531,2565.99,1391.535,2379.055,1388.059z"/>
						<path style="fill:#FCFDFE;" d="M2777.976,1224.39l-2.783-3.345c163.095-135.754,212.967-352.841,228.179-470.16l4.316,0.559
							C2992.392,869.396,2942.213,1087.685,2777.976,1224.39z"/>
					</g>
				</g>
			</g>
		</g>
		<g>
			<g>
				<defs>
					<path id="SVGID_00000069357975421293066250000005044907975885379974_" d="M1003.387,2797.319
						c-102.354-64.633-203.482-131.735-303.297-201.256c-2.488,0.818,67.115-253.084,235.487-327.788
						c330.725-142.705,276.338-426.457,290.382-574.081c11.63-211.793,144.549-416.559,325.962-286.757
						c178.807,121.791,385.868-265.682,489.065-589.146c37.91-162.892,260.39-282.308,420.261-261.273
						c164.813,17.849,267.015,176.148,178.47,495.084c-86.803,376.244-432.415,473.146-603.114,605.408
						c-167.784,129.744-14.561,362.809-254.134,437.47c-204.69,69.967-430.433,85.426-438.29,283.8
						C1339.004,2576.056,1262.096,2705.128,1003.387,2797.319z"/>
				</defs>
				<clipPath id="SVGID_00000120527941050170944720000018371759373069208736_">
					<use xlink:href="#SVGID_00000069357975421293066250000005044907975885379974_"  style="overflow:visible;"/>
				</clipPath>
				
					<linearGradient id="SVGID_00000042010486250777995350000012725634660805028019_" gradientUnits="userSpaceOnUse" x1="1648.855" y1="-533.9409" x2="788.8935" y2="1910.1626" gradientTransform="matrix(-0.5913 -0.8064 -0.8064 0.5913 2984.4851 2251.2544)">
					<stop  offset="0" style="stop-color:#AA80F9"/>
					<stop  offset="0.9964" style="stop-color:#6165D7"/>
				</linearGradient>
				
					<path style="clip-path:url(#SVGID_00000120527941050170944720000018371759373069208736_);fill:url(#SVGID_00000042010486250777995350000012725634660805028019_);" d="
					M1003.387,2797.319c-102.354-64.633-203.482-131.735-303.297-201.256c-2.488,0.818,67.115-253.084,235.487-327.788
					c330.725-142.705,276.338-426.457,290.382-574.081c12.26-211.352,135.021-391.691,320.718-312.851
					c207.735,83.439,394.877-238.664,494.309-563.053c37.91-162.892,260.39-282.308,420.261-261.273
					c164.813,17.849,267.015,176.148,178.47,495.084c-86.803,376.244-432.415,473.146-603.114,605.408
					c-167.784,129.744-14.561,362.809-254.134,437.47c-204.69,69.967-430.433,85.426-438.29,283.8
					C1339.004,2576.056,1262.096,2705.128,1003.387,2797.319z"/>
				<g style="clip-path:url(#SVGID_00000120527941050170944720000018371759373069208736_);">
					<path style="fill:#BEB8F2;" d="M845.206,2744.052c0.906-2.128,327.496-456.584,724.122-864.134
						c59.858-67.829,122.208-135.416,182.501-200.779c335.784-363.998,652.945-707.811,704.069-1223.793l7.175,0.709
						c-51.365,518.388-369.321,863.062-705.946,1227.975c-60.267,65.333-122.589,132.891-182.515,200.79
						c-398.768,409.757-721.202,859.373-722.893,862.31L845.206,2744.052z"/>
					<path style="fill:#BEB8F2;" d="M2060.613,1340.768l-2.942-6.583c182.125-81.494,414.803-208.931,539.804-277.392
						c101.169-55.408,101.437-55.255,104.556-53.228l-1.949,3.03l0.273,3.529c-4.65,1.089-46.472,23.993-99.418,52.99
						C2475.846,1131.626,2243.007,1259.153,2060.613,1340.768z"/>
					<path style="fill:#BEB8F2;" d="M2178.341,1169.744c43.425-165.792,25.019-295.821,1.931-375.707
						c-25.149-87.019-62.426-138.432-68.117-142.281l1.568-2.317l-0.782-4.468c2.13-0.374,3.797,0.931,6.132,3.467
						c33.42,36.333,142.605,231.597,66.244,523.131L2178.341,1169.744z"/>
					<path style="fill:#BEB8F2;" d="M1326.958,2154.483l-6.202-3.681c173.963-293.053,91.796-674.843,48.393-825.389
						c-2.332-8.087-3.075-10.706-3.213-11.966l7.169-0.775l-3.584,0.387l3.58-0.412c0.126,0.892,1.449,5.469,2.975,10.768
						c31.302,108.571,50.306,216.54,56.485,320.903C1444.428,1844.802,1408.898,2016.445,1326.958,2154.483z"/>
					<path style="fill:#BEB8F2;" d="M1443.433,2024.472l-4.067-5.953c224.944-153.671,507.736-46.636,512.005-44.149
						c0.017,0.01,0.031,0.018,0.038,0.026l1.086,4.171l-3.688,2.235l0.329-3.557l-1.666,3.143
						C1944.878,1979.155,1666.131,1872.336,1443.433,2024.472z M1949.472,1973.624l-0.332,3.582L1949.472,1973.624z"/>
					<path style="fill:#BEB8F2;" d="M899.749,2670.328c30.135-61.753,55.111-178.766,2.99-385.514
						c-2.959-11.732-2.959-11.732-1.959-13.325l6.106,3.835l-3.053-1.917l3.575-0.043c0.092,0.842,1.126,4.942,2.32,9.687
						c52.656,208.863,27.164,327.605-3.495,390.438L899.749,2670.328z"/>
					<path style="fill:#BEB8F2;" d="M986.443,2567.456l-5.516-4.641c82.098-97.607,274.683-110.25,382.171-109.097
						c3.409,0.036,5.6,0.066,6.409,0.019l0.412,7.198c-0.867,0.051-3.229,0.031-6.9-0.008
						C1256.803,2459.79,1066.637,2472.117,986.443,2567.456z"/>
				</g>
			</g>
		</g>
		<g>
			
				<linearGradient id="SVGID_00000049912570655267501640000014388347617093819539_" gradientUnits="userSpaceOnUse" x1="756.9026" y1="2009.0902" x2="1219.1764" y2="1960.7928">
				<stop  offset="0.0036" style="stop-color:#26264F"/>
				<stop  offset="1" style="stop-color:#444B8C"/>
			</linearGradient>
			<path style="fill:url(#SVGID_00000049912570655267501640000014388347617093819539_);" d="M566.42,2970.171
				c-55.225,3.227-100.369-35.377-100.369-86.069V1057.059c0-50.692,45.144-90.295,100.369-88.291l2606.759,94.592
				c42.234,1.532,76.453,38.609,76.453,82.654v1587.509c0,44.046-34.219,81.88-76.453,84.348L566.42,2970.171z"/>
			
				<linearGradient id="SVGID_00000127763173328431044140000010549588845236514438_" gradientUnits="userSpaceOnUse" x1="1742.3278" y1="3421.3574" x2="1840.27" y2="3281.0618">
				<stop  offset="0" style="stop-color:#444B8C"/>
				<stop  offset="0.9964" style="stop-color:#26264F"/>
			</linearGradient>
			<path style="fill:url(#SVGID_00000127763173328431044140000010549588845236514438_);" d="M2265.922,3172.395
				c-41.665-14.5-72.806-51.599-81.588-97.199l-60.642-314.896l-518.75,19.327l-63.843,328.052
				c-8.941,45.943,26.851,92.036,68.073,108.957l217.034,89.094c40.367,16.571,83.758,23.171,126.885,19.3l458.67-41.168
				c13.408-1.203,24.163-12.261,25.724-26.448c1.561-14.187,10.955-30.116-1.831-34.565L2265.922,3172.395z"/>
			
				<linearGradient id="SVGID_00000142877426789218579210000008615736581612171431_" gradientUnits="userSpaceOnUse" x1="2038.8148" y1="3385.3931" x2="1888.9167" y2="2571.6626">
				<stop  offset="0" style="stop-color:#444B8C"/>
				<stop  offset="0.9964" style="stop-color:#26264F"/>
			</linearGradient>
			<path style="fill:url(#SVGID_00000142877426789218579210000008615736581612171431_);" d="M2271.055,3153.243
				c-41.623-14.318-72.733-50.951-81.506-95.977l-60.581-310.938l-506.105,19.105l-63.779,323.928
				c-8.932,45.366,14.701,90.858,55.881,107.567l216.815,87.974c40.326,16.362,83.674,22.879,126.757,19.057l458.208-40.651
				c13.395-1.188,24.139-12.108,25.698-26.116c1.559-14.008-6.499-27.231-19.272-31.625L2271.055,3153.243z"/>
			<g>
				<g>
					
						<linearGradient id="SVGID_00000127005030998307380500000005104284575040803974_" gradientUnits="userSpaceOnUse" x1="2408.5913" y1="1139.0378" x2="3158.7261" y2="68.4225">
						<stop  offset="0" style="stop-color:#444B8C"/>
						<stop  offset="0.9964" style="stop-color:#26264F"/>
					</linearGradient>
					<path style="fill:url(#SVGID_00000127005030998307380500000005104284575040803974_);" d="M587.059,2970.171
						c-55.225,3.227-100.368-35.377-100.368-86.069V1057.059c0-50.692,45.144-90.295,100.368-88.291l2606.759,94.592
						c42.235,1.532,76.454,38.609,76.454,82.654v1587.509c0,44.046-34.219,81.88-76.454,84.348L587.059,2970.171z"/>
					
						<linearGradient id="SVGID_00000073703242760903357920000009296519528265574590_" gradientUnits="userSpaceOnUse" x1="2082.7844" y1="1266.1569" x2="1144.4646" y2="4246.3887">
						<stop  offset="0" style="stop-color:#444B8C"/>
						<stop  offset="0.9964" style="stop-color:#26264F"/>
					</linearGradient>
					<path style="fill:url(#SVGID_00000073703242760903357920000009296519528265574590_);" d="M3193.818,1100.699L587.06,1011.361
						c-29.53-1.012-53.528,20.117-53.528,47.195v1421.475v401.536c0,27.079,23.999,47.676,53.528,46.01l2606.758-147.046
						c22.634-1.277,40.942-21.461,40.942-45.087v-362.8V1144.88C3234.76,1121.255,3216.452,1101.475,3193.818,1100.699z"/>
					<path style="fill:#FFFFFF;" d="M587.059,2772.244c-11.498,0.564-20.86-7.55-20.86-18.084V1059.6
						c0-10.534,9.362-18.799,20.86-18.421l2606.759,85.66c8.827,0.29,16.003,8.028,16.003,17.245v1482.772
						c0,9.218-7.176,17.071-16.003,17.504L587.059,2772.244z"/>
				</g>
				<g>
					
						<linearGradient id="SVGID_00000054957743997212043700000001077638688454987406_" gradientUnits="userSpaceOnUse" x1="2133.6462" y1="1448.5863" x2="1253.989" y2="3262.4243">
						<stop  offset="0.0036" style="stop-color:#E38DDD"/>
						<stop  offset="1" style="stop-color:#9571F6"/>
					</linearGradient>
					<polygon style="fill:url(#SVGID_00000054957743997212043700000001077638688454987406_);" points="3105.044,2552.991 
						701.404,2658.549 701.404,1294.435 3105.044,1344.886 					"/>
					
						<linearGradient id="SVGID_00000065754076407983866170000003527946827307356586_" gradientUnits="userSpaceOnUse" x1="1901.3557" y1="1232.9404" x2="1849.4491" y2="1662.6096">
						<stop  offset="0" style="stop-color:#FF9085"/>
						<stop  offset="1" style="stop-color:#FB6FBB"/>
					</linearGradient>
					<polygon style="fill:url(#SVGID_00000065754076407983866170000003527946827307356586_);" points="3105.044,1303.616 
						701.404,1247.835 701.404,1131.334 3105.044,1200.439 					"/>
					<g>
						<path style="fill:#FFFFFF;" d="M2922.486,1247.285c0,7.367-5.801,13.193-12.963,13.011c-7.167-0.181-12.98-6.308-12.98-13.685
							c0-7.377,5.813-13.203,12.98-13.012C2916.684,1233.791,2922.486,1239.918,2922.486,1247.285z"/>
						<path style="fill:#FFFFFF;" d="M2975.683,1248.667c0,7.347-5.769,13.156-12.889,12.976c-7.126-0.18-12.907-6.29-12.907-13.646
							c0-7.356,5.781-13.165,12.907-12.975C2969.914,1235.212,2975.683,1241.32,2975.683,1248.667z"/>
						<path style="fill:#FFFFFF;" d="M3028.579,1250.041c0,7.325-5.736,13.119-12.817,12.94
							c-7.086-0.179-12.834-6.271-12.834-13.606c0-7.336,5.749-13.129,12.834-12.94
							C3022.843,1236.624,3028.579,1242.715,3028.579,1250.041z"/>
					</g>
					<g style="opacity:0.68;">
						<polygon style="fill:#FFFFFF;" points="2618.564,2335.279 753.831,2393.829 753.831,1329.87 2618.564,1365.956 						"/>
					</g>
					<g>
						<g>
							<polygon style="opacity:0.68;fill:#FFFFFF;" points="3079.369,1647.749 2651.176,1645.732 2651.176,1366.587 
								3079.369,1374.874 							"/>
						</g>
						<polygon style="fill:#FFFFFF;" points="3079.369,1697.737 2651.176,1696.867 2651.176,1675.965 3079.369,1677.304 						"/>
						<polygon style="fill:#FFFFFF;" points="2920.046,1733.008 2651.176,1732.972 2651.176,1712.07 2920.046,1712.401 						"/>
					</g>
					<g>
						<g>
							<polygon style="opacity:0.68;fill:#FFFFFF;" points="3079.369,2048.049 2651.176,2055.228 2651.176,1776.083 
								3079.369,1775.173 							"/>
						</g>
						<polygon style="fill:#FFFFFF;" points="3079.369,2098.036 2651.176,2106.363 2651.176,2085.461 3079.369,2077.604 						"/>
						<polygon style="fill:#FFFFFF;" points="2920.046,2136.73 2651.176,2142.468 2651.176,2121.565 2920.046,2116.122 						"/>
					</g>
					<g>
						<g>
							<polygon style="opacity:0.68;fill:#FFFFFF;" points="3079.369,2448.349 2651.176,2464.723 2651.176,2185.578 
								3079.369,2175.473 							"/>
						</g>
						<polygon style="fill:#FFFFFF;" points="3079.369,2498.336 2651.176,2515.859 2651.176,2494.957 3079.369,2477.903 						"/>
						<polygon style="fill:#FFFFFF;" points="2920.046,2540.451 2651.176,2551.963 2651.176,2531.061 2920.046,2519.843 						"/>
					</g>
					<g>
						<polygon style="fill:#FFFFFF;" points="2044.282,2465.803 753.831,2513.7 753.831,2443.756 2044.282,2400.164 						"/>
						<polygon style="fill:#FFFFFF;" points="2618.564,2444.488 2434.449,2451.322 2434.449,2386.984 2618.564,2380.765 						"/>
						<polygon style="fill:#FFFFFF;" points="2406.008,2452.377 2217.752,2459.365 2217.752,2394.304 2406.008,2387.945 						"/>
						<polygon style="fill:#FFFFFF;" points="1344.214,2573.936 753.831,2598.229 753.831,2563.256 1344.214,2539.948 						"/>
					</g>
				</g>
			</g>
		</g>
		<g>
			
				<linearGradient id="SVGID_00000143597339740858870610000001490388056558781569_" gradientUnits="userSpaceOnUse" x1="624.1111" y1="2740.9468" x2="1553.6417" y2="2740.9468">
				<stop  offset="0" style="stop-color:#FFC444"/>
				<stop  offset="0.9964" style="stop-color:#F36F56"/>
			</linearGradient>
			<path style="fill:url(#SVGID_00000143597339740858870610000001490388056558781569_);" d="M649.882,3149.292l-12.172-12.754
				c-19.408-20.336-17.858-52.344,3.468-71.431l836.139-748.343l76.325,86.802L723.25,3151.416
				C702.074,3170.486,669.229,3169.564,649.882,3149.292z"/>
			
				<linearGradient id="SVGID_00000051348104221117584110000000104932912518770619_" gradientUnits="userSpaceOnUse" x1="1278.3574" y1="1981.1873" x2="2459.7383" y2="1981.1873">
				<stop  offset="0" style="stop-color:#FFC444"/>
				<stop  offset="0.9964" style="stop-color:#F36F56"/>
			</linearGradient>
			<path style="fill:url(#SVGID_00000051348104221117584110000000104932912518770619_);" d="M2318.543,1595.417
				c-210.896-259.59-584.869-301.504-834.854-84.584c-254.574,220.902-275.104,617.288-46.619,875.97
				c223.121,252.608,595.412,272.013,832.43,52.187C2502.423,2222.964,2524.642,1849.102,2318.543,1595.417z M1509.778,2321.526
				c-190.287-216.917-172.913-548.222,39.331-733.421c209.037-182.402,522.996-148.736,700.912,68.831
				c174.502,213.393,155.939,528.813-41.04,710.573C2009.088,2551.959,1696.315,2534.169,1509.778,2321.526z"/>
			
				<linearGradient id="SVGID_00000142147461194323109510000001876097954041720461_" gradientUnits="userSpaceOnUse" x1="624.1113" y1="2740.9463" x2="1553.6414" y2="2740.9463">
				<stop  offset="0" style="stop-color:#FFC444"/>
				<stop  offset="0.9964" style="stop-color:#F36F56"/>
			</linearGradient>
			<path style="opacity:0.3;fill:url(#SVGID_00000142147461194323109510000001876097954041720461_);" d="M1477.317,2316.764
				l-106.612,95.417c9.851,43.55,3.812,73.921-6.447,95.472c-38.596,81.08-148.639,63.228-237.19,178.384
				c-44.435,57.785-24.265,72.084-69.316,118.919c-74.479,77.432-138.739,47.844-204.24,117.26
				c-66.253,70.212-41.702,144.137-88.992,163.014c-20.231,8.076-52.289,5.505-105.855-35.775l-17.487,15.652
				c-21.326,19.086-22.876,51.093-3.467,71.432l12.171,12.752c19.347,20.271,52.192,21.194,73.368,2.123l830.391-747.849
				L1477.317,2316.764z"/>
			
				<linearGradient id="SVGID_00000114765230409304433370000009774662049246232251_" gradientUnits="userSpaceOnUse" x1="5108.5151" y1="821.1763" x2="4515.2173" y2="156.8854" gradientTransform="matrix(0.9968 0.0802 -0.0802 0.9968 -2734.0466 1286.8512)">
				<stop  offset="0" style="stop-color:#FFC444"/>
				<stop  offset="0.9964" style="stop-color:#F36F56"/>
			</linearGradient>
			<path style="fill:url(#SVGID_00000114765230409304433370000009774662049246232251_);" d="M2349.105,1611.892
				c-210.897-259.589-584.869-301.504-834.854-84.583c-254.574,220.902-275.104,617.289-46.619,875.971
				c223.121,252.607,595.411,272.012,832.431,52.187C2532.985,2239.439,2555.205,1865.578,2349.105,1611.892z M1540.34,2338.001
				c-190.286-216.918-172.913-548.222,39.331-733.421c209.038-182.401,522.997-148.736,700.913,68.831
				c174.502,213.393,155.939,528.813-41.04,710.573C2039.65,2568.434,1726.878,2550.644,1540.34,2338.001z"/>
			
				<linearGradient id="SVGID_00000060729516036805893150000002301070350837134252_" gradientUnits="userSpaceOnUse" x1="1344.1699" y1="1998.0529" x2="2458.5449" y2="1998.0529">
				<stop  offset="0" style="stop-color:#FFC444"/>
				<stop  offset="0.9964" style="stop-color:#F36F56"/>
			</linearGradient>
			<path style="fill:url(#SVGID_00000060729516036805893150000002301070350837134252_);" d="M2324.912,1633.613
				c-199.266-244.709-552.01-283.638-787.473-78.916c-239.533,208.261-258.954,581.56-44.049,825.457
				c210.145,238.496,561.391,257.394,785.315,50.086C2498.974,2226.317,2519.897,1873.064,2324.912,1633.613z M1540.34,2338.001
				c-190.286-216.918-172.913-548.222,39.331-733.421c209.038-182.401,522.997-148.736,700.913,68.831
				c174.502,213.393,155.939,528.813-41.04,710.573C2039.65,2568.434,1726.878,2550.644,1540.34,2338.001z"/>
		</g>
		<g>
			<g>
				<path style="fill:#26264F;" d="M1585.599,1190.092c33.277,16.887,75.077,1.368,93.362-34.664
					c18.286-36.032,6.133-78.932-27.144-95.819c-1.723-0.876-3.483-1.61-5.247-2.314c6.177-19.937,10.835-40.03,13.957-60.13
					c1.907-0.005,3.821-0.038,5.766-0.212c37.961-3.391,68.083-38.28,67.282-77.929c-0.802-39.649-32.226-69.043-70.188-65.652
					c-1.984,0.179-3.933,0.491-5.872,0.836c-3.968-19.648-9.404-38.841-16.263-57.416c1.746-1.022,3.483-2.078,5.181-3.267
					c32.473-22.76,42.85-67.672,23.174-100.313c-19.675-32.641-61.952-40.65-94.426-17.891c-1.664,1.167-3.229,2.426-4.777,3.705
					c-12.83-14.178-26.902-27.318-42.127-39.309c1.07-1.755,2.117-3.533,3.065-5.4c18.286-36.032,42.183-75.391,8.645-91.756
					c-77.582-37.856-110.864-5.432-129.151,30.6c-0.947,1.867-1.764,3.762-2.549,5.661c-18.667-5.208-37.579-8.808-56.598-10.793
					c0.119-2.003,0.21-4.01,0.17-6.042c-0.803-39.647,10.958-61.105-27.148-61.839c-83.096-1.601-111.124,34.472-110.323,74.118
					c0.042,2.073,0.216,4.099,0.421,6.112c-19.041,5.431-37.741,12.375-55.943,20.771c-0.866-1.768-1.764-3.526-2.791-5.234
					c-19.676-32.641-61.951-40.65-94.426-17.888c-32.475,22.761-42.85,67.672-23.174,100.313c1.007,1.673,2.112,3.236,3.233,4.779
					c-14.38,14.388-27.847,30.009-40.29,46.767c-1.61-1.009-3.243-1.996-4.967-2.871c-33.277-16.887-75.076-1.368-93.362,34.664
					c-18.286,36.032-6.134,78.932,27.143,95.819c1.724,0.876,3.484,1.61,5.249,2.314c-6.178,19.937-10.836,40.03-13.958,60.13
					c-1.908,0.006-3.821,0.038-5.764,0.211c-37.963,3.392-68.086,38.281-67.284,77.931c0.802,39.649,32.227,69.04,70.189,65.649
					c1.983-0.177,3.932-0.489,5.869-0.835c3.969,19.648,9.405,38.84,16.264,57.416c-1.745,1.022-3.483,2.078-5.18,3.267
					c-32.474,22.76-42.85,67.672-23.174,100.313c19.676,32.642,84.797,47.796,117.271,25.036
					c1.664-1.167-19.616-9.571-18.069-10.849c12.831,14.179,26.903,27.318,42.127,39.31c-1.068,1.755-2.117,3.532-3.063,5.399
					c-18.287,36.032-6.134,78.932,27.143,95.819c33.277,16.888,75.077,1.369,93.362-34.663c0.947-1.866,1.763-3.762,2.548-5.661
					c18.668,5.208,37.58,8.809,56.599,10.793c-0.118,2.003-0.21,4.01-0.17,6.043c0.802,39.647,32.227,69.04,70.188,65.65
					c37.961-3.391,68.085-38.281,67.282-77.929c-0.042-2.072-0.215-4.098-0.422-6.111c19.042-5.431,37.743-12.374,55.944-20.771
					c0.865,1.768,1.764,3.526,2.792,5.231c19.676,32.641,61.951,40.652,94.425,17.89c32.475-22.762,42.851-67.672,23.175-100.315
					c-1.008-1.67-2.112-3.234-3.233-4.777c14.38-14.387,27.847-30.009,40.29-46.766
					C1582.243,1188.231,1583.875,1189.217,1585.599,1190.092z M1170.812,1195.431c-120.82-61.316-164.943-217.075-98.551-347.899
					c66.392-130.824,218.157-187.171,338.977-125.856c120.821,61.315,164.944,217.074,98.552,347.898
					C1443.398,1200.398,1291.633,1256.746,1170.812,1195.431z"/>
				<path style="fill:#26264F;" d="M1666.293,996.953c37.961-3.392,68.083-38.282,67.282-77.93
					c-0.802-39.648-32.226-69.042-70.188-65.65c-1.984,0.177-3.933,0.492-5.872,0.836c-3.967-19.648-9.404-38.84-16.263-57.416
					c1.746-1.021,3.483-2.078,5.181-3.268c32.473-22.76,72.645-77.747,49.726-108.197c-43.501-57.792-88.504-32.765-120.977-10.006
					c-1.664,1.167-3.229,2.426-4.776,3.703c-12.831-14.179-26.903-27.317-42.128-39.309c1.07-1.755,2.117-3.532,3.065-5.398
					c9.952-19.61,10.827-41.229,4.248-59.607c-31.361,55.219-62.298,110.67-92.681,166.423
					c96.39,70.605,127.099,209.776,66.878,328.441c-51.031,100.557-152.499,157.034-251.585,149.978
					c-4.418,11.463-8.755,22.99-13.487,34.342c-12.838,30.81-27.424,60.985-42.029,91.121c9.189,1.731,18.418,3.092,27.673,4.06
					c-0.118,2.004-0.21,4.011-0.17,6.042c0.802,39.649,24.88,73.33,93.68,69.669c38.059-2.025,44.592-42.299,43.79-81.948
					c-0.042-2.071-0.215-4.097-0.421-6.11c19.042-5.431,37.742-12.375,55.943-20.772c0.865,1.769,1.764,3.525,2.792,5.231
					c19.676,32.642,87.913,46.5,120.388,23.739c32.476-22.762,16.888-73.52-2.787-106.161c-1.008-1.672-2.112-3.236-3.233-4.779
					c14.38-14.387,27.848-30.009,40.29-46.765c1.61,1.01,3.242,1.996,4.967,2.869c33.277,16.89,75.077,1.368,93.363-34.664
					c18.285-36.03,6.133-78.932-27.144-95.818c-1.724-0.876-3.484-1.61-5.248-2.313c6.177-19.937,10.835-40.031,13.957-60.129
					C1662.434,997.159,1664.349,997.126,1666.293,996.953z"/>
				
					<linearGradient id="SVGID_00000121978398695157405460000002090100839611445174_" gradientUnits="userSpaceOnUse" x1="884.2491" y1="962.6171" x2="1769.379" y2="962.6171">
					<stop  offset="0" style="stop-color:#AA80F9"/>
					<stop  offset="0.9964" style="stop-color:#6165D7"/>
				</linearGradient>
				<path style="fill:url(#SVGID_00000121978398695157405460000002090100839611445174_);" d="M1621.387,1194.155
					c33.277,16.888,75.077,1.369,93.363-34.664c18.285-36.032,6.133-78.931-27.145-95.819c-1.724-0.875-3.483-1.61-5.248-2.314
					c6.179-19.937,10.836-40.03,13.957-60.13c1.908-0.005,3.822-0.038,5.766-0.212c37.961-3.391,68.084-38.28,67.282-77.929
					c-0.802-39.65-32.226-69.042-70.188-65.651c-1.984,0.178-3.932,0.491-5.871,0.836c-3.969-19.648-9.406-38.84-16.264-57.416
					c1.746-1.022,3.484-2.078,5.181-3.267c32.473-22.76,42.85-67.672,23.174-100.314c-19.675-32.641-61.951-40.651-94.426-17.891
					c-1.664,1.167-3.229,2.427-4.777,3.704c-12.831-14.178-26.902-27.317-42.127-39.309c1.07-1.755,2.117-3.533,3.065-5.399
					c18.286-36.032,6.133-78.932-27.143-95.819c-33.277-16.888-75.076-1.368-93.363,34.663c-0.947,1.867-1.764,3.762-2.549,5.662
					c-18.667-5.208-37.579-8.809-56.597-10.794c0.118-2.004,0.209-4.01,0.169-6.042c-0.803-39.648-32.227-69.04-70.189-65.649
					c-37.961,3.39-68.084,38.281-67.282,77.928c0.042,2.072,0.216,4.098,0.422,6.111c-19.041,5.432-37.741,12.375-55.943,20.772
					c-0.865-1.769-1.764-3.526-2.791-5.234c-19.675-32.641-61.952-40.65-94.427-17.889c-32.474,22.762-42.849,67.673-23.174,100.314
					c1.008,1.672,2.112,3.236,3.234,4.779c-14.38,14.387-27.848,30.008-40.291,46.766c-1.61-1.009-3.242-1.996-4.967-2.87
					c-33.277-16.888-75.076-1.368-93.362,34.663c-18.286,36.032-6.134,78.932,27.143,95.819c1.725,0.875,3.483,1.61,5.249,2.313
					c-6.178,19.937-10.836,40.03-13.957,60.13c-1.907,0.006-3.822,0.038-5.766,0.21c-37.961,3.393-68.085,38.282-67.282,77.93
					c0.802,39.649,32.227,69.04,70.188,65.65c1.983-0.177,3.932-0.489,5.87-0.835c3.969,19.647,9.406,38.84,16.263,57.416
					c-1.745,1.021-3.484,2.077-5.18,3.268c-32.474,22.759-42.849,67.672-23.174,100.313c19.675,32.642,61.952,40.651,94.425,17.892
					c1.665-1.168,3.23-2.426,4.777-3.705c12.832,14.179,26.903,27.318,42.127,39.309c-1.069,1.755-2.117,3.533-3.064,5.4
					c-18.285,36.031-6.133,78.931,27.144,95.819c33.277,16.887,75.077,1.368,93.362-34.664c0.948-1.866,1.763-3.762,2.548-5.661
					c18.667,5.208,37.58,8.808,56.599,10.793c-0.118,2.003-0.211,4.01-0.17,6.042c0.804,39.647,32.227,69.041,70.189,65.65
					c37.961-3.391,68.085-38.282,67.282-77.929c-0.041-2.072-0.215-4.098-0.421-6.11c19.042-5.431,37.742-12.374,55.943-20.772
					c0.865,1.768,1.765,3.526,2.793,5.23c19.675,32.641,61.951,40.653,94.425,17.891c32.475-22.762,42.85-67.672,23.175-100.315
					c-1.009-1.671-2.112-3.235-3.234-4.777c14.38-14.387,27.848-30.009,40.291-46.767
					C1618.031,1192.293,1619.664,1193.28,1621.387,1194.155z M1206.601,1199.493c-120.82-61.316-164.944-217.074-98.551-347.898
					c66.393-130.823,218.157-187.171,338.977-125.855c120.821,61.316,164.943,217.074,98.553,347.898
					C1479.186,1204.462,1327.422,1260.808,1206.601,1199.493z"/>
			</g>
			<g>
				<path style="fill:#26264F;" d="M921.207,1771.009c24.445,12.405,55.152,1.005,68.584-25.464
					c13.433-26.469,4.505-57.983-19.94-70.389c-1.265-0.643-2.559-1.183-3.854-1.7c4.538-14.646,7.959-29.406,10.253-44.172
					c1.401-0.004,2.807-0.028,4.236-0.156c27.886-2.491,50.014-28.12,49.426-57.247c-0.589-29.126-23.674-50.719-51.56-48.228
					c-1.458,0.131-2.889,0.361-4.313,0.614c-2.915-14.433-6.909-28.533-11.947-42.178c1.282-0.751,2.559-1.527,3.806-2.4
					c23.855-16.719,31.477-49.712,17.024-73.69c-14.453-23.978-45.51-29.862-69.365-13.143c-1.223,0.857-2.372,1.782-3.509,2.722
					c-9.425-10.415-19.763-20.068-30.947-28.877c0.786-1.289,1.555-2.595,2.251-3.967c13.433-26.469,30.987-55.383,6.351-67.404
					c-56.992-27.809-81.441-3.99-94.874,22.479c-0.696,1.371-1.296,2.764-1.872,4.159c-13.713-3.826-27.606-6.471-41.577-7.929
					c0.087-1.472,0.154-2.946,0.125-4.439c-0.59-29.125,8.049-44.888-19.943-45.427c-61.042-1.176-81.632,25.323-81.043,54.447
					c0.031,1.523,0.159,3.011,0.309,4.49c-13.987,3.99-27.724,9.09-41.095,15.259c-0.636-1.299-1.296-2.59-2.051-3.845
					c-14.454-23.978-45.509-29.861-69.366-13.14c-23.856,16.72-31.478,49.712-17.024,73.69c0.739,1.229,1.551,2.377,2.375,3.51
					c-10.564,10.569-20.457,22.045-29.597,34.355c-1.183-0.741-2.382-1.466-3.648-2.109c-24.445-12.406-55.151-1.005-68.584,25.464
					c-13.433,26.469-4.506,57.983,19.939,70.389c1.267,0.643,2.56,1.183,3.856,1.7c-4.538,14.646-7.96,29.406-10.253,44.171
					c-1.401,0.005-2.807,0.028-4.234,0.155c-27.888,2.492-50.016,28.121-49.427,57.248c0.59,29.126,23.674,50.717,51.561,48.226
					c1.457-0.13,2.889-0.359,4.312-0.613c2.916,14.434,6.909,28.532,11.947,42.178c-1.282,0.751-2.559,1.527-3.805,2.4
					c-23.856,16.719-31.477,49.712-17.024,73.69c14.454,23.979,62.292,35.111,86.148,18.391c1.222-0.857-14.41-7.031-13.274-7.97
					c9.426,10.416,19.763,20.068,30.946,28.877c-0.785,1.289-1.555,2.595-2.25,3.966c-13.434,26.469-4.506,57.983,19.939,70.389
					c24.445,12.406,55.151,1.005,68.584-25.464c0.696-1.371,1.295-2.764,1.872-4.159c13.713,3.826,27.606,6.471,41.578,7.929
					c-0.087,1.471-0.154,2.946-0.125,4.439c0.589,29.125,23.674,50.717,51.56,48.226c27.886-2.491,50.016-28.122,49.425-57.247
					c-0.031-1.522-0.158-3.01-0.31-4.489c13.989-3.99,27.726-9.09,41.096-15.259c0.636,1.299,1.296,2.59,2.051,3.843
					c14.454,23.978,45.509,29.863,69.365,13.142c23.856-16.721,31.478-49.712,17.024-73.691c-0.741-1.227-1.552-2.376-2.375-3.509
					c10.563-10.569,20.456-22.045,29.597-34.354C918.742,1769.642,919.94,1770.366,921.207,1771.009z M616.504,1774.931
					c-88.755-45.043-121.167-159.464-72.396-255.567c48.771-96.104,160.258-137.496,249.013-92.454
					c88.755,45.042,121.168,159.463,72.397,255.566C816.746,1778.58,705.259,1819.973,616.504,1774.931z"/>
				<path style="fill:#26264F;" d="M980.485,1629.129c27.886-2.492,50.014-28.122,49.426-57.248
					c-0.589-29.126-23.674-50.718-51.56-48.226c-1.457,0.13-2.889,0.361-4.313,0.614c-2.914-14.434-6.909-28.532-11.947-42.178
					c1.282-0.75,2.559-1.527,3.806-2.401c23.855-16.719,53.365-57.113,36.529-79.482c-31.956-42.454-65.015-24.069-88.87-7.35
					c-1.223,0.857-2.372,1.782-3.508,2.721c-9.426-10.416-19.763-20.067-30.948-28.876c0.786-1.289,1.555-2.594,2.251-3.965
					c7.311-14.406,7.954-30.287,3.121-43.787c-23.038,40.564-45.764,81.299-68.083,122.254
					c70.808,51.867,93.367,154.102,49.129,241.273c-37.487,73.869-112.026,115.358-184.815,110.174
					c-3.245,8.421-6.431,16.888-9.907,25.228c-9.431,22.633-20.146,44.799-30.875,66.937c6.75,1.271,13.53,2.272,20.329,2.982
					c-0.087,1.472-0.154,2.947-0.125,4.439c0.589,29.126,18.277,53.869,68.818,51.179c27.958-1.488,32.758-31.073,32.168-60.199
					c-0.031-1.521-0.158-3.01-0.309-4.488c13.988-3.99,27.726-9.091,41.096-15.259c0.636,1.299,1.296,2.59,2.051,3.843
					c14.454,23.979,64.581,34.159,88.437,17.438c23.857-16.721,12.406-54.008-2.048-77.986c-0.741-1.228-1.552-2.377-2.375-3.51
					c10.563-10.569,20.457-22.044,29.597-34.354c1.183,0.742,2.382,1.466,3.648,2.108c24.445,12.407,55.152,1.005,68.584-25.464
					c13.432-26.468,4.506-57.983-19.94-70.388c-1.266-0.644-2.559-1.183-3.855-1.699c4.538-14.646,7.959-29.407,10.253-44.171
					C977.65,1629.281,979.056,1629.256,980.485,1629.129z"/>
				
					<linearGradient id="SVGID_00000174594788619276074050000012033605692755633036_" gradientUnits="userSpaceOnUse" x1="405.9947" y1="1603.9056" x2="1056.2118" y2="1603.9056">
					<stop  offset="0" style="stop-color:#AA80F9"/>
					<stop  offset="0.9964" style="stop-color:#6165D7"/>
				</linearGradient>
				<path style="fill:url(#SVGID_00000174594788619276074050000012033605692755633036_);" d="M947.497,1773.993
					c24.445,12.406,55.151,1.005,68.585-25.464c13.432-26.469,4.505-57.983-19.94-70.389c-1.267-0.643-2.559-1.183-3.855-1.7
					c4.539-14.646,7.96-29.406,10.253-44.172c1.401-0.004,2.808-0.028,4.236-0.156c27.887-2.491,50.015-28.12,49.426-57.246
					c-0.589-29.127-23.673-50.719-51.56-48.227c-1.457,0.131-2.889,0.361-4.313,0.614c-2.915-14.433-6.909-28.532-11.947-42.178
					c1.283-0.751,2.559-1.526,3.806-2.4c23.855-16.719,31.477-49.712,17.024-73.69c-14.454-23.978-45.51-29.862-69.365-13.142
					c-1.223,0.857-2.372,1.782-3.509,2.721c-9.425-10.415-19.763-20.067-30.947-28.876c0.786-1.289,1.555-2.595,2.252-3.966
					c13.433-26.469,4.506-57.983-19.939-70.389c-24.445-12.406-55.151-1.005-68.584,25.464c-0.696,1.371-1.296,2.764-1.872,4.159
					c-13.712-3.826-27.605-6.471-41.576-7.929c0.087-1.472,0.154-2.946,0.124-4.439c-0.59-29.125-23.674-50.717-51.561-48.226
					c-27.886,2.49-50.015,28.121-49.426,57.246c0.031,1.522,0.158,3.01,0.31,4.489c-13.988,3.99-27.725,9.091-41.096,15.26
					c-0.636-1.299-1.296-2.59-2.05-3.845c-14.453-23.978-45.51-29.862-69.366-13.141c-23.856,16.721-31.477,49.713-17.024,73.691
					c0.741,1.228,1.551,2.377,2.375,3.51c-10.564,10.569-20.457,22.044-29.598,34.355c-1.183-0.741-2.382-1.466-3.649-2.108
					c-24.445-12.406-55.151-1.005-68.583,25.464c-13.433,26.469-4.506,57.984,19.939,70.389c1.267,0.643,2.559,1.182,3.856,1.7
					c-4.538,14.646-7.96,29.406-10.253,44.172c-1.401,0.005-2.807,0.028-4.236,0.154c-27.886,2.493-50.015,28.122-49.426,57.248
					c0.589,29.126,23.674,50.717,51.56,48.226c1.457-0.13,2.889-0.359,4.312-0.613c2.915,14.433,6.909,28.532,11.947,42.178
					c-1.282,0.75-2.559,1.526-3.805,2.401c-23.856,16.719-31.477,49.712-17.024,73.69c14.454,23.978,45.51,29.862,69.365,13.143
					c1.223-0.858,2.373-1.782,3.509-2.722c9.427,10.416,19.763,20.068,30.947,28.877c-0.785,1.289-1.555,2.595-2.251,3.967
					c-13.432,26.469-4.505,57.983,19.94,70.389c24.445,12.405,55.151,1.005,68.584-25.464c0.696-1.371,1.295-2.763,1.872-4.158
					c13.713,3.826,27.607,6.47,41.578,7.929c-0.087,1.471-0.155,2.946-0.125,4.439c0.591,29.125,23.674,50.717,51.56,48.226
					c27.886-2.491,50.015-28.122,49.425-57.247c-0.03-1.522-0.158-3.01-0.309-4.489c13.988-3.99,27.725-9.09,41.096-15.259
					c0.636,1.298,1.297,2.59,2.052,3.842c14.453,23.979,45.509,29.864,69.365,13.143c23.856-16.721,31.478-49.712,17.025-73.691
					c-0.741-1.227-1.552-2.377-2.376-3.509c10.564-10.569,20.457-22.044,29.598-34.355
					C945.032,1772.625,946.231,1773.35,947.497,1773.993z M642.795,1777.915c-88.755-45.043-121.168-159.463-72.396-255.566
					c48.772-96.103,160.258-137.496,249.013-92.454c88.755,45.043,121.168,159.463,72.397,255.566
					C843.036,1781.565,731.55,1822.957,642.795,1777.915z"/>
			</g>
		</g>
		<g>
			<g>
				<g>
					<g>
						
							<linearGradient id="SVGID_00000057831627705178776560000014020886236756283582_" gradientUnits="userSpaceOnUse" x1="2783.252" y1="2660.1992" x2="3421.7043" y2="2660.1992" gradientTransform="matrix(0.9993 0.0372 -0.0372 0.9993 -147.3405 -31.9133)">
							<stop  offset="0" style="stop-color:#444B8C"/>
							<stop  offset="0.9964" style="stop-color:#26264F"/>
						</linearGradient>
						<path style="fill:url(#SVGID_00000057831627705178776560000014020886236756283582_);" d="M3071.997,2242.572l84.515,948.354
							c1.279,14.359-8.693,27.127-22.184,28.371l-457.256,47.096c-27.357,1.456-41.833-13.382-43.062-28.297l-81.114-984.63
							c-1.198-14.536,12.389-28.237,39.417-29.232l453.061-6.659C3058.779,2217.317,3070.748,2228.564,3071.997,2242.572z"/>
						
							<linearGradient id="SVGID_00000146497302222070770780000015535201394682241187_" gradientUnits="userSpaceOnUse" x1="3059.979" y1="2813.2251" x2="3148.1802" y2="2568.3916" gradientTransform="matrix(0.9993 0.0372 -0.0372 0.9993 -147.3405 -31.9133)">
							<stop  offset="0" style="stop-color:#444B8C"/>
							<stop  offset="0.9964" style="stop-color:#26264F"/>
						</linearGradient>
						<path style="fill:url(#SVGID_00000146497302222070770780000015535201394682241187_);" d="M3092.767,2240.218l85.279,954.03
							c1.292,14.446-8.733,27.292-22.302,28.544l-474.46,43.787c-14.547,1.342-27.486-9.84-28.726-24.845l-81.835-990.575
							c-1.208-14.623,9.64-26.809,24.08-27.085l471.182-9.001C3079.467,2214.814,3091.508,2226.128,3092.767,2240.218z"/>
						<path style="fill:#FFFFFF;" d="M3082.223,2292.862l78.87,884.274c1.202,13.482-8.17,25.457-20.85,26.608l-446.078,40.506
							c-13.537,1.229-25.579-9.199-26.737-23.172l-75.875-916.079c-1.13-13.642,8.965-25.054,22.41-25.363l443.225-10.197
							C3069.792,2269.149,3081.048,2279.687,3082.223,2292.862z"/>
						<g>
							
								<linearGradient id="SVGID_00000054953818261037626840000015779842101408707472_" gradientUnits="userSpaceOnUse" x1="2713.2502" y1="2547.676" x2="3045.2996" y2="2065.917">
								<stop  offset="0" style="stop-color:#FF9085"/>
								<stop  offset="1" style="stop-color:#FB6FBB"/>
							</linearGradient>
							<path style="fill:url(#SVGID_00000054953818261037626840000015779842101408707472_);" d="M3082.223,2292.862
								c-1.176-13.174-12.431-23.713-25.035-23.423l-443.224,10.197c-13.445,0.309-23.541,11.721-22.41,25.364l10.859,131.111
								l491.528-11.876L3082.223,2292.862z"/>
						</g>
					</g>
					
						<linearGradient id="SVGID_00000036236729257371662760000003596620147225646481_" gradientUnits="userSpaceOnUse" x1="3080.4209" y1="2131.3113" x2="2538.4229" y2="3599.2227" gradientTransform="matrix(0.9993 0.0372 -0.0372 0.9993 -147.3405 -31.9133)">
						<stop  offset="0" style="stop-color:#FFC444"/>
						<stop  offset="0.9964" style="stop-color:#F36F56"/>
					</linearGradient>
					<path style="fill:url(#SVGID_00000036236729257371662760000003596620147225646481_);" d="M2845.57,2248.284
						c0.429,4.973-3.14,9.091-7.975,9.197c-4.838,0.105-9.109-3.847-9.537-8.826c-0.428-4.979,3.149-9.095,7.986-9.195
						C2840.878,2239.361,2845.142,2243.311,2845.57,2248.284z"/>
				</g>
			</g>
			<g>
				<g>
					
						<linearGradient id="SVGID_00000008861591439421219770000015644642339501272508_" gradientUnits="userSpaceOnUse" x1="2078.7185" y1="2578.1423" x2="2332.082" y2="3127.324" gradientTransform="matrix(1 0 0.0972 0.995 399.2297 -20.4976)">
						<stop  offset="0.0036" style="stop-color:#E38DDD"/>
						<stop  offset="1" style="stop-color:#9571F6"/>
					</linearGradient>
					<polygon style="fill:url(#SVGID_00000008861591439421219770000015644642339501272508_);" points="2906.877,2787.342 
						2685.099,2798.293 2654.48,2484.849 2877.492,2479.159 					"/>
					
						<linearGradient id="SVGID_00000053542481781810426190000007141432461013959347_" gradientUnits="userSpaceOnUse" x1="2207.8162" y1="2391.0569" x2="2499.4565" y2="3023.2063" gradientTransform="matrix(1 0 0.0972 0.995 399.2297 -20.4976)">
						<stop  offset="0.0036" style="stop-color:#E38DDD"/>
						<stop  offset="1" style="stop-color:#9571F6"/>
					</linearGradient>
					<polygon style="fill:url(#SVGID_00000053542481781810426190000007141432461013959347_);" points="3071.357,2779.22 
						2941.073,2785.653 2911.876,2478.282 3042.871,2474.94 					"/>
					
						<linearGradient id="SVGID_00000009577649635965627780000001868516198733168312_" gradientUnits="userSpaceOnUse" x1="2093.3396" y1="2729.2737" x2="2295.197" y2="3166.813" gradientTransform="matrix(1 0 0.0972 0.995 399.2297 -20.4976)">
						<stop  offset="0.0036" style="stop-color:#E38DDD"/>
						<stop  offset="1" style="stop-color:#9571F6"/>
					</linearGradient>
					<polygon style="fill:url(#SVGID_00000009577649635965627780000001868516198733168312_);" points="3094.315,3024.455 
						2709.771,3050.871 2689.082,2839.073 3075.064,2818.811 					"/>
					
						<linearGradient id="SVGID_00000138546672575287499470000006547757122104678551_" gradientUnits="userSpaceOnUse" x1="2130.1558" y1="2997.7573" x2="2264.7566" y2="3289.5139" gradientTransform="matrix(1 0 0.0972 0.995 399.2297 -20.4976)">
						<stop  offset="0.0036" style="stop-color:#E38DDD"/>
						<stop  offset="1" style="stop-color:#9571F6"/>
					</linearGradient>
					<polygon style="fill:url(#SVGID_00000138546672575287499470000006547757122104678551_);" points="3106.3,3152.468 
						2722.649,3182.701 2713.381,3087.824 3097.675,3060.337 					"/>
				</g>
			</g>
			<g style="opacity:0.48;">
				<path style="fill:#FFFFFF;" d="M2978.766,2895.142c-45.996-160.705-180.104-144.635-220.21-289.85
					c-32.939-119.264,43.011-182.135-3.06-281.985c-21.668-46.96-59.628-78.714-98.993-100.414l-61.7,1.179
					c-14.441,0.276-25.288,12.462-24.08,27.085l81.834,990.575c1.24,15.006,14.18,26.188,28.727,24.846l389.014-35.901
					c-24.874-31.555-48.476-70.174-64.856-116.56C2970.769,3015.93,3004.201,2984.011,2978.766,2895.142z"/>
			</g>
		</g>
	</g>
</g>
</svg>
