<svg xmlns="http://www.w3.org/2000/svg" viewBox="0 0 64 64" id="car-repair"><path d="M47.21973,16.86426a6.87938,6.87938,0,0,0-4.96534-6.58447l-.63769-.18262v6.918H39.11426v-6.918l-.6377.18262a6.87967,6.87967,0,0,0-4.96582,6.58447,6.80528,6.80528,0,0,0,1.33026,4.0415H23.8042a4.54669,4.54669,0,0,0-3.93848,2.28565l-3.063,5.36035a.84654.84654,0,0,1-.73388.42578H13.89453A7.40317,7.40317,0,0,0,6.5,36.37207V39.273a3.82579,3.82579,0,0,0,3.82129,3.82129h1.44214a5.09582,5.09582,0,0,0,10.148,0H34.841a6.80528,6.80528,0,0,0-1.33026,4.0415,6.87967,6.87967,0,0,0,4.96582,6.58447l.6377.18262v-6.918H41.6167v6.918l.63769-.18262a6.846,6.846,0,0,0,2.01319-12.21337V22.49316A6.82073,6.82073,0,0,0,47.21973,16.86426ZM16.8374,46.71875a4.12451,4.12451,0,1,1,4.12451-4.12451A4.129,4.129,0,0,1,16.8374,46.71875Zm19.62305-17.7832H32.437V25.18506h4.00537ZM43.499,42.19678a5.84583,5.84583,0,0,1-.88232,10.33886V45.98486H38.11426v6.55078a5.84566,5.84566,0,0,1-.88281-10.33886l.23144-.14746V29.93555h.00244l-.00244-.50446V21.95068l-.23144-.14746a5.84566,5.84566,0,0,1,.88281-10.33886v6.55078H42.6167V11.46436A5.84583,5.84583,0,0,1,43.499,21.80322l-.23144.14746V42.04932Zm-3.63379-5.14307h1v.9502h-1Zm0,1.86133h1v.95019h-1ZM16.8374,40.18115a2.41285,2.41285,0,1,0,2.41309,2.41309A2.41573,2.41573,0,0,0,16.8374,40.18115ZM28.69727,25.18506v3.75049H22.4917l2.00244-3.75049ZM56,36.35352H54.94141V17.001L56.32715,15.269V9.84717H49.87939v5.51074l1.47217,1.81836V36.35352h-1.145a1.50164,1.50164,0,0,0-1.5,1.5V52.65283a1.50164,1.50164,0,0,0,1.5,1.5H56a1.50164,1.50164,0,0,0,1.5-1.5V37.85352A1.50164,1.50164,0,0,0,56,36.35352Zm-5.12061-21.3501V10.84717h4.44776v4.07129l-1.38574,1.73193V36.35352H52.35156V16.82178Zm-.67285,38.14941a.50034.50034,0,0,1-.5-.5V37.85352a.50034.50034,0,0,1,.5-.5h1.145V53.15283Zm2.145,0V37.35352h1.58985V53.15283Zm4.14844-.5a.50034.50034,0,0,1-.5.5H54.94141V37.35352H56a.50034.50034,0,0,1,.5.5Z"></path></svg>