<svg xmlns="http://www.w3.org/2000/svg" enable-background="new 0 0 500 500" viewBox="0 0 500 500" id="diagnosticcar"><path fill="#959595" d="M316.8,401.7c0,0.4,0.4,0.8,0.8,0.8h22.5c0.4,0,0.8-0.4,0.8-0.8v-30.2h-24V401.7z" class="color8495a6 svgShape"></path><path fill="#818181" d="M330.4 291.4c4.5 0 7.6-2.6 7.6-5s-3.1-5-7.6-5c-4.5 0-7.6 2.6-7.6 5S325.9 291.4 330.4 291.4zM107.8 281.4c-4.5 0-7.6 2.6-7.6 5s3.1 5 7.6 5 7.6-2.6 7.6-5S112.3 281.4 107.8 281.4z" class="color22bee1 svgShape"></path><path fill="#666666" d="M362.2 325c-.6.3-1.2.6-1.8.8-.3.1-.7.3-1 .4-.6.2-1.1.4-1.7.6-.4.1-.7.2-1.1.3-.6.2-1.1.3-1.7.5-.4.1-.8.2-1.1.3-.6.1-1.2.2-1.8.3-.4.1-.7.1-1.1.2-.6.1-1.3.2-2 .2-.3 0-.6.1-.9.1-1 .1-2 .1-2.9.1h-252c-1 0-2 0-2.9-.1-.3 0-.6-.1-.9-.1-.7-.1-1.3-.1-2-.2-.4-.1-.7-.1-1.1-.2-.6-.1-1.2-.2-1.8-.3-.4-.1-.8-.2-1.1-.3-.6-.1-1.1-.3-1.7-.5-.4-.1-.7-.2-1.1-.3-.6-.2-1.1-.4-1.7-.6-.3-.1-.7-.2-1-.4-.6-.3-1.2-.5-1.9-.8-.3-.1-.5-.2-.8-.4-.9-.4-1.7-.9-2.5-1.4-.1 0-.1-.1-.2-.1-.8-.5-1.5-.9-2.3-1.4 0 0-.1-.1-.2-.1-.3 1.5-.5 2.9-.7 4.4-1.1 6.9.9 13.9 5.4 19.2 4.6 5.4 11.3 8.5 18.4 8.5h252c7.1 0 13.8-3.1 18.4-8.5 4.5-5.3 6.5-12.3 5.4-19.2-.2-1.5-.5-2.9-.7-4.4 0 0-.1.1-.2.1-.7.5-1.5 1-2.3 1.4-.1 0-.1.1-.2.1-.8.5-1.7.9-2.5 1.4C362.8 324.8 362.5 324.9 362.2 325zM2.2 243.5c-.2 0-.4.2-.4.4v10.4c0 .2.2.4.4.4h39.2c.2 0 .4-.2.4-.4v-10.4c0-.2-.2-.4-.4-.4H2.2z" class="color21ac85 svgShape"></path><path fill="#959595" d="M93.8,401.7c0,0.4,0.4,0.8,0.8,0.8h22.5c0.4,0,0.8-0.4,0.8-0.8v-30.2H93.8V401.7z" class="color8495a6 svgShape"></path><path fill="#666666" d="M439.6,254.9c0.2,0,0.4-0.2,0.4-0.4v-11c0-0.2-0.2-0.4-0.4-0.4h-40.3c-0.2,0-0.4,0.2-0.4,0.4v11
		c0,0.2,0.2,0.4,0.4,0.4H439.6z" class="color21ac85 svgShape"></path><path fill="#a5a5a5" d="M483.5,125.7H401c-8.1,0-14.8,6.6-14.8,14.8v10.4h34.2l11.4-16.8c2-3,5.5-4.6,9-4.2c3.6,0.4,6.6,2.7,7.9,6.1
		l10.6,27.5l5.9-9c1.8-2.7,4.8-4.3,8-4.3h25v-9.7C498.2,132.4,491.6,125.7,483.5,125.7z" class="color51dcf9 svgShape"></path><path fill="#818181" d="M160 182.8c-5.5 0-10.7 3.5-13.4 9.1-3.6 7.3-8.2 19.8-13.1 35.1-.5 1.6.1 2.8.5 3.3.4.6 1.4 1.5 3 1.5h164.1c1.6 0 2.6-1 3-1.5.4-.6 1-1.8.5-3.3-4.9-15.3-9.5-27.8-13.1-35.1-2.7-5.6-7.8-9.1-13.4-9.1H160zM465.7 184.3c-1.8 2.7-4.8 4.3-8 4.3-.3 0-.7 0-1-.1-3.6-.4-6.6-2.7-8-6.1L438 154.8l-5.9 8.6c-1.8 2.6-4.8 4.2-8 4.2h-38v10.4c0 8.1 6.6 14.8 14.8 14.8h82.5c8.1 0 14.8-6.6 14.8-14.8V167h-21.1L465.7 184.3z" class="color22bee1 svgShape"></path><path fill="#808080" d="M138.4,157.8c-8.9,0-17,4.8-21.2,12.6c-11.8,21.9-31.7,79.7-43.3,132.1c0,0,0,0.1,0.1,0.1
		c0.2,0.2,0.3,0.4,0.5,0.6c0.5,0.6,1,1.2,1.5,1.7c0.3,0.3,0.5,0.5,0.8,0.7c0.5,0.4,0.9,0.9,1.4,1.2c0.3,0.2,0.6,0.5,0.9,0.7
		c0.5,0.4,1,0.7,1.5,1c0.3,0.2,0.7,0.4,1,0.6c0.5,0.3,1.1,0.5,1.6,0.8c0.4,0.2,0.7,0.3,1.1,0.5c0.6,0.2,1.2,0.4,1.7,0.6
		c0.4,0.1,0.7,0.2,1.1,0.3c0.6,0.2,1.3,0.3,2,0.4c0.3,0.1,0.6,0.1,1,0.2c1,0.1,2,0.2,3,0.2h252c1,0,2-0.1,3-0.2c0.3,0,0.6-0.1,1-0.2
		c0.7-0.1,1.3-0.2,2-0.4c0.4-0.1,0.7-0.2,1.1-0.3c0.6-0.2,1.2-0.4,1.7-0.6c0.4-0.1,0.7-0.3,1.1-0.5c0.5-0.2,1.1-0.5,1.6-0.8
		c0.4-0.2,0.7-0.4,1-0.6c0.5-0.3,1-0.6,1.5-1c0.3-0.2,0.6-0.5,0.9-0.7c0.5-0.4,1-0.8,1.4-1.3c0.3-0.2,0.5-0.5,0.8-0.7
		c0.5-0.5,1-1.1,1.5-1.7c0.1-0.2,0.3-0.3,0.5-0.5c0,0,0-0.1,0.1-0.1c-11.6-52.4-31.6-110.2-43.3-132.1c-4.2-7.8-12.3-12.6-21.2-12.6
		H138.4z M107.8,308.1c-13.4,0-24.4-9.7-24.4-21.7c0-12,10.9-21.7,24.4-21.7c13.4,0,24.4,9.7,24.4,21.7
		C132.2,298.4,121.2,308.1,107.8,308.1z M301.9,295.2c0,3.8-3.1,6.8-6.8,6.8H143.2c-3.8,0-6.8-3.1-6.8-6.8V287
		c0-3.8,3.1-6.8,6.8-6.8H295c3.8,0,6.8,3.1,6.8,6.8V295.2z M354.8,286.4c0,12-10.9,21.7-24.4,21.7c-13.4,0-24.4-9.7-24.4-21.7
		c0-12,10.9-21.7,24.4-21.7C343.8,264.7,354.8,274.4,354.8,286.4z M306.6,184.6c3.9,8,8.8,21.3,14,37.3c2,6.3,0.9,13-3,18.3
		c-3.9,5.3-9.9,8.4-16.5,8.4H137.1c-6.6,0-12.6-3.1-16.5-8.4c-3.9-5.3-5-12-3-18.3c5.1-16.1,10.1-29.3,14-37.4
		C137.1,173.2,148,166,160,166h118.2C290.2,166,301.1,173.2,306.6,184.6z" class="color2ed1a2 svgShape"></path><path fill="#000000" d="M160 166c-12 0-22.9 7.1-28.5 18.5-3.9 8-8.9 21.3-14 37.4-2 6.3-.9 13 3 18.3 3.9 5.3 9.9 8.4 16.5 8.4h164.1c6.6 0 12.6-3.1 16.5-8.4 3.9-5.3 5-12 3-18.3-5.1-16.1-10.1-29.3-14-37.3-5.5-11.4-16.4-18.6-28.5-18.6H160zM291.6 191.9c3.6 7.3 8.2 19.8 13.1 35.1.5 1.6-.1 2.8-.5 3.3-.4.6-1.4 1.5-3 1.5H137.1c-1.6 0-2.6-1-3-1.5-.4-.6-1-1.8-.5-3.3 4.9-15.3 9.5-27.8 13.1-35.1 2.7-5.6 7.8-9.1 13.4-9.1h118.2C283.7 182.8 288.9 186.3 291.6 191.9zM295 280.2H143.2c-3.8 0-6.8 3.1-6.8 6.8v8.1c0 3.8 3.1 6.8 6.8 6.8H295c3.8 0 6.8-3.1 6.8-6.8V287C301.9 283.3 298.8 280.2 295 280.2zM107.8 264.7c-13.4 0-24.4 9.7-24.4 21.7 0 12 10.9 21.7 24.4 21.7 13.4 0 24.4-9.7 24.4-21.7C132.2 274.4 121.2 264.7 107.8 264.7zM107.8 291.4c-4.5 0-7.6-2.6-7.6-5s3.1-5 7.6-5 7.6 2.6 7.6 5S112.3 291.4 107.8 291.4zM306 286.4c0 12 10.9 21.7 24.4 21.7 13.4 0 24.4-9.7 24.4-21.7 0-12-10.9-21.7-24.4-21.7C316.9 264.7 306 274.4 306 286.4zM330.4 281.4c4.5 0 7.6 2.6 7.6 5s-3.1 5-7.6 5c-4.5 0-7.6-2.6-7.6-5S325.9 281.4 330.4 281.4z" class="color332195 svgShape"></path><path fill="#000000" d="M483.5,109h-30.7V98.4c0-9.7-7.9-17.6-17.6-17.6H307.5c-9.7,0-17.6,7.9-17.6,17.6V141H138.4
		c-15.1,0-28.8,8.2-36,21.5c-9.3,17.4-23.5,56-35,97.1l-8.9-5.4v-10.3c0-9.5-7.7-17.2-17.2-17.2H2.2c-9.5,0-17.2,7.7-17.2,17.2v10.4
		c0,9.5,7.7,17.2,17.2,17.2h39.2c3.3,0,6.4-1,9-2.6l12.6,7.5c-0.4,1.7-0.9,3.5-1.3,5.2l-0.2-0.4l-4.5,20.7c0,0.2-0.1,0.3-0.1,0.5
		l-0.7,3.1l0,0c-1.3,6-2.4,12-3.3,17.9c-1.9,11.7,1.5,23.7,9.2,32.7c4.2,4.9,9.4,8.6,15.1,11.1v34.4c0,9.7,7.9,17.6,17.6,17.6h22.5
		c9.7,0,17.6-7.9,17.6-17.6v-31.1H300v31.1c0,9.7,7.9,17.6,17.6,17.6h22.5c9.7,0,17.6-7.9,17.6-17.6v-33.1
		c7.1-2.3,13.6-6.5,18.6-12.4c7.7-9.1,11.1-21,9.2-32.7c-0.9-5.9-2.1-11.9-3.3-17.9l0,0l-0.7-3.2c0-0.2-0.1-0.3-0.1-0.5l-4.5-20.7
		l-0.2,0.4c-0.3-1.2-0.6-2.4-0.9-3.6l14.7-8.8c2.6,1.6,5.7,2.5,8.9,2.5h40.3c9.5,0,17.2-7.7,17.2-17.2v-11c0-9.5-7.7-17.2-17.2-17.2
		h-40.3c-9.5,0-17.2,7.7-17.2,17.2v10.9l-10.9,6.6c-11.6-41.7-26-81-35.5-98.6c-6-11.2-16.8-18.8-29.1-20.9V98.4
		c0-0.5,0.4-0.8,0.8-0.8h127.7c0.5,0,0.8,0.4,0.8,0.8V109h-35c-17.4,0-31.5,14.1-31.5,31.5v37.6c0,17.4,14.1,31.5,31.5,31.5h82.5
		c17.4,0,31.5-14.1,31.5-31.5v-37.6C515,123.1,500.9,109,483.5,109z M41.7,254.3c0,0.2-0.2,0.4-0.4,0.4H2.2c-0.2,0-0.4-0.2-0.4-0.4
		v-10.4c0-0.2,0.2-0.4,0.4-0.4h39.2c0.2,0,0.4,0.2,0.4,0.4V254.3z M398.9,243.6c0-0.2,0.2-0.4,0.4-0.4h40.3c0.2,0,0.4,0.2,0.4,0.4
		v11c0,0.2-0.2,0.4-0.4,0.4h-40.3c-0.2,0-0.4-0.2-0.4-0.4V243.6z M117.9,401.7c0,0.4-0.4,0.8-0.8,0.8H94.6c-0.4,0-0.8-0.4-0.8-0.8
		v-30.2h24.1V401.7z M340.8,401.7c0,0.4-0.4,0.8-0.8,0.8h-22.5c-0.4,0-0.8-0.4-0.8-0.8v-30.2h24V401.7z M365.7,323.2
		c0.8-0.5,1.5-0.9,2.3-1.4c0,0,0.1-0.1,0.2-0.1c0.3,1.5,0.5,2.9,0.7,4.4c1.1,6.9-0.9,13.9-5.4,19.2c-4.6,5.4-11.3,8.5-18.4,8.5h-252
		c-7.1,0-13.8-3.1-18.4-8.5c-4.6-5.3-6.5-12.3-5.4-19.2c0.2-1.5,0.5-2.9,0.7-4.4c0.1,0,0.1,0.1,0.2,0.1c0.7,0.5,1.5,1,2.3,1.4
		c0.1,0,0.1,0.1,0.2,0.1c0.8,0.5,1.7,0.9,2.5,1.4c0.3,0.1,0.5,0.2,0.8,0.4c0.6,0.3,1.2,0.6,1.9,0.8c0.3,0.1,0.7,0.3,1,0.4
		c0.6,0.2,1.1,0.4,1.7,0.6c0.4,0.1,0.7,0.2,1.1,0.3c0.6,0.2,1.1,0.3,1.7,0.5c0.4,0.1,0.8,0.2,1.1,0.3c0.6,0.1,1.2,0.2,1.8,0.3
		c0.4,0.1,0.7,0.1,1.1,0.2c0.7,0.1,1.3,0.2,2,0.2c0.3,0,0.6,0.1,0.9,0.1c1,0.1,2,0.1,2.9,0.1h252c1,0,2,0,2.9-0.1
		c0.3,0,0.6-0.1,0.9-0.1c0.7-0.1,1.3-0.1,2-0.2c0.4-0.1,0.7-0.1,1.1-0.2c0.6-0.1,1.2-0.2,1.8-0.3c0.4-0.1,0.8-0.2,1.1-0.3
		c0.6-0.1,1.1-0.3,1.7-0.5c0.4-0.1,0.7-0.2,1.1-0.3c0.6-0.2,1.1-0.4,1.7-0.6c0.3-0.1,0.7-0.3,1-0.4c0.6-0.3,1.2-0.5,1.8-0.8
		c0.3-0.1,0.5-0.2,0.8-0.4c0.9-0.4,1.7-0.9,2.5-1.4C365.6,323.3,365.7,323.3,365.7,323.2z M321,170.4
		c11.8,21.9,31.7,79.7,43.3,132.1c0,0,0,0.1-0.1,0.1c-0.1,0.2-0.3,0.3-0.5,0.5c-0.5,0.6-1,1.2-1.5,1.7c-0.3,0.3-0.5,0.5-0.8,0.7
		c-0.5,0.4-0.9,0.9-1.4,1.3c-0.3,0.2-0.6,0.5-0.9,0.7c-0.5,0.4-1,0.7-1.5,1c-0.3,0.2-0.7,0.4-1,0.6c-0.5,0.3-1.1,0.5-1.6,0.8
		c-0.4,0.2-0.7,0.3-1.1,0.5c-0.6,0.2-1.2,0.4-1.7,0.6c-0.4,0.1-0.7,0.2-1.1,0.3c-0.6,0.2-1.3,0.3-2,0.4c-0.3,0.1-0.6,0.1-1,0.2
		c-1,0.1-2,0.2-3,0.2h-252c-1,0-2-0.1-3-0.2c-0.3,0-0.6-0.1-1-0.2c-0.7-0.1-1.3-0.2-2-0.4c-0.4-0.1-0.7-0.2-1.1-0.3
		c-0.6-0.2-1.2-0.4-1.7-0.6c-0.4-0.1-0.7-0.3-1.1-0.5c-0.5-0.2-1.1-0.5-1.6-0.8c-0.4-0.2-0.7-0.4-1-0.6c-0.5-0.3-1-0.6-1.5-1
		c-0.3-0.2-0.6-0.5-0.9-0.7c-0.5-0.4-1-0.8-1.4-1.2c-0.3-0.2-0.5-0.5-0.8-0.7c-0.5-0.5-1-1.1-1.5-1.7c-0.2-0.2-0.3-0.4-0.5-0.6
		c0,0,0-0.1-0.1-0.1c11.6-52.4,31.6-110.2,43.3-132.1c4.2-7.8,12.3-12.6,21.2-12.6h161.4C308.7,157.8,316.8,162.6,321,170.4z
		 M498.2,178.1c0,8.1-6.6,14.8-14.8,14.8H401c-8.1,0-14.8-6.6-14.8-14.8v-10.4h38c3.2,0,6.2-1.6,8-4.2l5.9-8.6l10.7,27.7
		c1.3,3.4,4.4,5.7,8,6.1c0.3,0,0.7,0.1,1,0.1c3.2,0,6.2-1.6,8-4.3l11.4-17.4h21.1V178.1z M498.2,150.2h-25c-3.2,0-6.2,1.6-8,4.3
		l-5.9,9l-10.6-27.5c-1.3-3.3-4.3-5.7-7.9-6.1c-3.6-0.4-7,1.2-9,4.2l-11.4,16.8h-34.2v-10.4c0-8.1,6.6-14.8,14.8-14.8h82.5
		c8.1,0,14.8,6.6,14.8,14.8V150.2z" class="color332195 svgShape"></path></svg>