<?xml version="1.0" encoding="utf-8"?>
<!-- Generator: Adobe Illustrator 27.5.0, SVG Export Plug-In . SVG Version: 6.00 Build 0)  -->
<svg version="1.1" id="_x31_" xmlns="http://www.w3.org/2000/svg" xmlns:xlink="http://www.w3.org/1999/xlink" x="0px" y="0px"
	 viewBox="0 0 500 450" style="enable-background:new 0 0 500 450;" xml:space="preserve">
<g>
	<path style="fill:#819699;" d="M66.876,326.082v-3.727l-3.221-0.659c-0.194-0.68-0.46-1.329-0.798-1.934l1.809-2.74l-2.635-2.635
		l-2.74,1.809c-0.606-0.337-1.254-0.603-1.934-0.797l-0.659-3.221h-3.727l-0.659,3.221c-0.68,0.194-1.328,0.46-1.934,0.797
		l-2.74-1.809l-2.635,2.635l1.809,2.74c-0.337,0.606-0.604,1.254-0.798,1.934l-3.221,0.659v3.727l3.221,0.659
		c0.194,0.68,0.46,1.328,0.798,1.934l-1.809,2.74l2.635,2.635l2.74-1.809c0.605,0.337,1.254,0.603,1.934,0.798l0.659,3.221h3.727
		l0.659-3.221c0.68-0.194,1.328-0.461,1.934-0.798l2.74,1.809l2.635-2.635l-1.809-2.74c0.337-0.605,0.604-1.254,0.798-1.934
		L66.876,326.082z M54.836,328.264c-2.234,0-4.045-1.811-4.045-4.045s1.811-4.044,4.045-4.044s4.045,1.811,4.045,4.044
		S57.07,328.264,54.836,328.264z"/>
	<rect x="46.845" y="340.471" style="fill:#EDDBA2;" width="41.419" height="37.786"/>
	<polygon style="fill:#E0C780;" points="59.233,341.274 73.924,368.254 88.401,343.596 74.286,362.92 	"/>
	<rect x="40.353" y="340.471" style="fill:#E0C780;" width="18.567" height="37.786"/>
	<polygon style="fill:#DDD1B3;" points="266.4,335.879 222.743,334.742 214.974,373.28 272.792,373.28 	"/>
	<polygon style="fill:#CCBE9E;" points="266.11,334.181 222.559,335.655 217.949,358.527 269.737,355.407 	"/>
	<rect x="195.818" y="372.3" style="fill:#EDE6D1;" width="96.13" height="7.319"/>
	<path style="fill:#EDE6D1;" d="M384.771,129.261H102.995c-6.842,0-12.389,5.285-12.389,11.803v191.601
		c0,6.519,5.547,11.803,12.389,11.803h281.776c6.842,0,12.389-5.284,12.389-11.803V141.065
		C397.16,134.546,391.613,129.261,384.771,129.261z"/>
	<polygon style="fill:#F4EEDF;" points="146.979,344.469 271.066,344.469 313.895,129.261 189.808,129.261 	"/>
	<path style="fill:#E0D4B6;" d="M384.771,341.444H102.995c-6.842,0-12.389-5.547-12.389-12.389v3.025
		c0,6.842,5.547,12.389,13.469,13.085h281.776c5.762-0.696,11.309-6.243,11.309-13.085v-3.025
		C397.16,335.897,391.613,341.444,384.771,341.444z"/>
	<path style="fill:#514C4D;" d="M384.771,129.261H102.995c-6.842,0-12.389,5.285-12.389,11.803v168.817H397.16V141.065
		C397.16,134.546,391.613,129.261,384.771,129.261z"/>
	<rect x="101.266" y="138.045" style="fill:#443C3C;" width="285.234" height="171.837"/>
	<rect x="104.839" y="140.872" style="fill:#775F93;" width="277.717" height="169.009"/>
	<path style="fill:#CCBE9E;" d="M260.918,326.143h-34.07c-1.372,0-2.484,0.714-2.484,1.596c0,0.881,1.112,1.596,2.484,1.596h34.07
		c1.372,0,2.484-0.715,2.484-1.596C263.402,326.857,262.29,326.143,260.918,326.143z"/>
	<path style="fill:#F4EEE1;" d="M384.771,129.261H102.995c-6.842,0-12.389,5.547-12.389,12.389v2.593
		c0-6.842,5.547-12.389,12.389-12.389h281.776c6.842,0,12.389,5.547,12.389,12.389v-2.593
		C397.16,134.808,391.613,129.261,384.771,129.261z"/>
	<path style="opacity:0.51;fill:#514C4D;" d="M367.911,226.953c0.11-0.162,0.217-0.32,0.33-0.486
		c0.447-0.66,0.909-1.348,1.383-2.056c0.237-0.354,0.477-0.713,0.719-1.077c0.484-0.727,0.977-1.472,1.474-2.228
		c2.485-3.782,5.068-7.847,7.14-11.409c0.415-0.713,0.809-1.406,1.177-2.072c0.553-1,1.049-1.94,1.471-2.799
		c0.423-0.859,0.772-1.639,1.03-2.315c0.259-0.677,0.428-1.252,0.49-1.704c0.016-0.118-0.013-0.257-0.064-0.408
		c-0.008-0.023-0.013-0.044-0.022-0.068c-0.06-0.152-0.15-0.318-0.266-0.496c-0.016-0.025-0.034-0.049-0.051-0.074
		c-0.268-0.394-0.657-0.843-1.145-1.333v0c-3.745-3.762-13.078-9.811-14.354-9.499c-1.245,0.305-12.968,16.949-18.146,24.758
		c-0.003,0.005-0.005,0.008-0.009,0.013c-0.201,0.303-0.392,0.593-0.572,0.868c-0.026,0.039-0.052,0.079-0.077,0.117
		c-0.188,0.287-0.367,0.563-0.529,0.814c-1.031,1.603-1.232,3.306-0.916,4.988c0.09,0.48,0.222,0.959,0.389,1.434
		c0.167,0.474,0.369,0.944,0.599,1.407c0.229,0.463,0.486,0.918,0.763,1.363c0.277,0.445,0.574,0.88,0.884,1.302
		c0.465,0.633,0.959,1.236,1.456,1.802c0.498,0.565,0.999,1.091,1.481,1.57c0.16,0.159,0.319,0.313,0.474,0.462
		c0.31,0.297,0.607,0.571,0.884,0.82c0.139,0.125,0.272,0.242,0.4,0.354c0.893,0.779,1.496,1.228,1.496,1.228
		c0.248,0.161,0.502,0.311,0.762,0.446c0.161,0.084,0.328,0.154,0.493,0.228l-30.4,24.191c-0.86-0.424-1.958-1.124-3.174-1.986
		c1.297-2.198,1.894-3.634,1.894-3.634s-20.427-23.869-56.163-49.467c-0.963-0.721-1.944-1.414-2.946-2.09
		c-0.001-0.001-0.002-0.001-0.003-0.002c-0.819-0.553-1.649-1.091-2.487-1.614c-0.054-0.033-0.108-0.065-0.161-0.098
		c-0.752-0.468-1.51-0.923-2.272-1.367c-0.125-0.073-0.25-0.146-0.376-0.218c-0.451-0.26-0.901-0.516-1.354-0.767
		c7.57-4.391,8.856-12.322,8.856-12.322s-16.139-17.803-18.187-25.673c-1.196-4.597-2.539-11.627-5.388-17.24
		c0.027,0.019,0.058,0.035,0.085,0.055c0,0,3.143-5.396,4.826-11.407h-61.12c-0.519,0.242-1.028,0.482-1.519,0.716
		c-2.293,1.09-4.004,2.264-5.106,3.651c-0.551,0.694-0.949,1.441-1.193,2.257c-0.487,1.633-0.351,3.543,0.43,5.861
		c1.146,3.397,3.696,7.68,7.696,13.226c-0.017,0.062-0.028,0.105-0.028,0.105s5.979,13.188,19.793,22.41l1.212,9.516
		c-0.364-0.221-0.573-0.35-0.573-0.35l-4.087,6.169l0.332,0.256c-0.673,0.347-1.343,0.698-2.01,1.055
		c-0.092,0.049-0.184,0.099-0.276,0.148c-0.786,0.423-1.566,0.852-2.338,1.286c-0.026,0.015-0.052,0.029-0.078,0.044
		c-5.118,2.883-9.845,5.951-13.481,8.659c-14.387,7.569-25.303,27.585-34.836,47.343c0.611,1.181,1.272,2.343,1.959,3.49
		c-0.8,0.95-1.638,1.809-2.471,2.453l-3.103-2.174l-53.054-36.068c5.366-6.32,11.263-12.29,17.101-16.339
		c0.44,0.216,0.889,0.413,1.343,0.598c0.002,0.001,0.003,0.001,0.005,0.002c0.418,0.171,0.841,0.327,1.268,0.47
		c0.044,0.015,0.089,0.027,0.132,0.041c0.388,0.127,0.779,0.244,1.171,0.346c0.056,0.015,0.112,0.027,0.168,0.041
		c0.386,0.098,0.772,0.184,1.16,0.256c0.051,0.009,0.102,0.017,0.152,0.026c0.397,0.071,0.793,0.128,1.19,0.171
		c0.038,0.004,0.075,0.007,0.113,0.011c0.411,0.042,0.819,0.068,1.226,0.078c0.025,0.001,0.049,0.001,0.074,0.001
		c0.421,0.009,0.839-0.001,1.253-0.028c0.011-0.001,0.023-0.002,0.034-0.002c0.426-0.029,0.846-0.077,1.262-0.145
		c0.003-0.001,0.007-0.001,0.01-0.002c0.421-0.069,0.835-0.16,1.243-0.272c2.467-0.678,4.656-2.14,6.197-4.628
		c5.353-8.643-2.715-10.038-2.715-10.038s-0.009,0.018-0.02,0.038c-0.003,0.005-0.007,0.014-0.01,0.02
		c-0.015,0.029-0.037,0.069-0.063,0.118c-0.003,0.006-0.006,0.011-0.009,0.017c-0.467,0.852-2.505,4.3-5.557,5.556
		c-1.697,0.699-3.707,0.724-5.938-0.761c-6.834-4.546,3.575-10.782,3.575-10.782c-1.855-0.7-3.614-0.975-5.238-0.925
		c-1.034,0.032-2.011,0.2-2.923,0.477c-0.028,0.009-0.056,0.017-0.084,0.026c-0.447,0.14-0.879,0.304-1.292,0.495
		c-0.001,0-0.002,0.001-0.003,0.001c-0.835,0.386-1.595,0.87-2.276,1.43c-0.026,0.022-0.053,0.043-0.079,0.065
		c-0.326,0.273-0.634,0.563-0.92,0.869c-0.015,0.016-0.029,0.033-0.044,0.049c-0.57,0.617-1.054,1.294-1.447,2.01
		c-0.024,0.044-0.049,0.088-0.072,0.132c-0.182,0.344-0.344,0.695-0.482,1.054c-0.017,0.044-0.031,0.089-0.048,0.133
		c-0.134,0.364-0.25,0.734-0.337,1.108c-0.001,0.006-0.003,0.012-0.005,0.018c-0.085,0.37-0.139,0.744-0.176,1.12
		c-0.006,0.065-0.013,0.129-0.018,0.194c-0.027,0.363-0.031,0.727-0.011,1.091c0.004,0.063,0.011,0.125,0.016,0.188
		c0.029,0.368,0.077,0.735,0.157,1.099c0.002,0.01,0.003,0.02,0.005,0.03c0.082,0.366,0.2,0.727,0.336,1.083
		c0.026,0.067,0.049,0.134,0.077,0.2c0.142,0.344,0.31,0.681,0.505,1.011c0.036,0.062,0.077,0.122,0.116,0.184
		c0.214,0.341,0.447,0.677,0.721,0.999c0.379,0.445,0.792,0.875,1.23,1.29c-0.541,0.866-1.104,1.736-1.688,2.609
		c-0.21,0.314-0.436,0.631-0.652,0.946c-0.382,0.559-0.76,1.118-1.16,1.681c-0.298,0.419-0.613,0.841-0.92,1.262
		c-0.336,0.461-0.665,0.921-1.011,1.384c-0.35,0.467-0.717,0.937-1.077,1.406c-0.324,0.421-0.64,0.841-0.972,1.264
		c-0.396,0.504-0.809,1.01-1.216,1.516c-0.313,0.389-0.619,0.776-0.939,1.166c-0.445,0.543-0.906,1.089-1.364,1.634
		c-0.299,0.356-0.591,0.71-0.894,1.066c-0.496,0.582-1.006,1.166-1.516,1.75c-0.216,0.247-0.43,0.495-0.646,0.743l-3.361-2.285
		v6.018v4.229v25.865c4.62,9.906,35.584,30.202,56.67,39.431c0.002,0,0.004-0.001,0.006-0.001
		c5.172,2.469,10.428,4.084,15.104,3.834c6.98-0.374,14.259-4.822,20.421-9.938c4.858,3.721,8.226,5.829,8.226,5.829
		s1.559-3.165,3.672-8l2.723,26.935h103.095c-0.17-1.558-1.587-14.376-3.873-30.247c7.689,6.91,17.516,14.252,25.201,14.948
		c5.497,0.499,11.728-1.474,17.384-4.144c17.454-7.663,27.994-26.85,35.79-37.409c0.084,0.049,0.17,0.107,0.253,0.15
		c6.158,3.21,7.775-3.42,7.368-6.71C382.315,243.818,371.935,231.602,367.911,226.953z"/>
	<path style="opacity:0.51;fill:#514C4D;" d="M379.134,282.744c-0.705,0-1.406,0.022-2.106,0.054l-0.049,0.001
		c-2.306,0.108-4.579,0.39-6.807,0.83l-7.884,0.962c-1.126,0.098-2.244,0.232-3.351,0.409l-0.194,0.024l0.01,0.009
		c-21.933,3.589-39.8,22.371-41.407,45.015c-0.376,5.301,0.177,10.386,1.507,15.118h68.287c2.709-0.327,5.355-1.872,7.251-4.148
		c1.717-1.845,2.768-4.266,2.768-6.927v-0.517v-2.68v-16.988v-27.282C391.732,284.134,385.645,282.744,379.134,282.744z"/>
	<path style="fill:#6994B7;" d="M248.322,86.455c-7.936-9.338-24.611-0.716-35.116,5.118c-9.697,5.385-10.429,12.197-1.899,30.352
		l48.671-19.57C259.977,102.356,258.64,98.597,248.322,86.455z"/>
	<path style="fill:#517D9B;" d="M217.098,89.458c-1.364,0.721-2.671,1.437-3.892,2.115c-9.697,5.385-10.429,12.197-1.899,30.352
		l32.979-13.26C230.505,107.491,219.468,99.598,217.098,89.458z"/>
	<path style="fill:#6D2C25;" d="M233.577,97.975c-14.925,1.049-22.51,23.646-22.51,23.646s3.882,15.991,16.304,26.918l3.803-1.318
		C231.173,147.22,248.501,96.926,233.577,97.975z"/>
	<path style="fill:#E79B69;" d="M320.471,231.053c0,0,9.794,11.969,13.342,13.643c3.547,1.674,16.215-6.907,16.215-6.907
		l10.474,34.133c0,0-22.951,20.531-37.785,18.891c-14.834-1.64-33.961-33.758-33.961-33.758L320.471,231.053z"/>
	<path style="fill:#E79B69;" d="M167.18,234.301c0,0-6.467,11.267-10.551,12.823c-4.084,1.556-17.843-15.025-17.843-15.025
		l-13.773,31.616c0,0,20.59,29.088,37.598,27.942c17.008-1.145,39.72-32.011,39.72-32.011L167.18,234.301z"/>
	<path style="fill:#EDDBA2;" d="M283.564,177.27l4.955,93.539c30.051-2.504,44.242-33.39,44.242-33.39
		S315.649,208.203,283.564,177.27z"/>
	<path style="fill:#D8C387;" d="M283.705,179.921l4.815,90.888c6.859-0.571,12.883-2.631,18.109-5.455
		c1.917-10.342,2.003-23.053-0.195-36.519C302.765,206.353,293.737,187.867,283.705,179.921z"/>
	<path style="fill:#6994B7;" d="M195.027,310.043h103.692c0,0,3.156-90.988-3.939-114.778c-7.095-23.79-38.848-36.911-45.911-37.981
		c-13.773-2.087-50.085,23.79-54.676,31.303c-4.591,7.513,3.339,68.867,3.339,68.867L195.027,310.043z"/>
	<path style="fill:#5281A0;" d="M299.108,240.655c-0.594,63.027-20.4,65.722-44.765,65.722c-24.739,0-44.793-2.731-44.793-68.62
		c0-25.32,2.97-48.779,8.021-68.091c-11.164,7.073-21.117,15.222-23.378,18.921c-4.591,7.513,3.339,68.867,3.339,68.867
		l-2.504,52.589h103.692C298.719,310.043,299.987,273.484,299.108,240.655z"/>
	<path style="fill:#5281A0;" d="M216.903,310.043c2.892-14.043,4.592-31.097,4.592-49.501c0-37.633-7.09-69.664-17.002-81.703
		c-5.154,4.02-9,7.62-10.3,9.747c-4.591,7.513,3.339,68.867,3.339,68.867l-2.504,52.589H216.903z"/>
	<path style="fill:#EDDBA2;" d="M159.968,238.672c7.93,27.547,31.721,47.894,31.721,47.894s20.74-39.245,22.538-58.85
		c3.13-34.12-12.359-46.773-12.359-46.773C186.471,190.256,172.528,214.611,159.968,238.672z"/>
	<path style="fill:#D8C387;" d="M184.708,269.133c-9.599-2.6-11.854-25.115-5.037-50.29c3.634-13.42,9.113-24.885,14.891-32.273
		c-12.532,11.542-24.052,31.907-34.594,52.102c7.93,27.547,31.721,47.894,31.721,47.894s19.199-36.338,22.248-56.547
		C206.988,254.277,194.081,271.671,184.708,269.133z"/>
	<path style="fill:#D8C387;" d="M201.868,180.942c-2.443,1.478-4.844,3.371-7.214,5.544c3.985,2.077,8.916,3.775,14.545,5.002
		C205.724,184.094,201.868,180.942,201.868,180.942z"/>
	<path style="fill:#EDB984;" d="M333.217,244.354c-5.426,17.112-8.442,31.676,7.836,41.275c19.714-9.949,41.25-32.347,45.845-48.141
		l-16.655-18.09L333.217,244.354z"/>
	<path style="fill:#E79B69;" d="M370.243,219.398l-11.354,7.652c3.539-0.456,4.38,1.815,6.499,3.699
		c6.922,6.154,3.895,21.659-9.445,36.665c-6.154,6.922-12.957,12.15-19.188,15.2c1.255,1.052,2.677,2.06,4.298,3.016
		c19.714-9.949,41.25-32.347,45.845-48.141L370.243,219.398z"/>
	<path style="fill:#EDB984;" d="M158.513,245.908c15.443,16.742,8.408,32.822-9.798,38.107
		c-19.263-11.216-35.55-35.703-38.44-47.675l17.555-20.207L158.513,245.908z"/>
	<path style="fill:#E79B69;" d="M158.513,245.908l-2.712-2.632c3.222,12.197,2.072,22.309-3.924,25.745
		c-9.012,5.164-25.5-6.674-36.827-26.442c-1.41-2.461-2.673-4.929-3.787-7.374l-0.987,1.136
		c2.89,11.971,18.761,39.436,38.024,50.651C166.505,281.707,173.956,262.65,158.513,245.908z"/>
	<path style="fill:#EDDBA2;" d="M91.293,298.416h-9.881c-1.41,0-2.553,1.143-2.553,2.553v3.068c0,1.41,1.143,2.553,2.553,2.553
		h9.881c1.41,0,2.553-1.143,2.553-2.553v-3.068C93.846,299.559,92.703,298.416,91.293,298.416z"/>
	<path style="fill:#F4EEDF;" d="M88.139,298.52h-2.144c-1.41,0-2.553,1.143-2.553,2.553v3.068c0,1.41,1.143,2.553,2.553,2.553h2.144
		c1.41,0,2.553-1.143,2.553-2.553v-3.068C90.692,299.664,89.549,298.52,88.139,298.52z"/>
	<path style="fill:#819699;" d="M455.019,258.608v-5.974l-5.163-1.056c-0.311-1.09-0.738-2.13-1.279-3.1l2.901-4.392l-4.225-4.225
		l-4.392,2.901c-0.971-0.54-2.01-0.967-3.101-1.279l-1.056-5.163h-5.974l-1.056,5.163c-1.09,0.311-2.13,0.738-3.1,1.279
		l-4.393-2.901l-4.224,4.225l2.901,4.392c-0.54,0.971-0.967,2.01-1.279,3.1l-5.163,1.056v5.974l5.163,1.056
		c0.311,1.09,0.738,2.13,1.279,3.1l-2.901,4.392l4.224,4.225l4.393-2.901c0.971,0.54,2.01,0.967,3.1,1.279l1.056,5.163h5.974
		l1.056-5.163c1.09-0.311,2.13-0.738,3.101-1.279l4.392,2.901l4.225-4.225l-2.901-4.392c0.54-0.971,0.968-2.01,1.279-3.1
		L455.019,258.608z M435.717,266.574c-6.049,0-10.953-4.904-10.953-10.953c0-6.049,4.904-10.953,10.953-10.953
		c6.049,0,10.953,4.904,10.953,10.953C446.67,261.67,441.766,266.574,435.717,266.574z"/>
	<path style="fill:#819699;" d="M433.257,225.753v-4.91l-4.243-0.868c-0.256-0.896-0.607-1.75-1.051-2.548l2.384-3.61l-3.472-3.472
		l-3.61,2.384c-0.798-0.444-1.653-0.795-2.548-1.051l-0.868-4.243h-4.91l-0.868,4.243c-0.896,0.256-1.75,0.607-2.548,1.051
		l-3.61-2.384l-3.472,3.472l2.384,3.61c-0.444,0.798-0.795,1.652-1.051,2.548l-4.243,0.868v4.91l4.243,0.868
		c0.256,0.896,0.607,1.75,1.051,2.548l-2.384,3.61l3.472,3.472l3.61-2.384c0.798,0.444,1.652,0.795,2.548,1.051l0.868,4.243h4.91
		l0.868-4.243c0.896-0.256,1.75-0.607,2.548-1.051l3.61,2.384l3.472-3.472l-2.384-3.61c0.444-0.798,0.795-1.652,1.051-2.548
		L433.257,225.753z M417.394,230.272c-3.852,0-6.974-3.122-6.974-6.974c0-3.852,3.122-6.974,6.974-6.974
		c3.852,0,6.974,3.122,6.974,6.974C424.368,227.15,421.245,230.272,417.394,230.272z"/>
	<g>
		<g>
			<path style="fill:#E79B69;" d="M385.524,201.25c-3.201,1.881-11.218,7.023-17.531,17.171c-2.338,3.759-1.61,8.593,1.691,11.625
				l3.906,3.589c2.863,2.63,9.94,4.95,14.762,2.764c5.061-2.295,8.012-9.506,10.279-13.565
				C404.573,212.194,389.479,198.925,385.524,201.25z"/>
		</g>
	</g>
	<polygon style="fill:#E88D3A;" points="371.65,200.822 381.674,210.828 380.155,221.432 365.141,209.514 	"/>
	<path style="fill:#EDDBA2;" d="M366.067,217.152c0,0,11.85,20.259,18.674,21.871c6.825,1.613,7.689-6.752,6.855-10.474
		C390.763,224.827,372,209.304,372,209.304L366.067,217.152z"/>
	<path style="fill:#EDDBA2;" d="M248.869,157.283c-8.852-1.341-27.005,8.867-40.072,18.328c14.147,19.695,17.05,44.88,16.781,61.262
		c-0.055,3.334,2.625,6.062,5.96,6.099l50.024,0.559c3.203,0.036,5.883-2.436,6.085-5.633c0.784-12.388,1.6-42.337-6.716-63.141
		C268.947,163.949,253.531,157.99,248.869,157.283z"/>
	<path style="fill:#D8C387;" d="M280.931,174.758c-2.991-2.698-5.853-4.438-4.167-2.917c8.316,20.804,7.501,50.753,6.716,63.141
		c-0.202,3.196-2.882,5.668-6.085,5.632l-50.024-0.559c-0.334-0.004-0.656-0.053-0.975-0.109c1.029,1.782,2.932,3.001,5.142,3.026
		l50.024,0.559c3.203,0.036,5.883-2.436,6.085-5.633C288.431,225.512,289.247,195.563,280.931,174.758z"/>
	<g>
		<path style="fill:#D8C387;" d="M248.869,157.283c-8.852-1.341-27.004,8.867-40.072,18.328c3.923,5.462,6.971,11.348,9.337,17.349
			c6.896,0.809,14.47,0.998,22.391,0.437c17.574-1.245,32.96-5.887,42.64-12.094c-0.661-2.254-1.397-4.45-2.234-6.545
			C268.947,163.949,253.531,157.99,248.869,157.283z"/>
	</g>
	<path style="fill:#D27558;" d="M226.748,163.753l0.835-34.433l24.834-0.209l6.678,31.303
		C257.008,177.109,234.052,180.031,226.748,163.753z"/>
	<path style="fill:#F4E4B8;" d="M221.322,166.883l5.008-7.513c0,0,16.787,13.841,23.164,12.313
		c4.152-0.995,9.808-13.982,9.808-13.982l6.887,5.843l-0.249,17.412l-14.167-1.945l-10.556,8.889L221.322,166.883z"/>
	<path style="fill:#84392D;" d="M223.556,112.551c0.448,34.995,17.204,61.186,17.204,61.186s16.653,2.683,29.032-1.358
		c12.38-4.041,15.83-17.578,15.83-17.578s-13.414-21.345-14.257-30.824c-0.843-9.479-0.985-27.596-10.325-30.685
		C251.701,90.203,223.268,90.038,223.556,112.551z"/>
	<path style="fill:#6D2C25;" d="M268.302,105.954c0.344,0,0.684,0.02,1.026,0.029c-1.32-5.991-3.683-11.169-8.287-12.692
		c-9.339-3.089-37.772-3.254-37.484,19.259c0.16,12.448,2.385,23.771,5.183,33.209C231.12,123.336,247.919,105.954,268.302,105.954z
		"/>
	<path style="fill:#EDB984;" d="M225.352,124.33c-3.981-2.773-7.865-1.862-8.674,2.035c-0.809,3.896,1.762,9.303,5.743,12.076
		c3.981,2.773,7.865,1.862,8.674-2.035C231.904,132.509,229.333,127.103,225.352,124.33z"/>
	<path style="fill:#EDDBA2;" d="M267.224,70.414c-22.086,1.239-49.609,27.764-55.917,51.512
		c10.038-17.453,44.845-30.554,57.397-18.58C268.703,103.346,289.309,69.175,267.224,70.414z"/>
	<path style="fill:#EDB984;" d="M235.807,109.658c0,0,0.393,19.235,3.851,23.378c3.519,4.215,29.446-2.201,29.652-5.316
		c0.199-3.008-2.363-19.501-3.05-22.199C263.654,95.282,236.001,100.668,235.807,109.658z"/>
	<path style="fill:#E79B69;" d="M263.958,108.454c0.976,0,1.94,0.038,2.896,0.095c-0.247-1.405-0.458-2.495-0.594-3.029
		c-2.606-10.238-30.259-4.853-30.453,4.138c0,0,0.08,3.862,0.478,8.495C242.966,112.22,252.881,108.454,263.958,108.454z"/>
	<path style="fill:#EDC451;" d="M120.822,307.681c-2.18-1.907-45.234-4.36-45.234-4.36c-3.542,12.535-5.722,52.864,1.363,74.936
		h66.216C143.167,378.257,144.205,328.141,120.822,307.681z M118.506,360.337c0,0-5.209-36.46-5-46.46
		c6.459-0.833,19.792,28.54,19.792,46.46H118.506z"/>
	<path style="fill:#819699;" d="M77.766,288.786l-1.176-5.626l-5.07,0.022c-0.507-0.965-1.114-1.86-1.814-2.667l1.867-4.707
		l-4.81-3.146l-3.565,3.596c-1.02-0.318-2.083-0.515-3.171-0.594l-2.011-4.654l-5.625,1.176l0.022,5.07
		c-0.965,0.508-1.86,1.114-2.668,1.814l-4.707-1.866l-3.146,4.809l3.596,3.565c-0.318,1.021-0.515,2.084-0.594,3.171l-4.654,2.011
		l1.176,5.625l5.069-0.022c0.508,0.965,1.115,1.86,1.815,2.668l-1.867,4.707l4.81,3.146l3.565-3.596
		c1.02,0.318,2.084,0.515,3.171,0.593l2.011,4.654l5.626-1.176l-0.022-5.069c0.965-0.508,1.86-1.115,2.668-1.815l4.707,1.867
		l3.146-4.81l-3.596-3.565c0.318-1.02,0.515-2.084,0.594-3.171L77.766,288.786z M60.28,295.879
		c-3.372,0.705-6.677-1.457-7.382-4.829c-0.705-3.372,1.457-6.677,4.829-7.382c3.372-0.705,6.677,1.457,7.382,4.829
		C65.814,291.869,63.652,295.174,60.28,295.879z"/>
	<path style="fill:#EAAD42;" d="M139.575,344.685c2.473,20.722-4.194,26.81-20.633,26.81c-16.416,0-31.341-13.845-39.275-40.536
		c-2.876-9.673-3.87-19.174-3.231-27.588c-0.533-0.031-0.848-0.049-0.848-0.049c-3.542,12.535-5.722,52.864,1.363,74.936h66.216
		C143.167,378.257,143.495,362.279,139.575,344.685z"/>
	<path style="fill:#EAAD42;" d="M109.618,311.813c-0.277,11.162,6.649,51.857,6.649,51.857h19.669
		C135.937,343.668,126.839,311.813,109.618,311.813z M118.506,360.337c0,0-5.209-36.46-5-46.46
		c6.459-0.833,19.792,28.54,19.792,46.46H118.506z"/>
	<polygon style="fill:#EDDBA2;" points="107.672,331.378 76.421,331.378 78.921,359.92 110.172,359.92 	"/>
	<polygon style="fill:#EDDBA2;" points="104.212,324.294 77.046,324.294 77.59,328.044 104.755,328.044 	"/>
	<polygon style="fill:#C6A85C;" points="41.482,341.316 48.591,362.18 57.758,341.316 48.9,358.575 	"/>
	<polygon style="fill:#C6A85C;" points="57.654,376.347 48.878,359.129 41.378,376.347 48.857,362.104 	"/>
	<path style="fill:#D27558;" d="M224.312,127.509c-2.507-1.918-4.852-1.578-5.237,0.761c-0.385,2.339,1.336,5.789,3.844,7.708
		c2.508,1.918,4.852,1.578,5.237-0.761C228.541,132.878,226.82,129.427,224.312,127.509z"/>
	<path style="fill:#EDB984;" d="M226.774,132.413c-1.529-1.182-3.026-0.886-3.342,0.662c-0.316,1.547,0.667,3.76,2.197,4.941
		c1.529,1.182,3.026,0.886,3.342-0.662C229.287,135.807,228.303,133.595,226.774,132.413z"/>
	<path style="fill:#DDC685;" d="M268.77,72.612c3.757-0.211,6.256,0.62,7.854,2.116c-1.249-2.842-4.076-4.613-9.4-4.314
		c-22.086,1.239-49.609,27.764-55.917,51.512c1.171-2.036,2.69-4.009,4.46-5.893C225.306,94.721,249.172,73.711,268.77,72.612z"/>
	<ellipse style="fill:#F4E4B8;" cx="230.106" cy="253.736" rx="3.125" ry="4.583"/>
	<path style="fill:#F4E4B8;" d="M287.191,252.833c0-2.531-1.399-4.583-3.125-4.583c-1.726,0-3.125,2.052-3.125,4.583
		s1.399,4.583,3.125,4.583C285.792,257.417,287.191,255.365,287.191,252.833z"/>
	<g>
		<path style="fill:#5281A0;" d="M233.439,264.57h-13.334v-1.667h13.334c2.145,0,3.89-1.744,3.89-3.888v-8.612h1.667v8.612
			C238.996,262.078,236.502,264.57,233.439,264.57z"/>
	</g>
	<g>
		<path style="fill:#5281A0;" d="M287.052,264.57h-6.864c-2.342,0-4.248-2.492-4.248-5.555v-8.612h1.667v8.612
			c0,2.108,1.182,3.888,2.581,3.888h6.864c2.144,0,3.889-1.744,3.889-3.888v-7.223h1.667v7.223
			C292.608,262.078,290.116,264.57,287.052,264.57z"/>
	</g>
	<g>
		<path style="fill:#B2CCCE;" d="M383.74,165.675l-6.544-2.783c-1.693-0.72-3.649,0.069-4.369,1.762l-4.577,10.761l12.674,5.391
			l4.577-10.76C386.222,168.352,385.433,166.396,383.74,165.675z"/>
		<polygon style="fill:#B2CCCE;" points="389.668,145.406 387.887,144.648 378.567,166.766 380.349,167.523 		"/>
		<path style="fill:#B2CCCE;" d="M382.15,160.398c-1.595-0.678-3.437,0.065-4.116,1.659l-1.452,3.412l5.775,2.456l1.452-3.412
			C384.488,162.919,383.745,161.076,382.15,160.398z"/>
		<path style="fill:#D3ECED;" d="M383.74,165.675l-6.544-2.783c-0.979-0.417-2.04-0.315-2.905,0.161
			c0.082,0.166,0.139,0.335,0.229,0.499c2.667,4.88,7.585,7.33,10.985,5.471c0.095-0.052,0.165-0.134,0.255-0.192
			C385.796,167.504,385.037,166.227,383.74,165.675z"/>
		<g>
			<polygon style="fill:#91AEAF;" points="384.39,157.933 383.061,156.1 382.115,158.345 383.444,160.178 			"/>
			<polygon style="fill:#91AEAF;" points="386.076,153.931 384.748,152.098 383.802,154.343 385.13,156.176 			"/>
			<polygon style="fill:#91AEAF;" points="387.762,149.929 386.434,148.096 385.488,150.341 386.817,152.173 			"/>
			<polygon style="fill:#91AEAF;" points="389.449,145.926 388.806,145.039 387.887,144.648 387.174,146.339 388.503,148.171 			"/>
		</g>
	</g>
	<path style="fill:#F9EAC0;" d="M386.448,175.012c-0.094,5.838-11.054,32.276-15.286,42.276c-1.011,2.388-3.209,4.051-5.781,4.385
		c-1.171,0.152-2.361,0.018-3.469-0.391c0,0-14.22-6.563-10.212-16.76c3.623-9.218,15.46-36.835,16.819-37.696
		C370.147,165.795,386.495,172.089,386.448,175.012z"/>
	<path style="fill:#EDDBA2;" d="M386.448,175.012c0.01-0.622-0.726-1.396-1.9-2.22c-0.906,3.553-2.12,7.289-3.674,11.092
		c-6.935,16.971-17.651,28.647-23.936,26.079c-2.379-0.972-3.778-3.852-4.227-7.971c-0.381,0.94-0.725,1.798-1.013,2.53
		c-4.008,10.198,10.212,16.76,10.212,16.76c1.108,0.409,2.299,0.543,3.469,0.391c2.572-0.334,4.77-1.997,5.781-4.385
		C375.394,207.289,386.354,180.85,386.448,175.012z"/>
	<g>
		
			<ellipse transform="matrix(0.6813 -0.732 0.732 0.6813 -114.6584 392.8384)" style="fill:#4C4545;" cx="393.834" cy="328.101" rx="50.202" ry="52.996"/>
		<polygon style="fill:#4C4545;" points="402.885,274.764 382.556,277.282 393.028,285.126 		"/>
		<polygon style="fill:#4C4545;" points="395.951,379.619 409.244,379.619 402.397,369.257 		"/>
		
			<ellipse transform="matrix(0.7917 -0.6109 0.6109 0.7917 -114.873 317.4257)" style="fill:#605757;" cx="408.04" cy="327.164" rx="50.614" ry="53.521"/>
		
			<ellipse transform="matrix(0.7917 -0.6109 0.6109 0.7917 -114.873 317.4245)" style="fill:#4C4545;" cx="408.04" cy="327.164" rx="36.664" ry="38.77"/>
		<path style="fill:#3D3636;" d="M371.901,335.187c5.191-13.134,17.731-22.27,32.867-22.27c17.95,0,33.623,12.844,38.161,29.974
			c1.895-4.794,2.819-10.116,2.52-15.728c-1.117-20.986-18.771-37.998-39.431-37.998c-20.661,0-36.504,17.012-35.387,37.997
			C370.778,329.918,371.216,332.6,371.901,335.187z"/>
		
			<ellipse transform="matrix(0.6814 -0.732 0.732 0.6814 -111.2868 400.5689)" style="fill:#DBC077;" cx="404.423" cy="328.101" rx="28.094" ry="29.657"/>
		<path style="fill:#EDDBA2;" d="M426.507,328.102c-0.734-13.545-12.336-24.526-25.914-24.526c-13.578,0-23.99,10.98-23.256,24.526
			c0.734,13.545,12.336,24.525,25.914,24.525C416.829,352.628,427.241,341.647,426.507,328.102z"/>
		<path style="fill:#DBC077;" d="M446.676,327.164c-1.153-21.674-19.386-39.244-40.724-39.244c-21.338,0-37.701,17.57-36.548,39.243
			c1.153,21.674,19.386,39.244,40.724,39.244C431.467,366.408,447.829,348.838,446.676,327.164z M410.023,364.419
			c-20.257,0-37.566-16.68-38.661-37.255c-1.095-20.575,14.439-37.255,34.696-37.255c20.257,0,37.566,16.68,38.661,37.255
			C445.813,347.74,430.28,364.419,410.023,364.419z"/>
		<path style="fill:#3D3636;" d="M406.813,328.103c-0.113-2.082-1.896-3.77-3.984-3.77c-2.087,0-3.688,1.688-3.575,3.77
			c0.113,2.082,1.896,3.77,3.984,3.77C405.325,331.874,406.926,330.186,406.813,328.103z"/>
		<path style="fill:#4C4545;" d="M401.395,303.659c-0.067-1.24-1.13-2.246-2.373-2.246c-1.243,0-2.197,1.005-2.13,2.246
			c0.067,1.24,1.13,2.246,2.373,2.246C400.509,305.905,401.463,304.9,401.395,303.659z"/>
		<path style="fill:#4C4545;" d="M412.09,353.522c-0.067-1.24-1.13-2.246-2.373-2.246c-1.243,0-2.197,1.005-2.13,2.246
			c0.067,1.24,1.13,2.246,2.373,2.246C411.204,355.768,412.157,354.762,412.09,353.522z"/>
		<path style="fill:#4C4545;" d="M430.146,320.882c-0.067-1.24-1.13-2.246-2.373-2.246c-1.243,0-2.197,1.005-2.13,2.246
			c0.067,1.24,1.13,2.246,2.373,2.246C429.26,323.128,430.214,322.123,430.146,320.882z"/>
		<path style="fill:#4C4545;" d="M382.362,334.711c-0.067-1.24-1.13-2.246-2.373-2.246c-1.243,0-2.197,1.005-2.13,2.246
			c0.067,1.24,1.13,2.246,2.373,2.246C381.476,336.957,382.43,335.951,382.362,334.711z"/>
		<path style="fill:#4C4545;" d="M386.112,314.71c-0.067-1.24-1.13-2.246-2.373-2.246c-1.243,0-2.197,1.005-2.13,2.246
			c0.067,1.24,1.13,2.246,2.373,2.246C385.226,316.956,386.18,315.951,386.112,314.71z"/>
		<path style="fill:#4C4545;" d="M418.752,307.071c-0.067-1.24-1.13-2.246-2.373-2.246c-1.243,0-2.197,1.006-2.13,2.246
			c0.067,1.24,1.13,2.246,2.373,2.246C417.866,309.317,418.819,308.311,418.752,307.071z"/>
		<path style="fill:#4C4545;" d="M428.058,341.794c-0.067-1.24-1.13-2.246-2.373-2.246c-1.243,0-2.197,1.005-2.13,2.246
			c0.067,1.24,1.13,2.246,2.373,2.246C427.172,344.04,428.125,343.035,428.058,341.794z"/>
		<path style="fill:#4C4545;" d="M394.863,349.989c-0.067-1.24-1.13-2.246-2.373-2.246c-1.243,0-2.197,1.005-2.13,2.246
			c0.067,1.24,1.13,2.246,2.373,2.246C393.976,352.235,394.93,351.229,394.863,349.989z"/>
	</g>
	<path style="fill:#E79B69;" d="M96.83,213.231c-4.662-2.866-4.711-5.091-3.876-7.34c0.827-2.229,2.215-3.654,6.836-0.932
		c4.731,2.788,8.014,6.984,7.223,9.332C106.214,216.66,101.605,216.166,96.83,213.231z"/>
	<path style="fill:#E79B69;" d="M94.063,222.99c-4.97-3.243-5.044-5.566-4.183-7.866c0.853-2.279,2.309-3.691,7.236-0.608
		c5.054,3.163,8.593,7.728,7.778,10.14C104.071,227.091,99.164,226.319,94.063,222.99z"/>
	<path style="fill:#E79B69;" d="M90.264,232.774c-4.763-3.218-4.776-5.637-3.878-8.062c0.889-2.403,2.344-3.921,7.065-0.865
		c4.838,3.131,8.163,7.766,7.311,10.303C99.9,236.713,95.147,236.073,90.264,232.774z"/>
	<g>
		<g>
			<g>
				<path style="fill:#E79B69;" d="M105.172,207.52c3.823,0.351,4.446-0.447,14.8,6.301c3.835,2.499,5.266,7.369,3.498,11.683
					l-7.327-3.208c-1.534,3.742,0.78,21.889-4.107,19.417c-5.614-2.839-15.584-6.3-19.483-9.113
					C90.067,230.645,100.449,207.086,105.172,207.52z"/>
			</g>
		</g>
		<path style="fill:#EDB984;" d="M121.44,209.564c4.572,0.071,7.976,7.183,7.679,15.573c-0.286,8.062,1.697,17.404-2.442,17.577
			c-4.2,0.175-13.617-9.115-13.646-17.394C113.001,216.695,116.795,209.493,121.44,209.564z"/>
	</g>
	<g>
		<path style="fill:#5A4949;" d="M250.449,123.468c-0.358-2.705-1.928-4.814-3.506-4.71c-1.578,0.103-2.568,2.379-2.21,5.084
			c0.358,2.704,1.928,4.813,3.506,4.71C249.818,128.449,250.807,126.173,250.449,123.468z"/>
		<path style="fill:#84392D;" d="M247.081,107.772l-9.458,3.979c-0.795,0.334-1.169,1.269-0.836,2.088l1.257,3.09
			c0.333,0.82,1.249,1.213,2.044,0.879l9.458-3.978c0.795-0.335,1.169-1.27,0.836-2.089l-1.257-3.09
			C248.792,107.831,247.877,107.438,247.081,107.772z"/>
		<path style="fill:#5A4949;" d="M266.981,120.373c-0.788-2.616-2.674-4.444-4.211-4.084c-1.537,0.359-2.145,2.771-1.356,5.387
			c0.788,2.616,2.674,4.445,4.212,4.086C267.163,125.401,267.77,122.989,266.981,120.373z"/>
		<path style="fill:#84392D;" d="M268.778,106.353l-8.649-0.645c-0.728-0.054-1.333,0.538-1.353,1.323l-0.073,2.962
			c-0.019,0.786,0.554,1.467,1.282,1.521l8.649,0.645c0.727,0.054,1.332-0.538,1.352-1.323l0.074-2.962
			C270.079,107.088,269.505,106.407,268.778,106.353z"/>
		<path style="fill:#D27558;" d="M257.604,120.778c3.444,5.996,4.798,9.857,2.514,11.412c-1.426,0.972-3.667,0.821-5.469,0.472
			l-0.028,0.12c0,0,5.658,2.035,8.174,0.574C265.286,131.91,262.771,127.622,257.604,120.778z"/>
		<g>
			<path style="fill:#59221E;" d="M247.599,137.866l-0.379,2.55c0.265,0.127,6.601,3.097,15.333-0.411l-0.583-1.068
				C253.959,142.152,247.658,137.895,247.599,137.866z"/>
		</g>
		<path style="fill:#59221E;" d="M259.264,146.021c-0.049,0.753-1.561,1.26-3.378,1.133c-1.817-0.127-3.25-0.84-3.201-1.593
			c0.049-0.753,1.561-1.26,3.378-1.133C257.88,144.555,259.313,145.268,259.264,146.021z"/>
	</g>
	<path style="fill:#EDB984;" d="M390.247,218.478c-4.165,2.959-3.657,4.944-2.216,6.874c1.427,1.912,3.242,3.06,7.4,0.232
		c4.257-2.895,6.642-6.918,5.223-8.94C399.22,214.604,394.513,215.447,390.247,218.478z"/>
	<path style="fill:#EDB984;" d="M384.89,210.031c-4.393,3.322-3.886,5.397-2.405,7.369c1.468,1.955,3.35,3.085,7.738-0.091
		c4.502-3.258,7.063-7.631,5.601-9.708C394.349,205.504,389.399,206.621,384.89,210.031z"/>
	<path style="fill:#EDB984;" d="M378.445,201.651c-4.183,3.281-3.588,5.436-2.036,7.517c1.537,2.061,3.444,3.286,7.624,0.153
		c4.283-3.21,6.603-7.628,5.07-9.813C387.555,197.302,382.733,198.287,378.445,201.651z"/>
	<path style="fill:#EDB984;" d="M366.988,209.912c-3.976,1.936-10.261,13.852-6.6,21.046c3.518,6.912,17.497,5.355,14.167-1.875
		C371.086,221.55,371.028,207.945,366.988,209.912z"/>
	<path style="fill:#EDB984;" d="M383.564,204.861c-0.973-0.283-5.441,1.958-13.058,2.944c-5.345,0.692-8.06,7.771-4.533,12.792
		c4.399,0.443,19.689-6.573,20.905-9.064C388.207,208.812,385.684,205.479,383.564,204.861z"/>
	<g>
		<path style="fill:#B2CCCE;" d="M142.149,167.528c0,0-4.406,12.308-11.071,7.883c-6.664-4.424,3.221-13.623,3.221-13.623
			c-11.106-3.403-18.414,11.936-12.725,19.262c0.373,0.48,0.779,0.935,1.208,1.369c-8.135,18.347-21.845,38.924-37.534,60.292
			c-2.93-1.064-8.976-2.078-16.112,8.134c-2.925,4.186-3.806,7.665-3.553,10.331c0.321,3.388,5.309,3.742,6.151,0.444
			c0.292-1.146,1.161-2.543,3.015-4.212c6.579-5.924,11.155,2.465,11.155,2.465l-2.187,9.737c-0.46,2.049,1.821,3.688,3.562,2.513
			c8.974-6.054,10.525-18.201,4.742-25.025c3.022-7.03,19.442-44.224,35.668-61.301c6.103,2.746,13.704,1.643,17.292-6.522
			C149.964,167.937,142.149,167.528,142.149,167.528z"/>
		<g>
			<path style="fill:#91B4B5;" d="M122.783,182.419c-7.954,17.94-21.245,38.015-36.498,58.874c0.613,0.122,1.163,0.284,1.627,0.452
				c15.689-21.368,29.4-41.945,37.534-60.292c-0.429-0.434-0.835-0.889-1.208-1.369c-4.212-5.423-1.298-15.23,5.004-18.582
				c-8.073,1.649-12.435,13.408-7.667,19.548C121.948,181.53,122.354,181.985,122.783,182.419z"/>
			<path style="fill:#91B4B5;" d="M144.146,168.144c-1.034-0.555-1.997-0.616-1.997-0.616s-1.998,5.57-5.335,7.867
				C140.385,175.234,142.99,170.643,144.146,168.144z"/>
			<path style="fill:#91B4B5;" d="M130.353,184.83c-0.453,0.476-0.906,0.974-1.358,1.481c3.331,1.161,6.969,1.167,10.104-0.44
				C136.219,186.52,133.132,186.081,130.353,184.83z"/>
			<path style="fill:#91B4B5;" d="M86.381,268.644l2.187-9.737c0,0-3.905-7.125-9.681-3.562c4.278-0.457,7.017,4.528,7.017,4.528
				l-2.187,9.737c-0.46,2.049,1.821,3.688,3.562,2.513c0.308-0.208,0.585-0.439,0.875-0.66
				C86.994,271.176,86.073,270.012,86.381,268.644z"/>
			<path style="fill:#91B4B5;" d="M68.247,260.21c-0.252-2.666,0.628-6.145,3.553-10.331c2.883-4.126,5.583-6.4,7.977-7.598
				c-2.963,0.631-6.629,2.824-10.641,8.564c-2.925,4.186-3.806,7.665-3.553,10.331c0.269,2.841,3.811,3.538,5.447,1.749
				C69.674,262.789,68.403,261.865,68.247,260.21z"/>
		</g>
	</g>
	<path style="fill:#EDB984;" d="M98.207,223.792c5.002,1.696,5.079,3.824,4.215,6.175c-0.857,2.33-2.321,4.016-7.278,2.448
		c-5.075-1.605-8.622-4.894-7.805-7.33C88.163,222.626,93.083,222.055,98.207,223.792z"/>
	<path style="fill:#EDB984;" d="M101.047,213.783c5.335,1.989,5.44,4.205,4.548,6.611c-0.884,2.384-2.421,4.072-7.708,2.227
		c-5.424-1.893-9.248-5.477-8.406-7.981C90.331,212.113,95.572,211.742,101.047,213.783z"/>
	<path style="fill:#EDB984;" d="M104.987,203.516c5.114,2.011,5.155,4.334,4.225,6.869c-0.921,2.511-2.455,4.301-7.522,2.436
		c-5.192-1.911-8.79-5.611-7.91-8.244C94.67,201.918,99.745,201.454,104.987,203.516z"/>
	<path style="fill:#EDB984;" d="M117.105,198.804c0.91,0.517,2.451,5.463,7.188,11.836c3.324,4.472,0.004,11.627-6.267,12.65
		c-3.49-2.946-9.249-19.395-8.269-22.106C110.828,198.222,115.122,197.677,117.105,198.804z"/>
</g>
</svg>
