<svg width="30" height="31" viewBox="0 0 30 31" fill="none" xmlns="http://www.w3.org/2000/svg">
<circle cx="15" cy="15.8125" r="15" fill="#ED1C24"/>
<path fill-rule="evenodd" clip-rule="evenodd" d="M16 7.8125C16 7.26022 15.5523 6.8125 15 6.8125C14.4477 6.8125 14 7.26022 14 7.8125V14.8125H7C6.44772 14.8125 6 15.2602 6 15.8125C6 16.3648 6.44772 16.8125 7 16.8125H14V23.8125C14 24.3648 14.4477 24.8125 15 24.8125C15.5523 24.8125 16 24.3648 16 23.8125V16.8125H23C23.5523 16.8125 24 16.3648 24 15.8125C24 15.2602 23.5523 14.8125 23 14.8125H16V7.8125Z" fill="white"/>
</svg>
