<svg xmlns="http://www.w3.org/2000/svg" viewBox="0 0 100 100" id="Schedule"><path d="M21 14h-4v-3c0-1.1.9-2 2-2s2 .9 2 2v3zm10-3c0-1.1-.9-2-2-2s-2 .9-2 2v3h4v-3zm10 0c0-1.1-.9-2-2-2s-2 .9-2 2v3h4v-3zm10 0c0-1.1-.9-2-2-2s-2 .9-2 2v3h4v-3zm10 0c0-1.1-.9-2-2-2s-2 .9-2 2v3h4v-3zm10 0c0-1.1-.9-2-2-2s-2 .9-2 2v3h4v-3zm6 9c0-1.1-.9-2-2-2h-4v3c0 1.1-.9 2-2 2s-2-.9-2-2v-3h-6v3c0 1.1-.9 2-2 2s-2-.9-2-2v-3h-6v3c0 1.1-.9 2-2 2s-2-.9-2-2v-3h-6v3c0 1.1-.9 2-2 2s-2-.9-2-2v-3h-6v3c0 1.1-.9 2-2 2s-2-.9-2-2v-3h-6v3c0 1.1-.9 2-2 2s-2-.9-2-2v-3h-4c-1.1 0-2 .9-2 2v9h66v-9zM57 77c0 .68.04 1.34.12 2H13c-1.1 0-2-.9-2-2V33h66v26.12c-.66-.08-1.32-.12-2-.12-9.92 0-18 8.08-18 18zm0-26c0 1.1.9 2 2 2h10c1.1 0 2-.9 2-2V41c0-1.1-.9-2-2-2H59c-1.1 0-2 .9-2 2v10zM31 61c0-1.1-.9-2-2-2H19c-1.1 0-2 .9-2 2v10c0 1.1.9 2 2 2h10c1.1 0 2-.9 2-2V61zm0-20c0-1.1-.9-2-2-2H19c-1.1 0-2 .9-2 2v10c0 1.1.9 2 2 2h10c1.1 0 2-.9 2-2V41zm20 20c0-1.1-.9-2-2-2H39c-1.1 0-2 .9-2 2v10c0 1.1.9 2 2 2h10c1.1 0 2-.9 2-2V61zm0-20c0-1.1-.9-2-2-2H39c-1.1 0-2 .9-2 2v10c0 1.1.9 2 2 2h10c1.1 0 2-.9 2-2V41zM21 69h6v-6h-6v6zm20 0h6v-6h-6v6zM21 49h6v-6h-6v6zm20 0h6v-6h-6v6zm26-6h-6v6h6v-6zm22 34c0 7.72-6.28 14-14 14s-14-6.28-14-14 6.28-14 14-14 14 6.28 14 14zm-6 0c0-1.1-.9-2-2-2h-4v-4c0-1.1-.9-2-2-2s-2 .9-2 2v6c0 1.1.9 2 2 2h6c1.1 0 2-.9 2-2z" fill="#000000" class="color000000 svgShape"></path></svg>